%TF.GenerationSoftware,KiCad,Pcbnew,(6.0.10)*%
%TF.CreationDate,2023-01-21T19:58:42+05:30*%
%TF.ProjectId,Micro MCU V2,4d696372-6f20-44d4-9355-2056322e6b69,rev?*%
%TF.SameCoordinates,Original*%
%TF.FileFunction,Copper,L1,Top*%
%TF.FilePolarity,Positive*%
%FSLAX46Y46*%
G04 Gerber Fmt 4.6, Leading zero omitted, Abs format (unit mm)*
G04 Created by KiCad (PCBNEW (6.0.10)) date 2023-01-21 19:58:42*
%MOMM*%
%LPD*%
G01*
G04 APERTURE LIST*
%TA.AperFunction,ComponentPad*%
%ADD10R,2.000000X2.000000*%
%TD*%
%TA.AperFunction,ComponentPad*%
%ADD11C,2.000000*%
%TD*%
%TA.AperFunction,ComponentPad*%
%ADD12R,1.600000X1.600000*%
%TD*%
%TA.AperFunction,ComponentPad*%
%ADD13O,1.600000X1.600000*%
%TD*%
%TA.AperFunction,ComponentPad*%
%ADD14R,2.500000X2.500000*%
%TD*%
%TA.AperFunction,ComponentPad*%
%ADD15C,2.500000*%
%TD*%
%TA.AperFunction,ComponentPad*%
%ADD16R,1.800000X1.800000*%
%TD*%
%TA.AperFunction,ComponentPad*%
%ADD17O,1.800000X1.800000*%
%TD*%
%TA.AperFunction,ComponentPad*%
%ADD18C,1.600000*%
%TD*%
%TA.AperFunction,ComponentPad*%
%ADD19R,2.300000X2.300000*%
%TD*%
%TA.AperFunction,ComponentPad*%
%ADD20C,2.300000*%
%TD*%
%TA.AperFunction,ComponentPad*%
%ADD21R,2.200000X2.200000*%
%TD*%
%TA.AperFunction,ComponentPad*%
%ADD22O,2.200000X2.200000*%
%TD*%
%TA.AperFunction,SMDPad,CuDef*%
%ADD23R,2.500000X1.000000*%
%TD*%
%TA.AperFunction,SMDPad,CuDef*%
%ADD24R,1.000000X1.800000*%
%TD*%
%TA.AperFunction,ViaPad*%
%ADD25C,0.800000*%
%TD*%
%TA.AperFunction,Conductor*%
%ADD26C,0.750000*%
%TD*%
%TA.AperFunction,Conductor*%
%ADD27C,0.250000*%
%TD*%
G04 APERTURE END LIST*
D10*
%TO.P,D1,1*%
%TO.N,N/C*%
X169182000Y-81256000D03*
D11*
%TO.P,D1,2*%
X171722000Y-81256000D03*
%TD*%
D12*
%TO.P,U1,1*%
%TO.N,N/C*%
X164051000Y-101406000D03*
D13*
%TO.P,U1,2*%
%TO.N,GND*%
X161511000Y-101406000D03*
%TO.P,U1,3*%
%TO.N,N/C*%
X161511000Y-109026000D03*
%TO.P,U1,4*%
X164051000Y-109026000D03*
%TD*%
D14*
%TO.P,J1,1*%
%TO.N,N/C*%
X142240000Y-82978000D03*
D15*
%TO.P,J1,2*%
%TO.N,GND*%
X142240000Y-77978000D03*
%TD*%
D16*
%TO.P,Q1,1,E*%
%TO.N,GND*%
X148977000Y-76962000D03*
D17*
%TO.P,Q1,2,C*%
%TO.N,N/C*%
X148977000Y-79502000D03*
%TO.P,Q1,3,B*%
X148977000Y-82042000D03*
%TD*%
D14*
%TO.P,J1,1*%
%TO.N,N/C*%
X200932000Y-90360000D03*
D15*
%TO.P,J1,2*%
X200932000Y-85360000D03*
%TD*%
D18*
%TO.P,R2,1*%
%TO.N,N/C*%
X167404000Y-48850000D03*
D13*
%TO.P,R2,2*%
X167404000Y-56470000D03*
%TD*%
D19*
%TO.P,RLY1,1,COM*%
%TO.N,N/C*%
X176230000Y-87860000D03*
D20*
%TO.P,RLY1,2*%
X178230000Y-93860000D03*
%TO.P,RLY1,3,NO*%
X190430000Y-93860000D03*
%TO.P,RLY1,4,NC*%
X190430000Y-81860000D03*
%TO.P,RLY1,5*%
X178230000Y-81860000D03*
%TD*%
D10*
%TO.P,D1,1*%
%TO.N,N/C*%
X169126000Y-98856000D03*
D11*
%TO.P,D1,2*%
X171666000Y-98856000D03*
%TD*%
D12*
%TO.P,U1,1*%
%TO.N,N/C*%
X164107000Y-83806000D03*
D13*
%TO.P,U1,2*%
%TO.N,GND*%
X161567000Y-83806000D03*
%TO.P,U1,3*%
%TO.N,N/C*%
X161567000Y-91426000D03*
%TO.P,U1,4*%
X164107000Y-91426000D03*
%TD*%
D14*
%TO.P,J1,1*%
%TO.N,N/C*%
X142240000Y-51736000D03*
D15*
%TO.P,J1,2*%
%TO.N,GND*%
X142240000Y-46736000D03*
%TD*%
D21*
%TO.P,D2,1,K*%
%TO.N,N/C*%
X171722000Y-60026000D03*
D22*
%TO.P,D2,2,A*%
X171722000Y-49866000D03*
%TD*%
D23*
%TO.P,REF\u002A\u002A,1*%
%TO.N,N/C*%
X155172000Y-105860000D03*
%TO.P,REF\u002A\u002A,2*%
X155172000Y-103860000D03*
%TO.P,REF\u002A\u002A,3*%
X155172000Y-101860000D03*
%TO.P,REF\u002A\u002A,4*%
X155172000Y-99860000D03*
%TO.P,REF\u002A\u002A,5*%
X155172000Y-97860000D03*
%TO.P,REF\u002A\u002A,6*%
X155172000Y-95860000D03*
%TO.P,REF\u002A\u002A,7*%
X155172000Y-93860000D03*
%TO.P,REF\u002A\u002A,8*%
X155172000Y-91860000D03*
D24*
%TO.P,REF\u002A\u002A,9*%
X152572000Y-90360000D03*
%TO.P,REF\u002A\u002A,10*%
X150572000Y-90360000D03*
%TO.P,REF\u002A\u002A,11*%
X148572000Y-90360000D03*
%TO.P,REF\u002A\u002A,12*%
X146572000Y-90360000D03*
%TO.P,REF\u002A\u002A,13*%
X144572000Y-90360000D03*
%TO.P,REF\u002A\u002A,14*%
X142572000Y-90360000D03*
D23*
%TO.P,REF\u002A\u002A,15*%
%TO.N,GND*%
X139972000Y-91860000D03*
%TO.P,REF\u002A\u002A,16*%
%TO.N,N/C*%
X139972000Y-93860000D03*
%TO.P,REF\u002A\u002A,17*%
X139972000Y-95860000D03*
%TO.P,REF\u002A\u002A,18*%
X139972000Y-97860000D03*
%TO.P,REF\u002A\u002A,19*%
X139972000Y-99860000D03*
%TO.P,REF\u002A\u002A,20*%
X139972000Y-101860000D03*
%TO.P,REF\u002A\u002A,21*%
X139972000Y-103860000D03*
%TO.P,REF\u002A\u002A,22*%
X139972000Y-105860000D03*
%TD*%
D19*
%TO.P,RLY1,1,COM*%
%TO.N,N/C*%
X176174000Y-70260000D03*
D20*
%TO.P,RLY1,2*%
X178174000Y-76260000D03*
%TO.P,RLY1,3,NO*%
X190374000Y-76260000D03*
%TO.P,RLY1,4,NC*%
X190374000Y-64260000D03*
%TO.P,RLY1,5*%
X178174000Y-64260000D03*
%TD*%
D14*
%TO.P,J1,1*%
%TO.N,N/C*%
X200876000Y-72760000D03*
D15*
%TO.P,J1,2*%
X200876000Y-67760000D03*
%TD*%
D16*
%TO.P,Q1,1,E*%
%TO.N,GND*%
X168166000Y-94343000D03*
D17*
%TO.P,Q1,2,C*%
%TO.N,N/C*%
X165626000Y-94343000D03*
%TO.P,Q1,3,B*%
X163086000Y-94343000D03*
%TD*%
D14*
%TO.P,J1,1*%
%TO.N,N/C*%
X200660000Y-55332000D03*
D15*
%TO.P,J1,2*%
X200660000Y-50332000D03*
%TD*%
D18*
%TO.P,R2,1*%
%TO.N,N/C*%
X167348000Y-101650000D03*
D13*
%TO.P,R2,2*%
X167348000Y-109270000D03*
%TD*%
D18*
%TO.P,R2,1*%
%TO.N,N/C*%
X167348000Y-66450000D03*
D13*
%TO.P,R2,2*%
X167348000Y-74070000D03*
%TD*%
D21*
%TO.P,D2,1,K*%
%TO.N,N/C*%
X171666000Y-112826000D03*
D22*
%TO.P,D2,2,A*%
X171666000Y-102666000D03*
%TD*%
D14*
%TO.P,J1,1*%
%TO.N,N/C*%
X142240000Y-72564000D03*
D15*
%TO.P,J1,2*%
%TO.N,GND*%
X142240000Y-67564000D03*
%TD*%
D19*
%TO.P,RLY1,1,COM*%
%TO.N,N/C*%
X176174000Y-105460000D03*
D20*
%TO.P,RLY1,2*%
X178174000Y-111460000D03*
%TO.P,RLY1,3,NO*%
X190374000Y-111460000D03*
%TO.P,RLY1,4,NC*%
X190374000Y-99460000D03*
%TO.P,RLY1,5*%
X178174000Y-99460000D03*
%TD*%
D19*
%TO.P,RLY1,1,COM*%
%TO.N,N/C*%
X176230000Y-52660000D03*
D20*
%TO.P,RLY1,2*%
X178230000Y-58660000D03*
%TO.P,RLY1,3,NO*%
X190430000Y-58660000D03*
%TO.P,RLY1,4,NC*%
X190430000Y-46660000D03*
%TO.P,RLY1,5*%
X178230000Y-46660000D03*
%TD*%
D14*
%TO.P,J1,1*%
%TO.N,N/C*%
X200876000Y-107960000D03*
D15*
%TO.P,J1,2*%
X200876000Y-102960000D03*
%TD*%
D14*
%TO.P,J1,1*%
%TO.N,GND*%
X154138000Y-57150000D03*
D15*
%TO.P,J1,2*%
%TO.N,N/C*%
X149138000Y-57150000D03*
%TD*%
D16*
%TO.P,Q1,1,E*%
%TO.N,GND*%
X168110000Y-76743000D03*
D17*
%TO.P,Q1,2,C*%
%TO.N,N/C*%
X165570000Y-76743000D03*
%TO.P,Q1,3,B*%
X163030000Y-76743000D03*
%TD*%
D14*
%TO.P,J1,1*%
%TO.N,N/C*%
X153884000Y-48006000D03*
D15*
%TO.P,J1,2*%
%TO.N,GND*%
X148884000Y-48006000D03*
%TD*%
D21*
%TO.P,D2,1,K*%
%TO.N,N/C*%
X171722000Y-95226000D03*
D22*
%TO.P,D2,2,A*%
X171722000Y-85066000D03*
%TD*%
D12*
%TO.P,U1,1*%
%TO.N,N/C*%
X164051000Y-66206000D03*
D13*
%TO.P,U1,2*%
%TO.N,GND*%
X161511000Y-66206000D03*
%TO.P,U1,3*%
%TO.N,N/C*%
X161511000Y-73826000D03*
%TO.P,U1,4*%
X164051000Y-73826000D03*
%TD*%
D18*
%TO.P,R1,1*%
%TO.N,N/C*%
X158712000Y-63402000D03*
D13*
%TO.P,R1,2*%
X166332000Y-63402000D03*
%TD*%
D21*
%TO.P,D2,1,K*%
%TO.N,N/C*%
X171666000Y-77626000D03*
D22*
%TO.P,D2,2,A*%
X171666000Y-67466000D03*
%TD*%
D14*
%TO.P,J1,1*%
%TO.N,N/C*%
X142240000Y-62150000D03*
D15*
%TO.P,J1,2*%
%TO.N,GND*%
X142240000Y-57150000D03*
%TD*%
D16*
%TO.P,Q1,1,E*%
%TO.N,GND*%
X168110000Y-111943000D03*
D17*
%TO.P,Q1,2,C*%
%TO.N,N/C*%
X165570000Y-111943000D03*
%TO.P,Q1,3,B*%
X163030000Y-111943000D03*
%TD*%
D16*
%TO.P,Q1,1,E*%
%TO.N,GND*%
X168166000Y-59143000D03*
D17*
%TO.P,Q1,2,C*%
%TO.N,N/C*%
X165626000Y-59143000D03*
%TO.P,Q1,3,B*%
X163086000Y-59143000D03*
%TD*%
D18*
%TO.P,R1,1*%
%TO.N,N/C*%
X158712000Y-98602000D03*
D13*
%TO.P,R1,2*%
X166332000Y-98602000D03*
%TD*%
D10*
%TO.P,D1,1*%
%TO.N,N/C*%
X169182000Y-46056000D03*
D11*
%TO.P,D1,2*%
X171722000Y-46056000D03*
%TD*%
D10*
%TO.P,D1,1*%
%TO.N,N/C*%
X169126000Y-63656000D03*
D11*
%TO.P,D1,2*%
X171666000Y-63656000D03*
%TD*%
D18*
%TO.P,R2,1*%
%TO.N,N/C*%
X167404000Y-84050000D03*
D13*
%TO.P,R2,2*%
X167404000Y-91670000D03*
%TD*%
D18*
%TO.P,R1,1*%
%TO.N,N/C*%
X158768000Y-81002000D03*
D13*
%TO.P,R1,2*%
X166388000Y-81002000D03*
%TD*%
D12*
%TO.P,U1,1*%
%TO.N,N/C*%
X164107000Y-48606000D03*
D13*
%TO.P,U1,2*%
%TO.N,GND*%
X161567000Y-48606000D03*
%TO.P,U1,3*%
%TO.N,N/C*%
X161567000Y-56226000D03*
%TO.P,U1,4*%
X164107000Y-56226000D03*
%TD*%
D18*
%TO.P,R1,1*%
%TO.N,N/C*%
X158768000Y-45802000D03*
D13*
%TO.P,R1,2*%
X166388000Y-45802000D03*
%TD*%
D25*
%TO.N,*%
X142240000Y-101860000D03*
X147066000Y-62484000D03*
X147574000Y-72390000D03*
X154178000Y-85598000D03*
X157210000Y-97860000D03*
X149098000Y-85090000D03*
X139954000Y-89154000D03*
X142240000Y-99822000D03*
X142240000Y-97790000D03*
X147320000Y-52832000D03*
X142240000Y-95860000D03*
%TD*%
D26*
%TO.N,*%
X156972000Y-87122000D02*
X156972000Y-52832000D01*
X156972000Y-52832000D02*
X147320000Y-52832000D01*
X158750000Y-87122000D02*
X156972000Y-87122000D01*
X158750000Y-95860000D02*
X158750000Y-87122000D01*
X155172000Y-95860000D02*
X158750000Y-95860000D01*
D27*
X149098000Y-86106000D02*
X149098000Y-85090000D01*
D26*
X155702000Y-88138000D02*
X155702000Y-62484000D01*
X157480000Y-88392000D02*
X155956000Y-88392000D01*
X146572000Y-88406000D02*
X146558000Y-88392000D01*
X150876000Y-72390000D02*
X147574000Y-72390000D01*
D27*
X139972000Y-103860000D02*
X139946000Y-103886000D01*
D26*
X139972000Y-99860000D02*
X142202000Y-99860000D01*
X155172000Y-89894000D02*
X154178000Y-88900000D01*
X155956000Y-88392000D02*
X155702000Y-88138000D01*
X139972000Y-95860000D02*
X142240000Y-95860000D01*
X151130000Y-72644000D02*
X150876000Y-72390000D01*
X151130000Y-87884000D02*
X151130000Y-72644000D01*
X150622000Y-88392000D02*
X151130000Y-87884000D01*
D27*
X137922000Y-86360000D02*
X138176000Y-86106000D01*
D26*
X155702000Y-62484000D02*
X147066000Y-62484000D01*
X157360000Y-93860000D02*
X157480000Y-93740000D01*
D27*
X139946000Y-103886000D02*
X137922000Y-103886000D01*
D26*
X155172000Y-93860000D02*
X157360000Y-93860000D01*
X157210000Y-97860000D02*
X155172000Y-97860000D01*
X157480000Y-93740000D02*
X157480000Y-88392000D01*
X146572000Y-90360000D02*
X146572000Y-88406000D01*
D27*
X137922000Y-103886000D02*
X137922000Y-86360000D01*
D26*
X142202000Y-99860000D02*
X142240000Y-99822000D01*
X146558000Y-88392000D02*
X150622000Y-88392000D01*
X155172000Y-91860000D02*
X155172000Y-89894000D01*
X142170000Y-97860000D02*
X142240000Y-97790000D01*
D27*
X138176000Y-86106000D02*
X149098000Y-86106000D01*
D26*
X139972000Y-101860000D02*
X142240000Y-101860000D01*
X154178000Y-88900000D02*
X154178000Y-85598000D01*
X139972000Y-97860000D02*
X142170000Y-97860000D01*
%TO.N,GND*%
X139972000Y-89172000D02*
X139954000Y-89154000D01*
X139972000Y-91860000D02*
X139972000Y-89172000D01*
%TD*%
M02*
