M48
; DRILL file {KiCad (6.0.10)} date Sat Jan 21 19:58:44 2023
; FORMAT={-:-/ absolute / metric / decimal}
; #@! TF.CreationDate,2023-01-21T19:58:44+05:30
; #@! TF.GenerationSoftware,Kicad,Pcbnew,(6.0.10)
; #@! TF.FileFunction,Plated,1,2,PTH
FMAT,2
METRIC
; #@! TA.AperFunction,Plated,PTH,ViaDrill
T1C0.400
; #@! TA.AperFunction,Plated,PTH,ComponentDrill
T2C0.800
; #@! TA.AperFunction,Plated,PTH,ComponentDrill
T3C1.000
; #@! TA.AperFunction,Plated,PTH,ComponentDrill
T4C1.100
; #@! TA.AperFunction,Plated,PTH,ComponentDrill
T5C1.300
%
G90
G05
T1
X139.954Y-89.154
X142.24Y-95.86
X142.24Y-97.79
X142.24Y-99.822
X142.24Y-101.86
X147.066Y-62.484
X147.32Y-52.832
X147.574Y-72.39
X149.098Y-85.09
X154.178Y-85.598
X157.21Y-97.86
T2
X158.712Y-63.402
X158.712Y-98.602
X158.768Y-45.802
X158.768Y-81.002
X161.511Y-66.206
X161.511Y-73.826
X161.511Y-101.406
X161.511Y-109.026
X161.567Y-48.606
X161.567Y-56.226
X161.567Y-83.806
X161.567Y-91.426
X164.051Y-66.206
X164.051Y-73.826
X164.051Y-101.406
X164.051Y-109.026
X164.107Y-48.606
X164.107Y-56.226
X164.107Y-83.806
X164.107Y-91.426
X166.332Y-63.402
X166.332Y-98.602
X166.388Y-45.802
X166.388Y-81.002
X167.348Y-66.45
X167.348Y-74.07
X167.348Y-101.65
X167.348Y-109.27
X167.404Y-48.85
X167.404Y-56.47
X167.404Y-84.05
X167.404Y-91.67
T3
X148.977Y-76.962
X148.977Y-79.502
X148.977Y-82.042
X163.03Y-76.743
X163.03Y-111.943
X163.086Y-59.143
X163.086Y-94.343
X165.57Y-76.743
X165.57Y-111.943
X165.626Y-59.143
X165.626Y-94.343
X168.11Y-76.743
X168.11Y-111.943
X168.166Y-59.143
X168.166Y-94.343
X169.126Y-63.656
X169.126Y-98.856
X169.182Y-46.056
X169.182Y-81.256
X171.666Y-63.656
X171.666Y-98.856
X171.722Y-46.056
X171.722Y-81.256
T4
X171.666Y-67.466
X171.666Y-77.626
X171.666Y-102.666
X171.666Y-112.826
X171.722Y-49.866
X171.722Y-60.026
X171.722Y-85.066
X171.722Y-95.226
T5
X142.24Y-46.736
X142.24Y-51.736
X142.24Y-57.15
X142.24Y-62.15
X142.24Y-67.564
X142.24Y-72.564
X142.24Y-77.978
X142.24Y-82.978
X148.884Y-48.006
X149.138Y-57.15
X153.884Y-48.006
X154.138Y-57.15
X176.174Y-70.26
X176.174Y-105.46
X176.23Y-52.66
X176.23Y-87.86
X178.174Y-64.26
X178.174Y-76.26
X178.174Y-99.46
X178.174Y-111.46
X178.23Y-46.66
X178.23Y-58.66
X178.23Y-81.86
X178.23Y-93.86
X190.374Y-64.26
X190.374Y-76.26
X190.374Y-99.46
X190.374Y-111.46
X190.43Y-46.66
X190.43Y-58.66
X190.43Y-81.86
X190.43Y-93.86
X200.66Y-50.332
X200.66Y-55.332
X200.876Y-67.76
X200.876Y-72.76
X200.876Y-102.96
X200.876Y-107.96
X200.932Y-85.36
X200.932Y-90.36
T0
M30
