%TF.GenerationSoftware,KiCad,Pcbnew,(6.0.10)*%
%TF.CreationDate,2023-01-21T20:17:03+05:30*%
%TF.ProjectId,3S BMS BTB,33532042-4d53-4204-9254-422e6b696361,rev?*%
%TF.SameCoordinates,Original*%
%TF.FileFunction,Legend,Top*%
%TF.FilePolarity,Positive*%
%FSLAX46Y46*%
G04 Gerber Fmt 4.6, Leading zero omitted, Abs format (unit mm)*
G04 Created by KiCad (PCBNEW (6.0.10)) date 2023-01-21 20:17:03*
%MOMM*%
%LPD*%
G01*
G04 APERTURE LIST*
%ADD10C,0.250000*%
G04 APERTURE END LIST*
D10*
X169828000Y-123000000D02*
X172368000Y-123000000D01*
X128906000Y-119558000D02*
X128906000Y-115408000D01*
%TO.C,RLY1*%
X162482000Y-97311476D02*
X162065333Y-96716238D01*
X161767714Y-97311476D02*
X161767714Y-96061476D01*
X162243904Y-96061476D01*
X162362952Y-96121000D01*
X162422476Y-96180523D01*
X162482000Y-96299571D01*
X162482000Y-96478142D01*
X162422476Y-96597190D01*
X162362952Y-96656714D01*
X162243904Y-96716238D01*
X161767714Y-96716238D01*
X163612952Y-97311476D02*
X163017714Y-97311476D01*
X163017714Y-96061476D01*
X164267714Y-96716238D02*
X164267714Y-97311476D01*
X163851047Y-96061476D02*
X164267714Y-96716238D01*
X164684380Y-96061476D01*
X165755809Y-97311476D02*
X165041523Y-97311476D01*
X165398666Y-97311476D02*
X165398666Y-96061476D01*
X165279619Y-96240047D01*
X165160571Y-96359095D01*
X165041523Y-96418619D01*
%TO.C,R3*%
X143711666Y-137443476D02*
X143295000Y-136848238D01*
X142997380Y-137443476D02*
X142997380Y-136193476D01*
X143473571Y-136193476D01*
X143592619Y-136253000D01*
X143652142Y-136312523D01*
X143711666Y-136431571D01*
X143711666Y-136610142D01*
X143652142Y-136729190D01*
X143592619Y-136788714D01*
X143473571Y-136848238D01*
X142997380Y-136848238D01*
X144128333Y-136193476D02*
X144902142Y-136193476D01*
X144485476Y-136669666D01*
X144664047Y-136669666D01*
X144783095Y-136729190D01*
X144842619Y-136788714D01*
X144902142Y-136907761D01*
X144902142Y-137205380D01*
X144842619Y-137324428D01*
X144783095Y-137383952D01*
X144664047Y-137443476D01*
X144306904Y-137443476D01*
X144187857Y-137383952D01*
X144128333Y-137324428D01*
%TO.C,D8*%
X135118380Y-103749476D02*
X135118380Y-102499476D01*
X135416000Y-102499476D01*
X135594571Y-102559000D01*
X135713619Y-102678047D01*
X135773142Y-102797095D01*
X135832666Y-103035190D01*
X135832666Y-103213761D01*
X135773142Y-103451857D01*
X135713619Y-103570904D01*
X135594571Y-103689952D01*
X135416000Y-103749476D01*
X135118380Y-103749476D01*
X136546952Y-103035190D02*
X136427904Y-102975666D01*
X136368380Y-102916142D01*
X136308857Y-102797095D01*
X136308857Y-102737571D01*
X136368380Y-102618523D01*
X136427904Y-102559000D01*
X136546952Y-102499476D01*
X136785047Y-102499476D01*
X136904095Y-102559000D01*
X136963619Y-102618523D01*
X137023142Y-102737571D01*
X137023142Y-102797095D01*
X136963619Y-102916142D01*
X136904095Y-102975666D01*
X136785047Y-103035190D01*
X136546952Y-103035190D01*
X136427904Y-103094714D01*
X136368380Y-103154238D01*
X136308857Y-103273285D01*
X136308857Y-103511380D01*
X136368380Y-103630428D01*
X136427904Y-103689952D01*
X136546952Y-103749476D01*
X136785047Y-103749476D01*
X136904095Y-103689952D01*
X136963619Y-103630428D01*
X137023142Y-103511380D01*
X137023142Y-103273285D01*
X136963619Y-103154238D01*
X136904095Y-103094714D01*
X136785047Y-103035190D01*
%TO.C,VR1*%
X126789095Y-66924476D02*
X127205761Y-68174476D01*
X127622428Y-66924476D01*
X128753380Y-68174476D02*
X128336714Y-67579238D01*
X128039095Y-68174476D02*
X128039095Y-66924476D01*
X128515285Y-66924476D01*
X128634333Y-66984000D01*
X128693857Y-67043523D01*
X128753380Y-67162571D01*
X128753380Y-67341142D01*
X128693857Y-67460190D01*
X128634333Y-67519714D01*
X128515285Y-67579238D01*
X128039095Y-67579238D01*
X129943857Y-68174476D02*
X129229571Y-68174476D01*
X129586714Y-68174476D02*
X129586714Y-66924476D01*
X129467666Y-67103047D01*
X129348619Y-67222095D01*
X129229571Y-67281619D01*
%TO.C,Q1*%
X138466952Y-57552523D02*
X138347904Y-57493000D01*
X138228857Y-57373952D01*
X138050285Y-57195380D01*
X137931238Y-57135857D01*
X137812190Y-57135857D01*
X137871714Y-57433476D02*
X137752666Y-57373952D01*
X137633619Y-57254904D01*
X137574095Y-57016809D01*
X137574095Y-56600142D01*
X137633619Y-56362047D01*
X137752666Y-56243000D01*
X137871714Y-56183476D01*
X138109809Y-56183476D01*
X138228857Y-56243000D01*
X138347904Y-56362047D01*
X138407428Y-56600142D01*
X138407428Y-57016809D01*
X138347904Y-57254904D01*
X138228857Y-57373952D01*
X138109809Y-57433476D01*
X137871714Y-57433476D01*
X139597904Y-57433476D02*
X138883619Y-57433476D01*
X139240761Y-57433476D02*
X139240761Y-56183476D01*
X139121714Y-56362047D01*
X139002666Y-56481095D01*
X138883619Y-56540619D01*
%TO.C,RV1*%
X131237952Y-59973476D02*
X130821285Y-59378238D01*
X130523666Y-59973476D02*
X130523666Y-58723476D01*
X130999857Y-58723476D01*
X131118904Y-58783000D01*
X131178428Y-58842523D01*
X131237952Y-58961571D01*
X131237952Y-59140142D01*
X131178428Y-59259190D01*
X131118904Y-59318714D01*
X130999857Y-59378238D01*
X130523666Y-59378238D01*
X131595095Y-58723476D02*
X132011761Y-59973476D01*
X132428428Y-58723476D01*
X133499857Y-59973476D02*
X132785571Y-59973476D01*
X133142714Y-59973476D02*
X133142714Y-58723476D01*
X133023666Y-58902047D01*
X132904619Y-59021095D01*
X132785571Y-59080619D01*
%TO.C,D4*%
X148077380Y-88929476D02*
X148077380Y-87679476D01*
X148375000Y-87679476D01*
X148553571Y-87739000D01*
X148672619Y-87858047D01*
X148732142Y-87977095D01*
X148791666Y-88215190D01*
X148791666Y-88393761D01*
X148732142Y-88631857D01*
X148672619Y-88750904D01*
X148553571Y-88869952D01*
X148375000Y-88929476D01*
X148077380Y-88929476D01*
X149863095Y-88096142D02*
X149863095Y-88929476D01*
X149565476Y-87619952D02*
X149267857Y-88512809D01*
X150041666Y-88512809D01*
X152736619Y-86643476D02*
X152736619Y-85393476D01*
X153450904Y-86643476D02*
X152915190Y-85929190D01*
X153450904Y-85393476D02*
X152736619Y-86107761D01*
%TO.C,R1*%
X140675476Y-129720333D02*
X140080238Y-130137000D01*
X140675476Y-130434619D02*
X139425476Y-130434619D01*
X139425476Y-129958428D01*
X139485000Y-129839380D01*
X139544523Y-129779857D01*
X139663571Y-129720333D01*
X139842142Y-129720333D01*
X139961190Y-129779857D01*
X140020714Y-129839380D01*
X140080238Y-129958428D01*
X140080238Y-130434619D01*
X140675476Y-128529857D02*
X140675476Y-129244142D01*
X140675476Y-128887000D02*
X139425476Y-128887000D01*
X139604047Y-129006047D01*
X139723095Y-129125095D01*
X139782619Y-129244142D01*
%TO.C,Q1*%
X138466952Y-115972523D02*
X138347904Y-115913000D01*
X138228857Y-115793952D01*
X138050285Y-115615380D01*
X137931238Y-115555857D01*
X137812190Y-115555857D01*
X137871714Y-115853476D02*
X137752666Y-115793952D01*
X137633619Y-115674904D01*
X137574095Y-115436809D01*
X137574095Y-115020142D01*
X137633619Y-114782047D01*
X137752666Y-114663000D01*
X137871714Y-114603476D01*
X138109809Y-114603476D01*
X138228857Y-114663000D01*
X138347904Y-114782047D01*
X138407428Y-115020142D01*
X138407428Y-115436809D01*
X138347904Y-115674904D01*
X138228857Y-115793952D01*
X138109809Y-115853476D01*
X137871714Y-115853476D01*
X139597904Y-115853476D02*
X138883619Y-115853476D01*
X139240761Y-115853476D02*
X139240761Y-114603476D01*
X139121714Y-114782047D01*
X139002666Y-114901095D01*
X138883619Y-114960619D01*
%TO.C,RLY1*%
X162482000Y-68101476D02*
X162065333Y-67506238D01*
X161767714Y-68101476D02*
X161767714Y-66851476D01*
X162243904Y-66851476D01*
X162362952Y-66911000D01*
X162422476Y-66970523D01*
X162482000Y-67089571D01*
X162482000Y-67268142D01*
X162422476Y-67387190D01*
X162362952Y-67446714D01*
X162243904Y-67506238D01*
X161767714Y-67506238D01*
X163612952Y-68101476D02*
X163017714Y-68101476D01*
X163017714Y-66851476D01*
X164267714Y-67506238D02*
X164267714Y-68101476D01*
X163851047Y-66851476D02*
X164267714Y-67506238D01*
X164684380Y-66851476D01*
X165755809Y-68101476D02*
X165041523Y-68101476D01*
X165398666Y-68101476D02*
X165398666Y-66851476D01*
X165279619Y-67030047D01*
X165160571Y-67149095D01*
X165041523Y-67208619D01*
%TO.C,R3*%
X143711666Y-108233476D02*
X143295000Y-107638238D01*
X142997380Y-108233476D02*
X142997380Y-106983476D01*
X143473571Y-106983476D01*
X143592619Y-107043000D01*
X143652142Y-107102523D01*
X143711666Y-107221571D01*
X143711666Y-107400142D01*
X143652142Y-107519190D01*
X143592619Y-107578714D01*
X143473571Y-107638238D01*
X142997380Y-107638238D01*
X144128333Y-106983476D02*
X144902142Y-106983476D01*
X144485476Y-107459666D01*
X144664047Y-107459666D01*
X144783095Y-107519190D01*
X144842619Y-107578714D01*
X144902142Y-107697761D01*
X144902142Y-107995380D01*
X144842619Y-108114428D01*
X144783095Y-108173952D01*
X144664047Y-108233476D01*
X144306904Y-108233476D01*
X144187857Y-108173952D01*
X144128333Y-108114428D01*
%TO.C,J1*%
X124947476Y-108084666D02*
X125840333Y-108084666D01*
X126018904Y-108144190D01*
X126137952Y-108263238D01*
X126197476Y-108441809D01*
X126197476Y-108560857D01*
X126197476Y-106834666D02*
X126197476Y-107548952D01*
X126197476Y-107191809D02*
X124947476Y-107191809D01*
X125126047Y-107310857D01*
X125245095Y-107429904D01*
X125304619Y-107548952D01*
%TO.C,D3*%
X163063380Y-72165476D02*
X163063380Y-70915476D01*
X163361000Y-70915476D01*
X163539571Y-70975000D01*
X163658619Y-71094047D01*
X163718142Y-71213095D01*
X163777666Y-71451190D01*
X163777666Y-71629761D01*
X163718142Y-71867857D01*
X163658619Y-71986904D01*
X163539571Y-72105952D01*
X163361000Y-72165476D01*
X163063380Y-72165476D01*
X164194333Y-70915476D02*
X164968142Y-70915476D01*
X164551476Y-71391666D01*
X164730047Y-71391666D01*
X164849095Y-71451190D01*
X164908619Y-71510714D01*
X164968142Y-71629761D01*
X164968142Y-71927380D01*
X164908619Y-72046428D01*
X164849095Y-72105952D01*
X164730047Y-72165476D01*
X164372904Y-72165476D01*
X164253857Y-72105952D01*
X164194333Y-72046428D01*
X159848619Y-69879476D02*
X159848619Y-68629476D01*
X160562904Y-69879476D02*
X160027190Y-69165190D01*
X160562904Y-68629476D02*
X159848619Y-69343761D01*
%TO.C,RV1*%
X131237952Y-89183476D02*
X130821285Y-88588238D01*
X130523666Y-89183476D02*
X130523666Y-87933476D01*
X130999857Y-87933476D01*
X131118904Y-87993000D01*
X131178428Y-88052523D01*
X131237952Y-88171571D01*
X131237952Y-88350142D01*
X131178428Y-88469190D01*
X131118904Y-88528714D01*
X130999857Y-88588238D01*
X130523666Y-88588238D01*
X131595095Y-87933476D02*
X132011761Y-89183476D01*
X132428428Y-87933476D01*
X133499857Y-89183476D02*
X132785571Y-89183476D01*
X133142714Y-89183476D02*
X133142714Y-87933476D01*
X133023666Y-88112047D01*
X132904619Y-88231095D01*
X132785571Y-88290619D01*
%TO.C,R1*%
X140675476Y-100510333D02*
X140080238Y-100927000D01*
X140675476Y-101224619D02*
X139425476Y-101224619D01*
X139425476Y-100748428D01*
X139485000Y-100629380D01*
X139544523Y-100569857D01*
X139663571Y-100510333D01*
X139842142Y-100510333D01*
X139961190Y-100569857D01*
X140020714Y-100629380D01*
X140080238Y-100748428D01*
X140080238Y-101224619D01*
X140675476Y-99319857D02*
X140675476Y-100034142D01*
X140675476Y-99677000D02*
X139425476Y-99677000D01*
X139604047Y-99796047D01*
X139723095Y-99915095D01*
X139782619Y-100034142D01*
%TO.C,RLY1*%
X162482000Y-126521476D02*
X162065333Y-125926238D01*
X161767714Y-126521476D02*
X161767714Y-125271476D01*
X162243904Y-125271476D01*
X162362952Y-125331000D01*
X162422476Y-125390523D01*
X162482000Y-125509571D01*
X162482000Y-125688142D01*
X162422476Y-125807190D01*
X162362952Y-125866714D01*
X162243904Y-125926238D01*
X161767714Y-125926238D01*
X163612952Y-126521476D02*
X163017714Y-126521476D01*
X163017714Y-125271476D01*
X164267714Y-125926238D02*
X164267714Y-126521476D01*
X163851047Y-125271476D02*
X164267714Y-125926238D01*
X164684380Y-125271476D01*
X165755809Y-126521476D02*
X165041523Y-126521476D01*
X165398666Y-126521476D02*
X165398666Y-125271476D01*
X165279619Y-125450047D01*
X165160571Y-125569095D01*
X165041523Y-125628619D01*
%TO.C,D4*%
X148077380Y-118139476D02*
X148077380Y-116889476D01*
X148375000Y-116889476D01*
X148553571Y-116949000D01*
X148672619Y-117068047D01*
X148732142Y-117187095D01*
X148791666Y-117425190D01*
X148791666Y-117603761D01*
X148732142Y-117841857D01*
X148672619Y-117960904D01*
X148553571Y-118079952D01*
X148375000Y-118139476D01*
X148077380Y-118139476D01*
X149863095Y-117306142D02*
X149863095Y-118139476D01*
X149565476Y-116829952D02*
X149267857Y-117722809D01*
X150041666Y-117722809D01*
X152736619Y-115853476D02*
X152736619Y-114603476D01*
X153450904Y-115853476D02*
X152915190Y-115139190D01*
X153450904Y-114603476D02*
X152736619Y-115317761D01*
%TO.C,D3*%
X163063380Y-101375476D02*
X163063380Y-100125476D01*
X163361000Y-100125476D01*
X163539571Y-100185000D01*
X163658619Y-100304047D01*
X163718142Y-100423095D01*
X163777666Y-100661190D01*
X163777666Y-100839761D01*
X163718142Y-101077857D01*
X163658619Y-101196904D01*
X163539571Y-101315952D01*
X163361000Y-101375476D01*
X163063380Y-101375476D01*
X164194333Y-100125476D02*
X164968142Y-100125476D01*
X164551476Y-100601666D01*
X164730047Y-100601666D01*
X164849095Y-100661190D01*
X164908619Y-100720714D01*
X164968142Y-100839761D01*
X164968142Y-101137380D01*
X164908619Y-101256428D01*
X164849095Y-101315952D01*
X164730047Y-101375476D01*
X164372904Y-101375476D01*
X164253857Y-101315952D01*
X164194333Y-101256428D01*
X159848619Y-99089476D02*
X159848619Y-97839476D01*
X160562904Y-99089476D02*
X160027190Y-98375190D01*
X160562904Y-97839476D02*
X159848619Y-98553761D01*
%TO.C,D6*%
X148077380Y-126775476D02*
X148077380Y-125525476D01*
X148375000Y-125525476D01*
X148553571Y-125585000D01*
X148672619Y-125704047D01*
X148732142Y-125823095D01*
X148791666Y-126061190D01*
X148791666Y-126239761D01*
X148732142Y-126477857D01*
X148672619Y-126596904D01*
X148553571Y-126715952D01*
X148375000Y-126775476D01*
X148077380Y-126775476D01*
X149863095Y-125525476D02*
X149625000Y-125525476D01*
X149505952Y-125585000D01*
X149446428Y-125644523D01*
X149327380Y-125823095D01*
X149267857Y-126061190D01*
X149267857Y-126537380D01*
X149327380Y-126656428D01*
X149386904Y-126715952D01*
X149505952Y-126775476D01*
X149744047Y-126775476D01*
X149863095Y-126715952D01*
X149922619Y-126656428D01*
X149982142Y-126537380D01*
X149982142Y-126239761D01*
X149922619Y-126120714D01*
X149863095Y-126061190D01*
X149744047Y-126001666D01*
X149505952Y-126001666D01*
X149386904Y-126061190D01*
X149327380Y-126120714D01*
X149267857Y-126239761D01*
X154514619Y-126775476D02*
X154514619Y-125525476D01*
X155228904Y-126775476D02*
X154693190Y-126061190D01*
X155228904Y-125525476D02*
X154514619Y-126239761D01*
%TO.C,D8*%
X135118380Y-132959476D02*
X135118380Y-131709476D01*
X135416000Y-131709476D01*
X135594571Y-131769000D01*
X135713619Y-131888047D01*
X135773142Y-132007095D01*
X135832666Y-132245190D01*
X135832666Y-132423761D01*
X135773142Y-132661857D01*
X135713619Y-132780904D01*
X135594571Y-132899952D01*
X135416000Y-132959476D01*
X135118380Y-132959476D01*
X136546952Y-132245190D02*
X136427904Y-132185666D01*
X136368380Y-132126142D01*
X136308857Y-132007095D01*
X136308857Y-131947571D01*
X136368380Y-131828523D01*
X136427904Y-131769000D01*
X136546952Y-131709476D01*
X136785047Y-131709476D01*
X136904095Y-131769000D01*
X136963619Y-131828523D01*
X137023142Y-131947571D01*
X137023142Y-132007095D01*
X136963619Y-132126142D01*
X136904095Y-132185666D01*
X136785047Y-132245190D01*
X136546952Y-132245190D01*
X136427904Y-132304714D01*
X136368380Y-132364238D01*
X136308857Y-132483285D01*
X136308857Y-132721380D01*
X136368380Y-132840428D01*
X136427904Y-132899952D01*
X136546952Y-132959476D01*
X136785047Y-132959476D01*
X136904095Y-132899952D01*
X136963619Y-132840428D01*
X137023142Y-132721380D01*
X137023142Y-132483285D01*
X136963619Y-132364238D01*
X136904095Y-132304714D01*
X136785047Y-132245190D01*
%TO.C,D5*%
X148077380Y-64291476D02*
X148077380Y-63041476D01*
X148375000Y-63041476D01*
X148553571Y-63101000D01*
X148672619Y-63220047D01*
X148732142Y-63339095D01*
X148791666Y-63577190D01*
X148791666Y-63755761D01*
X148732142Y-63993857D01*
X148672619Y-64112904D01*
X148553571Y-64231952D01*
X148375000Y-64291476D01*
X148077380Y-64291476D01*
X149922619Y-63041476D02*
X149327380Y-63041476D01*
X149267857Y-63636714D01*
X149327380Y-63577190D01*
X149446428Y-63517666D01*
X149744047Y-63517666D01*
X149863095Y-63577190D01*
X149922619Y-63636714D01*
X149982142Y-63755761D01*
X149982142Y-64053380D01*
X149922619Y-64172428D01*
X149863095Y-64231952D01*
X149744047Y-64291476D01*
X149446428Y-64291476D01*
X149327380Y-64231952D01*
X149267857Y-64172428D01*
X144862619Y-62005476D02*
X144862619Y-60755476D01*
X145576904Y-62005476D02*
X145041190Y-61291190D01*
X145576904Y-60755476D02*
X144862619Y-61469761D01*
%TO.C,D7*%
X148585380Y-131093476D02*
X148585380Y-129843476D01*
X148883000Y-129843476D01*
X149061571Y-129903000D01*
X149180619Y-130022047D01*
X149240142Y-130141095D01*
X149299666Y-130379190D01*
X149299666Y-130557761D01*
X149240142Y-130795857D01*
X149180619Y-130914904D01*
X149061571Y-131033952D01*
X148883000Y-131093476D01*
X148585380Y-131093476D01*
X149716333Y-129843476D02*
X150549666Y-129843476D01*
X150013952Y-131093476D01*
X142830619Y-131093476D02*
X142830619Y-129843476D01*
X143544904Y-131093476D02*
X143009190Y-130379190D01*
X143544904Y-129843476D02*
X142830619Y-130557761D01*
%TO.C,R3*%
X143711666Y-79023476D02*
X143295000Y-78428238D01*
X142997380Y-79023476D02*
X142997380Y-77773476D01*
X143473571Y-77773476D01*
X143592619Y-77833000D01*
X143652142Y-77892523D01*
X143711666Y-78011571D01*
X143711666Y-78190142D01*
X143652142Y-78309190D01*
X143592619Y-78368714D01*
X143473571Y-78428238D01*
X142997380Y-78428238D01*
X144128333Y-77773476D02*
X144902142Y-77773476D01*
X144485476Y-78249666D01*
X144664047Y-78249666D01*
X144783095Y-78309190D01*
X144842619Y-78368714D01*
X144902142Y-78487761D01*
X144902142Y-78785380D01*
X144842619Y-78904428D01*
X144783095Y-78963952D01*
X144664047Y-79023476D01*
X144306904Y-79023476D01*
X144187857Y-78963952D01*
X144128333Y-78904428D01*
%TO.C,D6*%
X148077380Y-68355476D02*
X148077380Y-67105476D01*
X148375000Y-67105476D01*
X148553571Y-67165000D01*
X148672619Y-67284047D01*
X148732142Y-67403095D01*
X148791666Y-67641190D01*
X148791666Y-67819761D01*
X148732142Y-68057857D01*
X148672619Y-68176904D01*
X148553571Y-68295952D01*
X148375000Y-68355476D01*
X148077380Y-68355476D01*
X149863095Y-67105476D02*
X149625000Y-67105476D01*
X149505952Y-67165000D01*
X149446428Y-67224523D01*
X149327380Y-67403095D01*
X149267857Y-67641190D01*
X149267857Y-68117380D01*
X149327380Y-68236428D01*
X149386904Y-68295952D01*
X149505952Y-68355476D01*
X149744047Y-68355476D01*
X149863095Y-68295952D01*
X149922619Y-68236428D01*
X149982142Y-68117380D01*
X149982142Y-67819761D01*
X149922619Y-67700714D01*
X149863095Y-67641190D01*
X149744047Y-67581666D01*
X149505952Y-67581666D01*
X149386904Y-67641190D01*
X149327380Y-67700714D01*
X149267857Y-67819761D01*
X154514619Y-68355476D02*
X154514619Y-67105476D01*
X155228904Y-68355476D02*
X154693190Y-67641190D01*
X155228904Y-67105476D02*
X154514619Y-67819761D01*
%TO.C,Q1*%
X138466952Y-86762523D02*
X138347904Y-86703000D01*
X138228857Y-86583952D01*
X138050285Y-86405380D01*
X137931238Y-86345857D01*
X137812190Y-86345857D01*
X137871714Y-86643476D02*
X137752666Y-86583952D01*
X137633619Y-86464904D01*
X137574095Y-86226809D01*
X137574095Y-85810142D01*
X137633619Y-85572047D01*
X137752666Y-85453000D01*
X137871714Y-85393476D01*
X138109809Y-85393476D01*
X138228857Y-85453000D01*
X138347904Y-85572047D01*
X138407428Y-85810142D01*
X138407428Y-86226809D01*
X138347904Y-86464904D01*
X138228857Y-86583952D01*
X138109809Y-86643476D01*
X137871714Y-86643476D01*
X139597904Y-86643476D02*
X138883619Y-86643476D01*
X139240761Y-86643476D02*
X139240761Y-85393476D01*
X139121714Y-85572047D01*
X139002666Y-85691095D01*
X138883619Y-85750619D01*
%TO.C,VR1*%
X126789095Y-125344476D02*
X127205761Y-126594476D01*
X127622428Y-125344476D01*
X128753380Y-126594476D02*
X128336714Y-125999238D01*
X128039095Y-126594476D02*
X128039095Y-125344476D01*
X128515285Y-125344476D01*
X128634333Y-125404000D01*
X128693857Y-125463523D01*
X128753380Y-125582571D01*
X128753380Y-125761142D01*
X128693857Y-125880190D01*
X128634333Y-125939714D01*
X128515285Y-125999238D01*
X128039095Y-125999238D01*
X129943857Y-126594476D02*
X129229571Y-126594476D01*
X129586714Y-126594476D02*
X129586714Y-125344476D01*
X129467666Y-125523047D01*
X129348619Y-125642095D01*
X129229571Y-125701619D01*
%TO.C,D7*%
X148585380Y-72673476D02*
X148585380Y-71423476D01*
X148883000Y-71423476D01*
X149061571Y-71483000D01*
X149180619Y-71602047D01*
X149240142Y-71721095D01*
X149299666Y-71959190D01*
X149299666Y-72137761D01*
X149240142Y-72375857D01*
X149180619Y-72494904D01*
X149061571Y-72613952D01*
X148883000Y-72673476D01*
X148585380Y-72673476D01*
X149716333Y-71423476D02*
X150549666Y-71423476D01*
X150013952Y-72673476D01*
X142830619Y-72673476D02*
X142830619Y-71423476D01*
X143544904Y-72673476D02*
X143009190Y-71959190D01*
X143544904Y-71423476D02*
X142830619Y-72137761D01*
%TO.C,VR1*%
X126789095Y-96134476D02*
X127205761Y-97384476D01*
X127622428Y-96134476D01*
X128753380Y-97384476D02*
X128336714Y-96789238D01*
X128039095Y-97384476D02*
X128039095Y-96134476D01*
X128515285Y-96134476D01*
X128634333Y-96194000D01*
X128693857Y-96253523D01*
X128753380Y-96372571D01*
X128753380Y-96551142D01*
X128693857Y-96670190D01*
X128634333Y-96729714D01*
X128515285Y-96789238D01*
X128039095Y-96789238D01*
X129943857Y-97384476D02*
X129229571Y-97384476D01*
X129586714Y-97384476D02*
X129586714Y-96134476D01*
X129467666Y-96313047D01*
X129348619Y-96432095D01*
X129229571Y-96491619D01*
%TO.C,R1*%
X140675476Y-71300333D02*
X140080238Y-71717000D01*
X140675476Y-72014619D02*
X139425476Y-72014619D01*
X139425476Y-71538428D01*
X139485000Y-71419380D01*
X139544523Y-71359857D01*
X139663571Y-71300333D01*
X139842142Y-71300333D01*
X139961190Y-71359857D01*
X140020714Y-71419380D01*
X140080238Y-71538428D01*
X140080238Y-72014619D01*
X140675476Y-70109857D02*
X140675476Y-70824142D01*
X140675476Y-70467000D02*
X139425476Y-70467000D01*
X139604047Y-70586047D01*
X139723095Y-70705095D01*
X139782619Y-70824142D01*
%TO.C,J1*%
X124947476Y-78874666D02*
X125840333Y-78874666D01*
X126018904Y-78934190D01*
X126137952Y-79053238D01*
X126197476Y-79231809D01*
X126197476Y-79350857D01*
X126197476Y-77624666D02*
X126197476Y-78338952D01*
X126197476Y-77981809D02*
X124947476Y-77981809D01*
X125126047Y-78100857D01*
X125245095Y-78219904D01*
X125304619Y-78338952D01*
X124947476Y-137294666D02*
X125840333Y-137294666D01*
X126018904Y-137354190D01*
X126137952Y-137473238D01*
X126197476Y-137651809D01*
X126197476Y-137770857D01*
X126197476Y-136044666D02*
X126197476Y-136758952D01*
X126197476Y-136401809D02*
X124947476Y-136401809D01*
X125126047Y-136520857D01*
X125245095Y-136639904D01*
X125304619Y-136758952D01*
%TO.C,D5*%
X148077380Y-122711476D02*
X148077380Y-121461476D01*
X148375000Y-121461476D01*
X148553571Y-121521000D01*
X148672619Y-121640047D01*
X148732142Y-121759095D01*
X148791666Y-121997190D01*
X148791666Y-122175761D01*
X148732142Y-122413857D01*
X148672619Y-122532904D01*
X148553571Y-122651952D01*
X148375000Y-122711476D01*
X148077380Y-122711476D01*
X149922619Y-121461476D02*
X149327380Y-121461476D01*
X149267857Y-122056714D01*
X149327380Y-121997190D01*
X149446428Y-121937666D01*
X149744047Y-121937666D01*
X149863095Y-121997190D01*
X149922619Y-122056714D01*
X149982142Y-122175761D01*
X149982142Y-122473380D01*
X149922619Y-122592428D01*
X149863095Y-122651952D01*
X149744047Y-122711476D01*
X149446428Y-122711476D01*
X149327380Y-122651952D01*
X149267857Y-122592428D01*
X144862619Y-120425476D02*
X144862619Y-119175476D01*
X145576904Y-120425476D02*
X145041190Y-119711190D01*
X145576904Y-119175476D02*
X144862619Y-119889761D01*
%TO.C,D3*%
X163063380Y-130585476D02*
X163063380Y-129335476D01*
X163361000Y-129335476D01*
X163539571Y-129395000D01*
X163658619Y-129514047D01*
X163718142Y-129633095D01*
X163777666Y-129871190D01*
X163777666Y-130049761D01*
X163718142Y-130287857D01*
X163658619Y-130406904D01*
X163539571Y-130525952D01*
X163361000Y-130585476D01*
X163063380Y-130585476D01*
X164194333Y-129335476D02*
X164968142Y-129335476D01*
X164551476Y-129811666D01*
X164730047Y-129811666D01*
X164849095Y-129871190D01*
X164908619Y-129930714D01*
X164968142Y-130049761D01*
X164968142Y-130347380D01*
X164908619Y-130466428D01*
X164849095Y-130525952D01*
X164730047Y-130585476D01*
X164372904Y-130585476D01*
X164253857Y-130525952D01*
X164194333Y-130466428D01*
X159848619Y-128299476D02*
X159848619Y-127049476D01*
X160562904Y-128299476D02*
X160027190Y-127585190D01*
X160562904Y-127049476D02*
X159848619Y-127763761D01*
%TO.C,R2*%
X138631666Y-93501476D02*
X138215000Y-92906238D01*
X137917380Y-93501476D02*
X137917380Y-92251476D01*
X138393571Y-92251476D01*
X138512619Y-92311000D01*
X138572142Y-92370523D01*
X138631666Y-92489571D01*
X138631666Y-92668142D01*
X138572142Y-92787190D01*
X138512619Y-92846714D01*
X138393571Y-92906238D01*
X137917380Y-92906238D01*
X139107857Y-92370523D02*
X139167380Y-92311000D01*
X139286428Y-92251476D01*
X139584047Y-92251476D01*
X139703095Y-92311000D01*
X139762619Y-92370523D01*
X139822142Y-92489571D01*
X139822142Y-92608619D01*
X139762619Y-92787190D01*
X139048333Y-93501476D01*
X139822142Y-93501476D01*
X138631666Y-122711476D02*
X138215000Y-122116238D01*
X137917380Y-122711476D02*
X137917380Y-121461476D01*
X138393571Y-121461476D01*
X138512619Y-121521000D01*
X138572142Y-121580523D01*
X138631666Y-121699571D01*
X138631666Y-121878142D01*
X138572142Y-121997190D01*
X138512619Y-122056714D01*
X138393571Y-122116238D01*
X137917380Y-122116238D01*
X139107857Y-121580523D02*
X139167380Y-121521000D01*
X139286428Y-121461476D01*
X139584047Y-121461476D01*
X139703095Y-121521000D01*
X139762619Y-121580523D01*
X139822142Y-121699571D01*
X139822142Y-121818619D01*
X139762619Y-121997190D01*
X139048333Y-122711476D01*
X139822142Y-122711476D01*
%TO.C,D1*%
X135123380Y-97907476D02*
X135123380Y-96657476D01*
X135421000Y-96657476D01*
X135599571Y-96717000D01*
X135718619Y-96836047D01*
X135778142Y-96955095D01*
X135837666Y-97193190D01*
X135837666Y-97371761D01*
X135778142Y-97609857D01*
X135718619Y-97728904D01*
X135599571Y-97847952D01*
X135421000Y-97907476D01*
X135123380Y-97907476D01*
X137028142Y-97907476D02*
X136313857Y-97907476D01*
X136671000Y-97907476D02*
X136671000Y-96657476D01*
X136551952Y-96836047D01*
X136432904Y-96955095D01*
X136313857Y-97014619D01*
X135123380Y-68697476D02*
X135123380Y-67447476D01*
X135421000Y-67447476D01*
X135599571Y-67507000D01*
X135718619Y-67626047D01*
X135778142Y-67745095D01*
X135837666Y-67983190D01*
X135837666Y-68161761D01*
X135778142Y-68399857D01*
X135718619Y-68518904D01*
X135599571Y-68637952D01*
X135421000Y-68697476D01*
X135123380Y-68697476D01*
X137028142Y-68697476D02*
X136313857Y-68697476D01*
X136671000Y-68697476D02*
X136671000Y-67447476D01*
X136551952Y-67626047D01*
X136432904Y-67745095D01*
X136313857Y-67804619D01*
%TO.C,D8*%
X135118380Y-74539476D02*
X135118380Y-73289476D01*
X135416000Y-73289476D01*
X135594571Y-73349000D01*
X135713619Y-73468047D01*
X135773142Y-73587095D01*
X135832666Y-73825190D01*
X135832666Y-74003761D01*
X135773142Y-74241857D01*
X135713619Y-74360904D01*
X135594571Y-74479952D01*
X135416000Y-74539476D01*
X135118380Y-74539476D01*
X136546952Y-73825190D02*
X136427904Y-73765666D01*
X136368380Y-73706142D01*
X136308857Y-73587095D01*
X136308857Y-73527571D01*
X136368380Y-73408523D01*
X136427904Y-73349000D01*
X136546952Y-73289476D01*
X136785047Y-73289476D01*
X136904095Y-73349000D01*
X136963619Y-73408523D01*
X137023142Y-73527571D01*
X137023142Y-73587095D01*
X136963619Y-73706142D01*
X136904095Y-73765666D01*
X136785047Y-73825190D01*
X136546952Y-73825190D01*
X136427904Y-73884714D01*
X136368380Y-73944238D01*
X136308857Y-74063285D01*
X136308857Y-74301380D01*
X136368380Y-74420428D01*
X136427904Y-74479952D01*
X136546952Y-74539476D01*
X136785047Y-74539476D01*
X136904095Y-74479952D01*
X136963619Y-74420428D01*
X137023142Y-74301380D01*
X137023142Y-74063285D01*
X136963619Y-73944238D01*
X136904095Y-73884714D01*
X136785047Y-73825190D01*
%TO.C,D7*%
X148585380Y-101883476D02*
X148585380Y-100633476D01*
X148883000Y-100633476D01*
X149061571Y-100693000D01*
X149180619Y-100812047D01*
X149240142Y-100931095D01*
X149299666Y-101169190D01*
X149299666Y-101347761D01*
X149240142Y-101585857D01*
X149180619Y-101704904D01*
X149061571Y-101823952D01*
X148883000Y-101883476D01*
X148585380Y-101883476D01*
X149716333Y-100633476D02*
X150549666Y-100633476D01*
X150013952Y-101883476D01*
X142830619Y-101883476D02*
X142830619Y-100633476D01*
X143544904Y-101883476D02*
X143009190Y-101169190D01*
X143544904Y-100633476D02*
X142830619Y-101347761D01*
%TO.C,R2*%
X138631666Y-64291476D02*
X138215000Y-63696238D01*
X137917380Y-64291476D02*
X137917380Y-63041476D01*
X138393571Y-63041476D01*
X138512619Y-63101000D01*
X138572142Y-63160523D01*
X138631666Y-63279571D01*
X138631666Y-63458142D01*
X138572142Y-63577190D01*
X138512619Y-63636714D01*
X138393571Y-63696238D01*
X137917380Y-63696238D01*
X139107857Y-63160523D02*
X139167380Y-63101000D01*
X139286428Y-63041476D01*
X139584047Y-63041476D01*
X139703095Y-63101000D01*
X139762619Y-63160523D01*
X139822142Y-63279571D01*
X139822142Y-63398619D01*
X139762619Y-63577190D01*
X139048333Y-64291476D01*
X139822142Y-64291476D01*
%TO.C,D1*%
X135123380Y-127117476D02*
X135123380Y-125867476D01*
X135421000Y-125867476D01*
X135599571Y-125927000D01*
X135718619Y-126046047D01*
X135778142Y-126165095D01*
X135837666Y-126403190D01*
X135837666Y-126581761D01*
X135778142Y-126819857D01*
X135718619Y-126938904D01*
X135599571Y-127057952D01*
X135421000Y-127117476D01*
X135123380Y-127117476D01*
X137028142Y-127117476D02*
X136313857Y-127117476D01*
X136671000Y-127117476D02*
X136671000Y-125867476D01*
X136551952Y-126046047D01*
X136432904Y-126165095D01*
X136313857Y-126224619D01*
%TO.C,D4*%
X148077380Y-59719476D02*
X148077380Y-58469476D01*
X148375000Y-58469476D01*
X148553571Y-58529000D01*
X148672619Y-58648047D01*
X148732142Y-58767095D01*
X148791666Y-59005190D01*
X148791666Y-59183761D01*
X148732142Y-59421857D01*
X148672619Y-59540904D01*
X148553571Y-59659952D01*
X148375000Y-59719476D01*
X148077380Y-59719476D01*
X149863095Y-58886142D02*
X149863095Y-59719476D01*
X149565476Y-58409952D02*
X149267857Y-59302809D01*
X150041666Y-59302809D01*
X152736619Y-57433476D02*
X152736619Y-56183476D01*
X153450904Y-57433476D02*
X152915190Y-56719190D01*
X153450904Y-56183476D02*
X152736619Y-56897761D01*
%TO.C,RV1*%
X131237952Y-118393476D02*
X130821285Y-117798238D01*
X130523666Y-118393476D02*
X130523666Y-117143476D01*
X130999857Y-117143476D01*
X131118904Y-117203000D01*
X131178428Y-117262523D01*
X131237952Y-117381571D01*
X131237952Y-117560142D01*
X131178428Y-117679190D01*
X131118904Y-117738714D01*
X130999857Y-117798238D01*
X130523666Y-117798238D01*
X131595095Y-117143476D02*
X132011761Y-118393476D01*
X132428428Y-117143476D01*
X133499857Y-118393476D02*
X132785571Y-118393476D01*
X133142714Y-118393476D02*
X133142714Y-117143476D01*
X133023666Y-117322047D01*
X132904619Y-117441095D01*
X132785571Y-117500619D01*
%TO.C,D6*%
X148077380Y-97565476D02*
X148077380Y-96315476D01*
X148375000Y-96315476D01*
X148553571Y-96375000D01*
X148672619Y-96494047D01*
X148732142Y-96613095D01*
X148791666Y-96851190D01*
X148791666Y-97029761D01*
X148732142Y-97267857D01*
X148672619Y-97386904D01*
X148553571Y-97505952D01*
X148375000Y-97565476D01*
X148077380Y-97565476D01*
X149863095Y-96315476D02*
X149625000Y-96315476D01*
X149505952Y-96375000D01*
X149446428Y-96434523D01*
X149327380Y-96613095D01*
X149267857Y-96851190D01*
X149267857Y-97327380D01*
X149327380Y-97446428D01*
X149386904Y-97505952D01*
X149505952Y-97565476D01*
X149744047Y-97565476D01*
X149863095Y-97505952D01*
X149922619Y-97446428D01*
X149982142Y-97327380D01*
X149982142Y-97029761D01*
X149922619Y-96910714D01*
X149863095Y-96851190D01*
X149744047Y-96791666D01*
X149505952Y-96791666D01*
X149386904Y-96851190D01*
X149327380Y-96910714D01*
X149267857Y-97029761D01*
X154514619Y-97565476D02*
X154514619Y-96315476D01*
X155228904Y-97565476D02*
X154693190Y-96851190D01*
X155228904Y-96315476D02*
X154514619Y-97029761D01*
%TO.C,D5*%
X148077380Y-93501476D02*
X148077380Y-92251476D01*
X148375000Y-92251476D01*
X148553571Y-92311000D01*
X148672619Y-92430047D01*
X148732142Y-92549095D01*
X148791666Y-92787190D01*
X148791666Y-92965761D01*
X148732142Y-93203857D01*
X148672619Y-93322904D01*
X148553571Y-93441952D01*
X148375000Y-93501476D01*
X148077380Y-93501476D01*
X149922619Y-92251476D02*
X149327380Y-92251476D01*
X149267857Y-92846714D01*
X149327380Y-92787190D01*
X149446428Y-92727666D01*
X149744047Y-92727666D01*
X149863095Y-92787190D01*
X149922619Y-92846714D01*
X149982142Y-92965761D01*
X149982142Y-93263380D01*
X149922619Y-93382428D01*
X149863095Y-93441952D01*
X149744047Y-93501476D01*
X149446428Y-93501476D01*
X149327380Y-93441952D01*
X149267857Y-93382428D01*
X144862619Y-91215476D02*
X144862619Y-89965476D01*
X145576904Y-91215476D02*
X145041190Y-90501190D01*
X145576904Y-89965476D02*
X144862619Y-90679761D01*
%TO.C,RLY1*%
X155678000Y-109899000D02*
X157053000Y-109899000D01*
X155103000Y-87974000D02*
X155103000Y-87149000D01*
X171853000Y-87149000D02*
X171853000Y-87999000D01*
X155103000Y-109299000D02*
X155678000Y-109899000D01*
X155103000Y-109074000D02*
X155103000Y-109299000D01*
X155103000Y-87149000D02*
X155728000Y-87149000D01*
X171153000Y-87149000D02*
X171853000Y-87149000D01*
X171853000Y-109899000D02*
X171078000Y-109899000D01*
X171853000Y-108774000D02*
X171853000Y-109899000D01*
%TO.C,R3*%
X145840000Y-137798000D02*
X145840000Y-135958000D01*
X142000000Y-137798000D02*
X145840000Y-137798000D01*
X141050000Y-136878000D02*
X142000000Y-136878000D01*
X142000000Y-135958000D02*
X142000000Y-137798000D01*
X145840000Y-135958000D02*
X142000000Y-135958000D01*
X146790000Y-136878000D02*
X145840000Y-136878000D01*
%TO.C,D8*%
X137713335Y-105065392D02*
G75*
G03*
X134481000Y-104908484I-1672335J-1078608D01*
G01*
X134481000Y-107379516D02*
G75*
G03*
X137713335Y-107222608I1560000J1235516D01*
G01*
X137082130Y-105064163D02*
G75*
G03*
X135000039Y-105064000I-1041130J-1079837D01*
G01*
X135000039Y-107224000D02*
G75*
G03*
X137082130Y-107223837I1040961J1080000D01*
G01*
X134481000Y-104908000D02*
X134481000Y-105064000D01*
X134481000Y-107224000D02*
X134481000Y-107380000D01*
%TO.C,VR1*%
X130776000Y-72559000D02*
X130476000Y-72559000D01*
X130776000Y-72559000D02*
X130926000Y-72259000D01*
X126076000Y-72559000D02*
X125926000Y-72259000D01*
X126376000Y-72559000D02*
X126076000Y-72559000D01*
X130376000Y-69409000D02*
G75*
G03*
X126526000Y-69359000I-1950000J-1900000D01*
G01*
%TO.C,Q1*%
X134466000Y-61274000D02*
X134466000Y-57784000D01*
X142706000Y-57784000D02*
X134466000Y-57784000D01*
X142706000Y-61274000D02*
X134466000Y-61274000D01*
X140186000Y-61274000D02*
X140186000Y-60204000D01*
X136985000Y-58614000D02*
X136985000Y-57784000D01*
X140186000Y-58104000D02*
X140186000Y-57784000D01*
X142706000Y-61274000D02*
X142706000Y-57784000D01*
X136985000Y-61274000D02*
X136985000Y-59694000D01*
%TO.C,RV1*%
X124049000Y-67595000D02*
X124049000Y-57825000D01*
X124049000Y-57825000D02*
X133819000Y-57825000D01*
X124049000Y-67595000D02*
X133819000Y-67595000D01*
X133819000Y-67595000D02*
X133819000Y-57825000D01*
%TO.C,D4*%
X151720000Y-86894000D02*
X146280000Y-86894000D01*
X150820000Y-89834000D02*
X150820000Y-86894000D01*
X151720000Y-87024000D02*
X151720000Y-86894000D01*
X151720000Y-89704000D02*
X151720000Y-89834000D01*
X151720000Y-89834000D02*
X146280000Y-89834000D01*
X150940000Y-89834000D02*
X150940000Y-86894000D01*
X146280000Y-89834000D02*
X146280000Y-89704000D01*
X146280000Y-86894000D02*
X146280000Y-87024000D01*
X150700000Y-89834000D02*
X150700000Y-86894000D01*
%TO.C,R1*%
X140110000Y-132382000D02*
X140110000Y-131432000D01*
X139190000Y-127592000D02*
X139190000Y-131432000D01*
X139190000Y-131432000D02*
X141030000Y-131432000D01*
X141030000Y-131432000D02*
X141030000Y-127592000D01*
X140110000Y-126642000D02*
X140110000Y-127592000D01*
X141030000Y-127592000D02*
X139190000Y-127592000D01*
%TO.C,Q1*%
X142706000Y-119694000D02*
X142706000Y-116204000D01*
X134466000Y-119694000D02*
X134466000Y-116204000D01*
X136985000Y-119694000D02*
X136985000Y-118114000D01*
X140186000Y-119694000D02*
X140186000Y-118624000D01*
X136985000Y-117034000D02*
X136985000Y-116204000D01*
X140186000Y-116524000D02*
X140186000Y-116204000D01*
X142706000Y-116204000D02*
X134466000Y-116204000D01*
X142706000Y-119694000D02*
X134466000Y-119694000D01*
%TO.C,RLY1*%
X155678000Y-80689000D02*
X157053000Y-80689000D01*
X155103000Y-79864000D02*
X155103000Y-80089000D01*
X171853000Y-79564000D02*
X171853000Y-80689000D01*
X171853000Y-80689000D02*
X171078000Y-80689000D01*
X155103000Y-57939000D02*
X155728000Y-57939000D01*
X155103000Y-80089000D02*
X155678000Y-80689000D01*
X171153000Y-57939000D02*
X171853000Y-57939000D01*
X171853000Y-57939000D02*
X171853000Y-58789000D01*
X155103000Y-58764000D02*
X155103000Y-57939000D01*
%TO.C,R3*%
X142000000Y-106748000D02*
X142000000Y-108588000D01*
X145840000Y-106748000D02*
X142000000Y-106748000D01*
X145840000Y-108588000D02*
X145840000Y-106748000D01*
X141050000Y-107668000D02*
X142000000Y-107668000D01*
X146790000Y-107668000D02*
X145840000Y-107668000D01*
X142000000Y-108588000D02*
X145840000Y-108588000D01*
%TO.C,J1*%
X124830000Y-113022000D02*
X124830000Y-112522000D01*
X124830000Y-113022000D02*
X125280000Y-113022000D01*
X132530000Y-102822000D02*
X132030000Y-102822000D01*
X132530000Y-113022000D02*
X132530000Y-112522000D01*
X124830000Y-102822000D02*
X124830000Y-103322000D01*
X132530000Y-102822000D02*
X132530000Y-103322000D01*
X132530000Y-113022000D02*
X132030000Y-113022000D01*
X124830000Y-102822000D02*
X125280000Y-102822000D01*
%TO.C,D3*%
X166706000Y-70130000D02*
X166706000Y-70260000D01*
X161266000Y-72940000D02*
X161266000Y-73070000D01*
X161266000Y-73070000D02*
X166706000Y-73070000D01*
X162166000Y-70130000D02*
X162166000Y-73070000D01*
X161266000Y-70260000D02*
X161266000Y-70130000D01*
X162046000Y-70130000D02*
X162046000Y-73070000D01*
X161266000Y-70130000D02*
X166706000Y-70130000D01*
X162286000Y-70130000D02*
X162286000Y-73070000D01*
X166706000Y-73070000D02*
X166706000Y-72940000D01*
%TO.C,RV1*%
X124049000Y-87035000D02*
X133819000Y-87035000D01*
X124049000Y-96805000D02*
X133819000Y-96805000D01*
X133819000Y-96805000D02*
X133819000Y-87035000D01*
X124049000Y-96805000D02*
X124049000Y-87035000D01*
%TO.C,R1*%
X141030000Y-98382000D02*
X139190000Y-98382000D01*
X140110000Y-103172000D02*
X140110000Y-102222000D01*
X139190000Y-98382000D02*
X139190000Y-102222000D01*
X141030000Y-102222000D02*
X141030000Y-98382000D01*
X139190000Y-102222000D02*
X141030000Y-102222000D01*
X140110000Y-97432000D02*
X140110000Y-98382000D01*
%TO.C,RLY1*%
X171853000Y-139109000D02*
X171078000Y-139109000D01*
X171153000Y-116359000D02*
X171853000Y-116359000D01*
X171853000Y-137984000D02*
X171853000Y-139109000D01*
X155103000Y-138509000D02*
X155678000Y-139109000D01*
X155103000Y-116359000D02*
X155728000Y-116359000D01*
X155103000Y-117184000D02*
X155103000Y-116359000D01*
X155103000Y-138284000D02*
X155103000Y-138509000D01*
X171853000Y-116359000D02*
X171853000Y-117209000D01*
X155678000Y-139109000D02*
X157053000Y-139109000D01*
%TO.C,D4*%
X151720000Y-116104000D02*
X146280000Y-116104000D01*
X150820000Y-119044000D02*
X150820000Y-116104000D01*
X151720000Y-119044000D02*
X146280000Y-119044000D01*
X150700000Y-119044000D02*
X150700000Y-116104000D01*
X151720000Y-118914000D02*
X151720000Y-119044000D01*
X150940000Y-119044000D02*
X150940000Y-116104000D01*
X151720000Y-116234000D02*
X151720000Y-116104000D01*
X146280000Y-116104000D02*
X146280000Y-116234000D01*
X146280000Y-119044000D02*
X146280000Y-118914000D01*
%TO.C,D3*%
X166706000Y-102280000D02*
X166706000Y-102150000D01*
X166706000Y-99340000D02*
X166706000Y-99470000D01*
X161266000Y-102280000D02*
X166706000Y-102280000D01*
X162286000Y-99340000D02*
X162286000Y-102280000D01*
X161266000Y-99340000D02*
X166706000Y-99340000D01*
X162046000Y-99340000D02*
X162046000Y-102280000D01*
X161266000Y-99470000D02*
X161266000Y-99340000D01*
X162166000Y-99340000D02*
X162166000Y-102280000D01*
X161266000Y-102150000D02*
X161266000Y-102280000D01*
%TO.C,D6*%
X146280000Y-127680000D02*
X146280000Y-127550000D01*
X150940000Y-127680000D02*
X150940000Y-124740000D01*
X150820000Y-127680000D02*
X150820000Y-124740000D01*
X151720000Y-127550000D02*
X151720000Y-127680000D01*
X146280000Y-124740000D02*
X146280000Y-124870000D01*
X151720000Y-124870000D02*
X151720000Y-124740000D01*
X151720000Y-124740000D02*
X146280000Y-124740000D01*
X151720000Y-127680000D02*
X146280000Y-127680000D01*
X150700000Y-127680000D02*
X150700000Y-124740000D01*
%TO.C,D8*%
X137713335Y-134275392D02*
G75*
G03*
X134481000Y-134118484I-1672335J-1078608D01*
G01*
X135000039Y-136434000D02*
G75*
G03*
X137082130Y-136433837I1040961J1080000D01*
G01*
X134481000Y-136589516D02*
G75*
G03*
X137713335Y-136432608I1560000J1235516D01*
G01*
X137082130Y-134274163D02*
G75*
G03*
X135000039Y-134274000I-1041130J-1079837D01*
G01*
X134481000Y-136434000D02*
X134481000Y-136590000D01*
X134481000Y-134118000D02*
X134481000Y-134274000D01*
%TO.C,D5*%
X147180000Y-62256000D02*
X147180000Y-65196000D01*
X146280000Y-62256000D02*
X151720000Y-62256000D01*
X147300000Y-62256000D02*
X147300000Y-65196000D01*
X151720000Y-65196000D02*
X151720000Y-65066000D01*
X146280000Y-65066000D02*
X146280000Y-65196000D01*
X146280000Y-62386000D02*
X146280000Y-62256000D01*
X151720000Y-62256000D02*
X151720000Y-62386000D01*
X147060000Y-62256000D02*
X147060000Y-65196000D01*
X146280000Y-65196000D02*
X151720000Y-65196000D01*
%TO.C,D7*%
X146280000Y-129188000D02*
X146280000Y-129058000D01*
X151720000Y-131998000D02*
X151720000Y-131868000D01*
X146280000Y-131998000D02*
X151720000Y-131998000D01*
X146280000Y-131868000D02*
X146280000Y-131998000D01*
X147060000Y-129058000D02*
X147060000Y-131998000D01*
X146280000Y-129058000D02*
X151720000Y-129058000D01*
X147300000Y-129058000D02*
X147300000Y-131998000D01*
X147180000Y-129058000D02*
X147180000Y-131998000D01*
X151720000Y-129058000D02*
X151720000Y-129188000D01*
%TO.C,R3*%
X142000000Y-77538000D02*
X142000000Y-79378000D01*
X142000000Y-79378000D02*
X145840000Y-79378000D01*
X146790000Y-78458000D02*
X145840000Y-78458000D01*
X145840000Y-79378000D02*
X145840000Y-77538000D01*
X145840000Y-77538000D02*
X142000000Y-77538000D01*
X141050000Y-78458000D02*
X142000000Y-78458000D01*
%TO.C,D6*%
X151720000Y-66450000D02*
X151720000Y-66320000D01*
X150940000Y-69260000D02*
X150940000Y-66320000D01*
X150700000Y-69260000D02*
X150700000Y-66320000D01*
X146280000Y-69260000D02*
X146280000Y-69130000D01*
X151720000Y-69260000D02*
X146280000Y-69260000D01*
X151720000Y-66320000D02*
X146280000Y-66320000D01*
X150820000Y-69260000D02*
X150820000Y-66320000D01*
X146280000Y-66320000D02*
X146280000Y-66450000D01*
X151720000Y-69130000D02*
X151720000Y-69260000D01*
%TO.C,Q1*%
X142706000Y-90484000D02*
X142706000Y-86994000D01*
X136985000Y-87824000D02*
X136985000Y-86994000D01*
X142706000Y-90484000D02*
X134466000Y-90484000D01*
X136985000Y-90484000D02*
X136985000Y-88904000D01*
X134466000Y-90484000D02*
X134466000Y-86994000D01*
X140186000Y-90484000D02*
X140186000Y-89414000D01*
X142706000Y-86994000D02*
X134466000Y-86994000D01*
X140186000Y-87314000D02*
X140186000Y-86994000D01*
%TO.C,VR1*%
X130776000Y-130979000D02*
X130926000Y-130679000D01*
X126076000Y-130979000D02*
X125926000Y-130679000D01*
X130776000Y-130979000D02*
X130476000Y-130979000D01*
X126376000Y-130979000D02*
X126076000Y-130979000D01*
X130376000Y-127829000D02*
G75*
G03*
X126526000Y-127779000I-1950000J-1900000D01*
G01*
%TO.C,D7*%
X147180000Y-70638000D02*
X147180000Y-73578000D01*
X146280000Y-73578000D02*
X151720000Y-73578000D01*
X151720000Y-73578000D02*
X151720000Y-73448000D01*
X146280000Y-70638000D02*
X151720000Y-70638000D01*
X151720000Y-70638000D02*
X151720000Y-70768000D01*
X146280000Y-73448000D02*
X146280000Y-73578000D01*
X146280000Y-70768000D02*
X146280000Y-70638000D01*
X147300000Y-70638000D02*
X147300000Y-73578000D01*
X147060000Y-70638000D02*
X147060000Y-73578000D01*
%TO.C,VR1*%
X126376000Y-101769000D02*
X126076000Y-101769000D01*
X126076000Y-101769000D02*
X125926000Y-101469000D01*
X130776000Y-101769000D02*
X130926000Y-101469000D01*
X130776000Y-101769000D02*
X130476000Y-101769000D01*
X130376000Y-98619000D02*
G75*
G03*
X126526000Y-98569000I-1950000J-1900000D01*
G01*
%TO.C,R1*%
X140110000Y-73962000D02*
X140110000Y-73012000D01*
X139190000Y-73012000D02*
X141030000Y-73012000D01*
X141030000Y-69172000D02*
X139190000Y-69172000D01*
X141030000Y-73012000D02*
X141030000Y-69172000D01*
X139190000Y-69172000D02*
X139190000Y-73012000D01*
X140110000Y-68222000D02*
X140110000Y-69172000D01*
%TO.C,J1*%
X132530000Y-73612000D02*
X132530000Y-74112000D01*
X124830000Y-83812000D02*
X124830000Y-83312000D01*
X124830000Y-73612000D02*
X125280000Y-73612000D01*
X132530000Y-83812000D02*
X132530000Y-83312000D01*
X132530000Y-73612000D02*
X132030000Y-73612000D01*
X124830000Y-83812000D02*
X125280000Y-83812000D01*
X132530000Y-83812000D02*
X132030000Y-83812000D01*
X124830000Y-73612000D02*
X124830000Y-74112000D01*
X132530000Y-142232000D02*
X132030000Y-142232000D01*
X132530000Y-132032000D02*
X132030000Y-132032000D01*
X132530000Y-142232000D02*
X132530000Y-141732000D01*
X124830000Y-132032000D02*
X125280000Y-132032000D01*
X132530000Y-132032000D02*
X132530000Y-132532000D01*
X124830000Y-142232000D02*
X125280000Y-142232000D01*
X124830000Y-142232000D02*
X124830000Y-141732000D01*
X124830000Y-132032000D02*
X124830000Y-132532000D01*
%TO.C,D5*%
X146280000Y-120806000D02*
X146280000Y-120676000D01*
X146280000Y-123486000D02*
X146280000Y-123616000D01*
X146280000Y-120676000D02*
X151720000Y-120676000D01*
X151720000Y-120676000D02*
X151720000Y-120806000D01*
X151720000Y-123616000D02*
X151720000Y-123486000D01*
X147300000Y-120676000D02*
X147300000Y-123616000D01*
X147060000Y-120676000D02*
X147060000Y-123616000D01*
X146280000Y-123616000D02*
X151720000Y-123616000D01*
X147180000Y-120676000D02*
X147180000Y-123616000D01*
%TO.C,D3*%
X162286000Y-128550000D02*
X162286000Y-131490000D01*
X162166000Y-128550000D02*
X162166000Y-131490000D01*
X161266000Y-131490000D02*
X166706000Y-131490000D01*
X161266000Y-128550000D02*
X166706000Y-128550000D01*
X166706000Y-128550000D02*
X166706000Y-128680000D01*
X162046000Y-128550000D02*
X162046000Y-131490000D01*
X161266000Y-128680000D02*
X161266000Y-128550000D01*
X161266000Y-131360000D02*
X161266000Y-131490000D01*
X166706000Y-131490000D02*
X166706000Y-131360000D01*
%TO.C,R2*%
X135970000Y-92936000D02*
X136920000Y-92936000D01*
X140760000Y-92016000D02*
X136920000Y-92016000D01*
X136920000Y-93856000D02*
X140760000Y-93856000D01*
X136920000Y-92016000D02*
X136920000Y-93856000D01*
X141710000Y-92936000D02*
X140760000Y-92936000D01*
X140760000Y-93856000D02*
X140760000Y-92016000D01*
X136920000Y-121226000D02*
X136920000Y-123066000D01*
X135970000Y-122146000D02*
X136920000Y-122146000D01*
X140760000Y-121226000D02*
X136920000Y-121226000D01*
X141710000Y-122146000D02*
X140760000Y-122146000D01*
X140760000Y-123066000D02*
X140760000Y-121226000D01*
X136920000Y-123066000D02*
X140760000Y-123066000D01*
%TO.C,D1*%
X134486000Y-101537516D02*
G75*
G03*
X137718335Y-101380608I1560000J1235516D01*
G01*
X137718335Y-99223392D02*
G75*
G03*
X134486000Y-99066484I-1672335J-1078608D01*
G01*
X135005039Y-101382000D02*
G75*
G03*
X137087130Y-101381837I1040961J1080000D01*
G01*
X137087130Y-99222163D02*
G75*
G03*
X135005039Y-99222000I-1041130J-1079837D01*
G01*
X134486000Y-101382000D02*
X134486000Y-101538000D01*
X134486000Y-99066000D02*
X134486000Y-99222000D01*
X137718335Y-70013392D02*
G75*
G03*
X134486000Y-69856484I-1672335J-1078608D01*
G01*
X135005039Y-72172000D02*
G75*
G03*
X137087130Y-72171837I1040961J1080000D01*
G01*
X134486000Y-72327516D02*
G75*
G03*
X137718335Y-72170608I1560000J1235516D01*
G01*
X137087130Y-70012163D02*
G75*
G03*
X135005039Y-70012000I-1041130J-1079837D01*
G01*
X134486000Y-69856000D02*
X134486000Y-70012000D01*
X134486000Y-72172000D02*
X134486000Y-72328000D01*
%TO.C,D8*%
X137713335Y-75855392D02*
G75*
G03*
X134481000Y-75698484I-1672335J-1078608D01*
G01*
X137082130Y-75854163D02*
G75*
G03*
X135000039Y-75854000I-1041130J-1079837D01*
G01*
X134481000Y-78169516D02*
G75*
G03*
X137713335Y-78012608I1560000J1235516D01*
G01*
X135000039Y-78014000D02*
G75*
G03*
X137082130Y-78013837I1040961J1080000D01*
G01*
X134481000Y-75698000D02*
X134481000Y-75854000D01*
X134481000Y-78014000D02*
X134481000Y-78170000D01*
%TO.C,D7*%
X147060000Y-99848000D02*
X147060000Y-102788000D01*
X151720000Y-102788000D02*
X151720000Y-102658000D01*
X146280000Y-99848000D02*
X151720000Y-99848000D01*
X147180000Y-99848000D02*
X147180000Y-102788000D01*
X147300000Y-99848000D02*
X147300000Y-102788000D01*
X146280000Y-102788000D02*
X151720000Y-102788000D01*
X151720000Y-99848000D02*
X151720000Y-99978000D01*
X146280000Y-102658000D02*
X146280000Y-102788000D01*
X146280000Y-99978000D02*
X146280000Y-99848000D01*
%TO.C,R2*%
X140760000Y-62806000D02*
X136920000Y-62806000D01*
X141710000Y-63726000D02*
X140760000Y-63726000D01*
X135970000Y-63726000D02*
X136920000Y-63726000D01*
X136920000Y-62806000D02*
X136920000Y-64646000D01*
X140760000Y-64646000D02*
X140760000Y-62806000D01*
X136920000Y-64646000D02*
X140760000Y-64646000D01*
%TO.C,D1*%
X135005039Y-130592000D02*
G75*
G03*
X137087130Y-130591837I1040961J1080000D01*
G01*
X137087130Y-128432163D02*
G75*
G03*
X135005039Y-128432000I-1041130J-1079837D01*
G01*
X134486000Y-130747516D02*
G75*
G03*
X137718335Y-130590608I1560000J1235516D01*
G01*
X137718335Y-128433392D02*
G75*
G03*
X134486000Y-128276484I-1672335J-1078608D01*
G01*
X134486000Y-130592000D02*
X134486000Y-130748000D01*
X134486000Y-128276000D02*
X134486000Y-128432000D01*
%TO.C,D4*%
X151720000Y-57814000D02*
X151720000Y-57684000D01*
X151720000Y-57684000D02*
X146280000Y-57684000D01*
X146280000Y-60624000D02*
X146280000Y-60494000D01*
X151720000Y-60624000D02*
X146280000Y-60624000D01*
X150940000Y-60624000D02*
X150940000Y-57684000D01*
X150700000Y-60624000D02*
X150700000Y-57684000D01*
X151720000Y-60494000D02*
X151720000Y-60624000D01*
X146280000Y-57684000D02*
X146280000Y-57814000D01*
X150820000Y-60624000D02*
X150820000Y-57684000D01*
%TO.C,RV1*%
X124049000Y-126015000D02*
X133819000Y-126015000D01*
X124049000Y-126015000D02*
X124049000Y-116245000D01*
X124049000Y-116245000D02*
X133819000Y-116245000D01*
X133819000Y-126015000D02*
X133819000Y-116245000D01*
%TO.C,D6*%
X150700000Y-98470000D02*
X150700000Y-95530000D01*
X146280000Y-95530000D02*
X146280000Y-95660000D01*
X151720000Y-95530000D02*
X146280000Y-95530000D01*
X151720000Y-98470000D02*
X146280000Y-98470000D01*
X146280000Y-98470000D02*
X146280000Y-98340000D01*
X150820000Y-98470000D02*
X150820000Y-95530000D01*
X150940000Y-98470000D02*
X150940000Y-95530000D01*
X151720000Y-95660000D02*
X151720000Y-95530000D01*
X151720000Y-98340000D02*
X151720000Y-98470000D01*
%TO.C,D5*%
X147060000Y-91466000D02*
X147060000Y-94406000D01*
X146280000Y-91466000D02*
X151720000Y-91466000D01*
X151720000Y-94406000D02*
X151720000Y-94276000D01*
X147300000Y-91466000D02*
X147300000Y-94406000D01*
X146280000Y-94406000D02*
X151720000Y-94406000D01*
X151720000Y-91466000D02*
X151720000Y-91596000D01*
X146280000Y-94276000D02*
X146280000Y-94406000D01*
X146280000Y-91596000D02*
X146280000Y-91466000D01*
X147180000Y-91466000D02*
X147180000Y-94406000D01*
%TD*%
M02*
