M48
; DRILL file {KiCad (6.0.10)} date Sat Jan 21 20:17:06 2023
; FORMAT={-:-/ absolute / metric / decimal}
; #@! TF.CreationDate,2023-01-21T20:17:06+05:30
; #@! TF.GenerationSoftware,Kicad,Pcbnew,(6.0.10)
; #@! TF.FileFunction,Plated,1,2,PTH
FMAT,2
METRIC
; #@! TA.AperFunction,Plated,PTH,ComponentDrill
T1C0.700
; #@! TA.AperFunction,Plated,PTH,ComponentDrill
T2C0.800
; #@! TA.AperFunction,Plated,PTH,ComponentDrill
T3C0.900
; #@! TA.AperFunction,Plated,PTH,ComponentDrill
T4C1.000
; #@! TA.AperFunction,Plated,PTH,ComponentDrill
T5C1.100
; #@! TA.AperFunction,Plated,PTH,ComponentDrill
T6C1.300
%
G90
G05
T1
X135.03Y-63.726
X135.03Y-92.936
X135.03Y-122.146
X140.11Y-67.282
X140.11Y-74.902
X140.11Y-78.458
X140.11Y-96.492
X140.11Y-104.112
X140.11Y-107.668
X140.11Y-125.702
X140.11Y-133.322
X140.11Y-136.878
X142.65Y-63.726
X142.65Y-92.936
X142.65Y-122.146
X147.73Y-78.458
X147.73Y-107.668
X147.73Y-136.878
T2
X126.394Y-65.365
X126.394Y-94.575
X126.394Y-123.785
X128.934Y-60.285
X128.934Y-89.495
X128.934Y-118.705
X131.474Y-65.365
X131.474Y-94.575
X131.474Y-123.785
T3
X125.826Y-70.959
X125.826Y-100.169
X125.826Y-129.379
X128.426Y-70.959
X128.426Y-100.169
X128.426Y-129.379
X131.026Y-70.959
X131.026Y-100.169
X131.026Y-129.379
X134.771Y-76.934
X134.771Y-106.144
X134.771Y-135.354
X134.776Y-71.092
X134.776Y-100.302
X134.776Y-129.512
X137.311Y-76.934
X137.311Y-106.144
X137.311Y-135.354
X137.316Y-71.092
X137.316Y-100.302
X137.316Y-129.512
T4
X136.046Y-59.154
X136.046Y-88.364
X136.046Y-117.574
X138.586Y-59.154
X138.586Y-88.364
X138.586Y-117.574
X141.126Y-59.154
X141.126Y-88.364
X141.126Y-117.574
T5
X145.19Y-59.154
X145.19Y-63.726
X145.19Y-67.79
X145.19Y-72.108
X145.19Y-88.364
X145.19Y-92.936
X145.19Y-97.0
X145.19Y-101.318
X145.19Y-117.574
X145.19Y-122.146
X145.19Y-126.21
X145.19Y-130.528
X152.81Y-59.154
X152.81Y-63.726
X152.81Y-67.79
X152.81Y-72.108
X152.81Y-88.364
X152.81Y-92.936
X152.81Y-97.0
X152.81Y-101.318
X152.81Y-117.574
X152.81Y-122.146
X152.81Y-126.21
X152.81Y-130.528
X160.176Y-71.6
X160.176Y-100.81
X160.176Y-130.02
X167.796Y-71.6
X167.796Y-100.81
X167.796Y-130.02
T6
X128.68Y-76.212
X128.68Y-81.212
X128.68Y-105.422
X128.68Y-110.422
X128.68Y-134.632
X128.68Y-139.632
X157.478Y-63.814
X157.478Y-76.014
X157.478Y-93.024
X157.478Y-105.224
X157.478Y-122.234
X157.478Y-134.434
X163.478Y-78.014
X163.478Y-107.224
X163.478Y-136.434
X169.478Y-63.814
X169.478Y-76.014
X169.478Y-93.024
X169.478Y-105.224
X169.478Y-122.234
X169.478Y-134.434
T0
M30
