M48
; DRILL file {KiCad (6.0.10)} date Sat Jan 21 20:26:21 2023
; FORMAT={-:-/ absolute / metric / decimal}
; #@! TF.CreationDate,2023-01-21T20:26:21+05:30
; #@! TF.GenerationSoftware,Kicad,Pcbnew,(6.0.10)
; #@! TF.FileFunction,Plated,1,2,PTH
FMAT,2
METRIC
; #@! TA.AperFunction,Plated,PTH,ComponentDrill
T1C0.600
; #@! TA.AperFunction,Plated,PTH,ComponentDrill
T2C0.700
; #@! TA.AperFunction,Plated,PTH,ComponentDrill
T3C0.800
; #@! TA.AperFunction,Plated,PTH,ComponentDrill
T4C1.000
; #@! TA.AperFunction,Plated,PTH,ComponentDrill
T5C1.300
%
G90
G05
T1
X123.19Y-88.148
X125.19Y-88.148
T2
X114.3Y-81.036
X114.3Y-88.656
X129.032Y-76.708
X129.032Y-84.328
T3
X104.394Y-65.786
X104.394Y-73.406
X104.648Y-82.55
X104.648Y-87.63
X107.95Y-65.786
X107.95Y-73.406
X109.728Y-85.09
X111.622Y-75.956
X114.122Y-75.956
T4
X117.602Y-75.946
X117.602Y-78.486
X117.602Y-81.026
X117.602Y-83.566
X125.222Y-75.946
X125.222Y-78.486
X125.222Y-81.026
X125.222Y-83.566
X128.778Y-66.802
X128.778Y-69.342
X128.778Y-71.882
T5
X113.11Y-68.072
X118.11Y-68.072
X123.11Y-68.072
T0
M30
