%TF.GenerationSoftware,KiCad,Pcbnew,(6.0.10)*%
%TF.CreationDate,2023-01-21T20:26:19+05:30*%
%TF.ProjectId,555 Astable,35353520-4173-4746-9162-6c652e6b6963,rev?*%
%TF.SameCoordinates,Original*%
%TF.FileFunction,Legend,Top*%
%TF.FilePolarity,Positive*%
%FSLAX46Y46*%
G04 Gerber Fmt 4.6, Leading zero omitted, Abs format (unit mm)*
G04 Created by KiCad (PCBNEW (6.0.10)) date 2023-01-21 20:26:19*
%MOMM*%
%LPD*%
G01*
G04 APERTURE LIST*
%ADD10C,0.150000*%
%ADD11C,0.300000*%
%ADD12C,0.100000*%
%ADD13C,0.120000*%
G04 APERTURE END LIST*
D10*
%TO.C,U1*%
X120650912Y-79218380D02*
X120650912Y-80027904D01*
X120698531Y-80123142D01*
X120746150Y-80170761D01*
X120841388Y-80218380D01*
X121031864Y-80218380D01*
X121127102Y-80170761D01*
X121174721Y-80123142D01*
X121222340Y-80027904D01*
X121222340Y-79218380D01*
X122222340Y-80218380D02*
X121650912Y-80218380D01*
X121936626Y-80218380D02*
X121936626Y-79218380D01*
X121841388Y-79361238D01*
X121746150Y-79456476D01*
X121650912Y-79504095D01*
D11*
%TO.C,C1*%
X112621800Y-79275714D02*
X112550371Y-79347142D01*
X112336085Y-79418571D01*
X112193228Y-79418571D01*
X111978942Y-79347142D01*
X111836085Y-79204285D01*
X111764657Y-79061428D01*
X111693228Y-78775714D01*
X111693228Y-78561428D01*
X111764657Y-78275714D01*
X111836085Y-78132857D01*
X111978942Y-77990000D01*
X112193228Y-77918571D01*
X112336085Y-77918571D01*
X112550371Y-77990000D01*
X112621800Y-78061428D01*
X114050371Y-79418571D02*
X113193228Y-79418571D01*
X113621800Y-79418571D02*
X113621800Y-77918571D01*
X113478942Y-78132857D01*
X113336085Y-78275714D01*
X113193228Y-78347142D01*
%TO.C,J1*%
X114562000Y-63948571D02*
X114562000Y-65020000D01*
X114490571Y-65234285D01*
X114347714Y-65377142D01*
X114133428Y-65448571D01*
X113990571Y-65448571D01*
X116062000Y-65448571D02*
X115204857Y-65448571D01*
X115633428Y-65448571D02*
X115633428Y-63948571D01*
X115490571Y-64162857D01*
X115347714Y-64305714D01*
X115204857Y-64377142D01*
%TO.C,D2*%
X108628571Y-70703142D02*
X107128571Y-70703142D01*
X107128571Y-70346000D01*
X107200000Y-70131714D01*
X107342857Y-69988857D01*
X107485714Y-69917428D01*
X107771428Y-69846000D01*
X107985714Y-69846000D01*
X108271428Y-69917428D01*
X108414285Y-69988857D01*
X108557142Y-70131714D01*
X108628571Y-70346000D01*
X108628571Y-70703142D01*
X107271428Y-69274571D02*
X107200000Y-69203142D01*
X107128571Y-69060285D01*
X107128571Y-68703142D01*
X107200000Y-68560285D01*
X107271428Y-68488857D01*
X107414285Y-68417428D01*
X107557142Y-68417428D01*
X107771428Y-68488857D01*
X108628571Y-69346000D01*
X108628571Y-68417428D01*
X108628571Y-76084857D02*
X107128571Y-76084857D01*
X108628571Y-75227714D02*
X107771428Y-75870571D01*
X107128571Y-75227714D02*
X107985714Y-76084857D01*
D10*
%TO.C,C2*%
X123785333Y-91289142D02*
X123737714Y-91336761D01*
X123594857Y-91384380D01*
X123499619Y-91384380D01*
X123356761Y-91336761D01*
X123261523Y-91241523D01*
X123213904Y-91146285D01*
X123166285Y-90955809D01*
X123166285Y-90812952D01*
X123213904Y-90622476D01*
X123261523Y-90527238D01*
X123356761Y-90432000D01*
X123499619Y-90384380D01*
X123594857Y-90384380D01*
X123737714Y-90432000D01*
X123785333Y-90479619D01*
X124166285Y-90479619D02*
X124213904Y-90432000D01*
X124309142Y-90384380D01*
X124547238Y-90384380D01*
X124642476Y-90432000D01*
X124690095Y-90479619D01*
X124737714Y-90574857D01*
X124737714Y-90670095D01*
X124690095Y-90812952D01*
X124118666Y-91384380D01*
X124737714Y-91384380D01*
D11*
%TO.C,R1*%
X114978571Y-85096000D02*
X114264285Y-85596000D01*
X114978571Y-85953142D02*
X113478571Y-85953142D01*
X113478571Y-85381714D01*
X113550000Y-85238857D01*
X113621428Y-85167428D01*
X113764285Y-85096000D01*
X113978571Y-85096000D01*
X114121428Y-85167428D01*
X114192857Y-85238857D01*
X114264285Y-85381714D01*
X114264285Y-85953142D01*
X114978571Y-83667428D02*
X114978571Y-84524571D01*
X114978571Y-84096000D02*
X113478571Y-84096000D01*
X113692857Y-84238857D01*
X113835714Y-84381714D01*
X113907142Y-84524571D01*
%TO.C,D1*%
X103715428Y-68488857D02*
X105215428Y-68488857D01*
X105215428Y-68846000D01*
X105144000Y-69060285D01*
X105001142Y-69203142D01*
X104858285Y-69274571D01*
X104572571Y-69346000D01*
X104358285Y-69346000D01*
X104072571Y-69274571D01*
X103929714Y-69203142D01*
X103786857Y-69060285D01*
X103715428Y-68846000D01*
X103715428Y-68488857D01*
X103715428Y-70774571D02*
X103715428Y-69917428D01*
X103715428Y-70346000D02*
X105215428Y-70346000D01*
X105001142Y-70203142D01*
X104858285Y-70060285D01*
X104786857Y-69917428D01*
X105072571Y-64400857D02*
X103572571Y-64400857D01*
X105072571Y-63543714D02*
X104215428Y-64186571D01*
X103572571Y-63543714D02*
X104429714Y-64400857D01*
%TO.C,R2*%
X129710571Y-80768000D02*
X128996285Y-81268000D01*
X129710571Y-81625142D02*
X128210571Y-81625142D01*
X128210571Y-81053714D01*
X128282000Y-80910857D01*
X128353428Y-80839428D01*
X128496285Y-80768000D01*
X128710571Y-80768000D01*
X128853428Y-80839428D01*
X128924857Y-80910857D01*
X128996285Y-81053714D01*
X128996285Y-81625142D01*
X128353428Y-80196571D02*
X128282000Y-80125142D01*
X128210571Y-79982285D01*
X128210571Y-79625142D01*
X128282000Y-79482285D01*
X128353428Y-79410857D01*
X128496285Y-79339428D01*
X128639142Y-79339428D01*
X128853428Y-79410857D01*
X129710571Y-80268000D01*
X129710571Y-79339428D01*
%TO.C,RV1*%
X106410142Y-79753571D02*
X105910142Y-79039285D01*
X105553000Y-79753571D02*
X105553000Y-78253571D01*
X106124428Y-78253571D01*
X106267285Y-78325000D01*
X106338714Y-78396428D01*
X106410142Y-78539285D01*
X106410142Y-78753571D01*
X106338714Y-78896428D01*
X106267285Y-78967857D01*
X106124428Y-79039285D01*
X105553000Y-79039285D01*
X106838714Y-78253571D02*
X107338714Y-79753571D01*
X107838714Y-78253571D01*
X109124428Y-79753571D02*
X108267285Y-79753571D01*
X108695857Y-79753571D02*
X108695857Y-78253571D01*
X108553000Y-78467857D01*
X108410142Y-78610714D01*
X108267285Y-78682142D01*
%TO.C,Q1*%
X130496571Y-69707142D02*
X130568000Y-69564285D01*
X130710857Y-69421428D01*
X130925142Y-69207142D01*
X130996571Y-69064285D01*
X130996571Y-68921428D01*
X130639428Y-68992857D02*
X130710857Y-68850000D01*
X130853714Y-68707142D01*
X131139428Y-68635714D01*
X131639428Y-68635714D01*
X131925142Y-68707142D01*
X132068000Y-68850000D01*
X132139428Y-68992857D01*
X132139428Y-69278571D01*
X132068000Y-69421428D01*
X131925142Y-69564285D01*
X131639428Y-69635714D01*
X131139428Y-69635714D01*
X130853714Y-69564285D01*
X130710857Y-69421428D01*
X130639428Y-69278571D01*
X130639428Y-68992857D01*
X130639428Y-71064285D02*
X130639428Y-70207142D01*
X130639428Y-70635714D02*
X132139428Y-70635714D01*
X131925142Y-70492857D01*
X131782285Y-70350000D01*
X131710857Y-70207142D01*
D12*
%TO.C,U1*%
X124822000Y-84466000D02*
X124822000Y-84766000D01*
X118022000Y-84766000D02*
X118322000Y-84766000D01*
X118022000Y-75066000D02*
X118022000Y-74766000D01*
X118022000Y-84466000D02*
X118022000Y-84766000D01*
X118022000Y-74766000D02*
X118322000Y-74766000D01*
X124822000Y-75066000D02*
X124822000Y-74766000D01*
X124822000Y-74766000D02*
X124522000Y-74766000D01*
X124822000Y-84766000D02*
X124522000Y-84766000D01*
D11*
%TO.C,C1*%
X114891800Y-74536000D02*
X110851800Y-74536000D01*
X114891800Y-77376000D02*
X110851800Y-77376000D01*
X110851800Y-77376000D02*
X110851800Y-76751000D01*
X110851800Y-75161000D02*
X110851800Y-74536000D01*
X114891800Y-75161000D02*
X114891800Y-74536000D01*
X114891800Y-77376000D02*
X114891800Y-76751000D01*
%TO.C,J1*%
X110510000Y-64222000D02*
X110510000Y-64722000D01*
X125710000Y-71922000D02*
X125210000Y-71922000D01*
X110510000Y-71922000D02*
X111010000Y-71922000D01*
X110510000Y-64222000D02*
X111010000Y-64222000D01*
X125710000Y-64222000D02*
X125210000Y-64222000D01*
X125710000Y-71922000D02*
X125710000Y-71472000D01*
X125710000Y-64222000D02*
X125710000Y-64722000D01*
X110510000Y-71922000D02*
X110510000Y-71472000D01*
%TO.C,D2*%
X109070000Y-67476000D02*
X106830000Y-67476000D01*
X106830000Y-71716000D02*
X109070000Y-71716000D01*
X106830000Y-71116000D02*
X109070000Y-71116000D01*
X106830000Y-67476000D02*
X106830000Y-71716000D01*
X106830000Y-70996000D02*
X109070000Y-70996000D01*
X109070000Y-71716000D02*
X109070000Y-67476000D01*
X107950000Y-66826000D02*
X107950000Y-67476000D01*
X107950000Y-72366000D02*
X107950000Y-71716000D01*
X106830000Y-70876000D02*
X109070000Y-70876000D01*
D13*
%TO.C,C2*%
X124470000Y-86086000D02*
X124470000Y-87308000D01*
X125071000Y-88988000D02*
X125071000Y-90037000D01*
X125991000Y-87068000D02*
X125991000Y-87308000D01*
X125511000Y-86529000D02*
X125511000Y-87308000D01*
X125111000Y-86278000D02*
X125111000Y-87308000D01*
X124350000Y-86074000D02*
X124350000Y-90222000D01*
X125551000Y-88988000D02*
X125551000Y-89735000D01*
X125591000Y-86596000D02*
X125591000Y-87308000D01*
X124750000Y-88988000D02*
X124750000Y-90153000D01*
X125871000Y-88988000D02*
X125871000Y-89402000D01*
X125951000Y-88988000D02*
X125951000Y-89290000D01*
X126111000Y-87289000D02*
X126111000Y-89007000D01*
X126071000Y-87208000D02*
X126071000Y-89088000D01*
X125191000Y-86318000D02*
X125191000Y-87308000D01*
X125791000Y-88988000D02*
X125791000Y-89499000D01*
X125751000Y-86752000D02*
X125751000Y-87308000D01*
X125871000Y-86894000D02*
X125871000Y-87308000D01*
X124430000Y-86081000D02*
X124430000Y-87308000D01*
X124510000Y-86092000D02*
X124510000Y-87308000D01*
X124550000Y-86098000D02*
X124550000Y-87308000D01*
X124911000Y-86194000D02*
X124911000Y-87308000D01*
X125831000Y-86844000D02*
X125831000Y-87308000D01*
X124951000Y-88988000D02*
X124951000Y-90088000D01*
X125031000Y-88988000D02*
X125031000Y-90055000D01*
X124430000Y-88988000D02*
X124430000Y-90215000D01*
X125431000Y-88988000D02*
X125431000Y-89828000D01*
X125031000Y-86241000D02*
X125031000Y-87308000D01*
X124710000Y-88988000D02*
X124710000Y-90164000D01*
X126151000Y-87380000D02*
X126151000Y-88916000D01*
X124390000Y-88988000D02*
X124390000Y-90219000D01*
X125311000Y-86388000D02*
X125311000Y-87308000D01*
X125231000Y-88988000D02*
X125231000Y-89956000D01*
X125391000Y-86440000D02*
X125391000Y-87308000D01*
X125591000Y-88988000D02*
X125591000Y-89700000D01*
X125151000Y-88988000D02*
X125151000Y-89999000D01*
X125431000Y-86468000D02*
X125431000Y-87308000D01*
X124951000Y-86208000D02*
X124951000Y-87308000D01*
X125911000Y-88988000D02*
X125911000Y-89348000D01*
X124991000Y-86224000D02*
X124991000Y-87308000D01*
X125991000Y-88988000D02*
X125991000Y-89228000D01*
X125711000Y-88988000D02*
X125711000Y-89586000D01*
X124991000Y-88988000D02*
X124991000Y-90072000D01*
X124750000Y-86143000D02*
X124750000Y-87308000D01*
X125751000Y-88988000D02*
X125751000Y-89544000D01*
X125831000Y-88988000D02*
X125831000Y-89452000D01*
X125111000Y-88988000D02*
X125111000Y-90018000D01*
X124230000Y-86068000D02*
X124230000Y-90228000D01*
X124911000Y-88988000D02*
X124911000Y-90102000D01*
X125511000Y-88988000D02*
X125511000Y-89767000D01*
X125151000Y-86297000D02*
X125151000Y-87308000D01*
X124590000Y-88988000D02*
X124590000Y-90190000D01*
X124830000Y-88988000D02*
X124830000Y-90130000D01*
X125351000Y-86413000D02*
X125351000Y-87308000D01*
X125191000Y-88988000D02*
X125191000Y-89978000D01*
X124470000Y-88988000D02*
X124470000Y-90210000D01*
X124830000Y-86166000D02*
X124830000Y-87308000D01*
X125551000Y-86561000D02*
X125551000Y-87308000D01*
X126271000Y-87778000D02*
X126271000Y-88518000D01*
X125311000Y-88988000D02*
X125311000Y-89908000D01*
X124870000Y-86180000D02*
X124870000Y-87308000D01*
X125951000Y-87006000D02*
X125951000Y-87308000D01*
X124670000Y-88988000D02*
X124670000Y-90173000D01*
X124190000Y-86068000D02*
X124190000Y-90228000D01*
X125631000Y-88988000D02*
X125631000Y-89664000D01*
X125791000Y-86797000D02*
X125791000Y-87308000D01*
X124630000Y-86114000D02*
X124630000Y-87308000D01*
X124510000Y-88988000D02*
X124510000Y-90204000D01*
X124870000Y-88988000D02*
X124870000Y-90116000D01*
X125231000Y-86340000D02*
X125231000Y-87308000D01*
X126231000Y-87611000D02*
X126231000Y-88685000D01*
X125271000Y-86363000D02*
X125271000Y-87308000D01*
X124790000Y-86154000D02*
X124790000Y-87308000D01*
X125911000Y-86948000D02*
X125911000Y-87308000D01*
X125351000Y-88988000D02*
X125351000Y-89883000D01*
X126191000Y-87484000D02*
X126191000Y-88812000D01*
X125391000Y-88988000D02*
X125391000Y-89856000D01*
X124630000Y-88988000D02*
X124630000Y-90182000D01*
X124310000Y-86071000D02*
X124310000Y-90225000D01*
X121920199Y-86953000D02*
X122320199Y-86953000D01*
X124590000Y-86106000D02*
X124590000Y-87308000D01*
X125071000Y-86259000D02*
X125071000Y-87308000D01*
X124710000Y-86132000D02*
X124710000Y-87308000D01*
X126031000Y-87135000D02*
X126031000Y-89161000D01*
X125471000Y-88988000D02*
X125471000Y-89798000D01*
X124390000Y-86077000D02*
X124390000Y-87308000D01*
X125671000Y-86670000D02*
X125671000Y-87308000D01*
X125631000Y-86632000D02*
X125631000Y-87308000D01*
X124670000Y-86123000D02*
X124670000Y-87308000D01*
X124270000Y-86069000D02*
X124270000Y-90227000D01*
X125711000Y-86710000D02*
X125711000Y-87308000D01*
X125671000Y-88988000D02*
X125671000Y-89626000D01*
X125271000Y-88988000D02*
X125271000Y-89933000D01*
X124790000Y-88988000D02*
X124790000Y-90142000D01*
X125471000Y-86498000D02*
X125471000Y-87308000D01*
X122120199Y-86753000D02*
X122120199Y-87153000D01*
X124550000Y-88988000D02*
X124550000Y-90198000D01*
X126310000Y-88148000D02*
G75*
G03*
X126310000Y-88148000I-2120000J0D01*
G01*
D11*
%TO.C,R1*%
X113380000Y-86766000D02*
X115220000Y-86766000D01*
X113380000Y-82926000D02*
X113380000Y-86766000D01*
X114300000Y-81976000D02*
X114300000Y-82926000D01*
X115220000Y-82926000D02*
X113380000Y-82926000D01*
X115220000Y-86766000D02*
X115220000Y-82926000D01*
X114300000Y-87716000D02*
X114300000Y-86766000D01*
%TO.C,D1*%
X103274000Y-67476000D02*
X103274000Y-71716000D01*
X105514000Y-71716000D02*
X105514000Y-67476000D01*
X105514000Y-68196000D02*
X103274000Y-68196000D01*
X103274000Y-71716000D02*
X105514000Y-71716000D01*
X105514000Y-68316000D02*
X103274000Y-68316000D01*
X104394000Y-66826000D02*
X104394000Y-67476000D01*
X104394000Y-72366000D02*
X104394000Y-71716000D01*
X105514000Y-67476000D02*
X103274000Y-67476000D01*
X105514000Y-68076000D02*
X103274000Y-68076000D01*
%TO.C,R2*%
X128112000Y-78598000D02*
X128112000Y-82438000D01*
X129032000Y-77648000D02*
X129032000Y-78598000D01*
X128112000Y-82438000D02*
X129952000Y-82438000D01*
X129952000Y-78598000D02*
X128112000Y-78598000D01*
X129032000Y-83388000D02*
X129032000Y-82438000D01*
X129952000Y-82438000D02*
X129952000Y-78598000D01*
%TO.C,RV1*%
X102418000Y-80205000D02*
X102418000Y-89975000D01*
X102418000Y-80205000D02*
X112188000Y-80205000D01*
X112188000Y-80205000D02*
X112188000Y-89975000D01*
X102418000Y-89975000D02*
X112188000Y-89975000D01*
%TO.C,Q1*%
X131178000Y-64242000D02*
X130778000Y-64242000D01*
X131178000Y-74042000D02*
X131178000Y-74442000D01*
X126378000Y-74442000D02*
X126378000Y-74042000D01*
X131178000Y-74442000D02*
X130778000Y-74442000D01*
X126378000Y-74442000D02*
X126778000Y-74442000D01*
X126378000Y-64242000D02*
X126378000Y-64642000D01*
X131178000Y-64242000D02*
X131178000Y-64642000D01*
X126378000Y-64242000D02*
X130778000Y-64242000D01*
X130068000Y-64242000D02*
X130068000Y-74342000D01*
%TD*%
M02*
