%TF.GenerationSoftware,KiCad,Pcbnew,(6.0.10)*%
%TF.CreationDate,2023-01-21T20:26:19+05:30*%
%TF.ProjectId,555 Astable,35353520-4173-4746-9162-6c652e6b6963,rev?*%
%TF.SameCoordinates,Original*%
%TF.FileFunction,Copper,L2,Bot*%
%TF.FilePolarity,Positive*%
%FSLAX46Y46*%
G04 Gerber Fmt 4.6, Leading zero omitted, Abs format (unit mm)*
G04 Created by KiCad (PCBNEW (6.0.10)) date 2023-01-21 20:26:19*
%MOMM*%
%LPD*%
G01*
G04 APERTURE LIST*
%TA.AperFunction,ComponentPad*%
%ADD10R,2.000000X2.000000*%
%TD*%
%TA.AperFunction,ComponentPad*%
%ADD11C,2.203270*%
%TD*%
%TA.AperFunction,ComponentPad*%
%ADD12C,2.200000*%
%TD*%
%TA.AperFunction,ComponentPad*%
%ADD13C,2.200362*%
%TD*%
%TA.AperFunction,ComponentPad*%
%ADD14C,2.160370*%
%TD*%
%TA.AperFunction,ComponentPad*%
%ADD15C,2.165916*%
%TD*%
%TA.AperFunction,ComponentPad*%
%ADD16C,2.163330*%
%TD*%
%TA.AperFunction,ComponentPad*%
%ADD17C,2.169238*%
%TD*%
%TA.AperFunction,ComponentPad*%
%ADD18C,1.800000*%
%TD*%
%TA.AperFunction,ComponentPad*%
%ADD19R,2.500000X2.500000*%
%TD*%
%TA.AperFunction,ComponentPad*%
%ADD20C,2.500000*%
%TD*%
%TA.AperFunction,ComponentPad*%
%ADD21R,1.800000X1.800000*%
%TD*%
%TA.AperFunction,ComponentPad*%
%ADD22R,1.400000X1.400000*%
%TD*%
%TA.AperFunction,ComponentPad*%
%ADD23O,1.600000X1.800000*%
%TD*%
%TA.AperFunction,ComponentPad*%
%ADD24O,1.800000X1.800000*%
%TD*%
%TA.AperFunction,ComponentPad*%
%ADD25C,1.840000*%
%TD*%
%TA.AperFunction,ComponentPad*%
%ADD26C,1.800444*%
%TD*%
%TA.AperFunction,ComponentPad*%
%ADD27C,2.000000*%
%TD*%
%TA.AperFunction,Conductor*%
%ADD28C,1.000000*%
%TD*%
%TA.AperFunction,Conductor*%
%ADD29C,0.750000*%
%TD*%
G04 APERTURE END LIST*
D10*
%TO.P,U1,1,GND*%
%TO.N,GND*%
X125222000Y-83566000D03*
D11*
%TO.P,U1,2,TRIG*%
%TO.N,Net-(C2-Pad1)*%
X125222000Y-81026000D03*
D12*
%TO.P,U1,3,OUT*%
%TO.N,Net-(Q1-Pad1)*%
X125222000Y-78486000D03*
D13*
%TO.P,U1,4,RESET*%
%TO.N,VCC*%
X125222000Y-75946000D03*
D14*
%TO.P,U1,5,CONT*%
%TO.N,Net-(C1-Pad1)*%
X117602000Y-75946000D03*
D15*
%TO.P,U1,6,THRES*%
%TO.N,Net-(C2-Pad1)*%
X117602000Y-78486000D03*
D16*
%TO.P,U1,7,DISCH*%
%TO.N,Net-(D1-Pad1)*%
X117602000Y-81026000D03*
D17*
%TO.P,U1,8,VCC*%
%TO.N,VCC*%
X117602000Y-83566000D03*
%TD*%
D18*
%TO.P,C1,1*%
%TO.N,Net-(C1-Pad1)*%
X114121800Y-75956000D03*
%TO.P,C1,2*%
%TO.N,GND*%
X111621800Y-75956000D03*
%TD*%
D19*
%TO.P,J1,1*%
%TO.N,Net-(Q1-Pad2)*%
X123110000Y-68072000D03*
D20*
%TO.P,J1,2*%
%TO.N,GND*%
X118110000Y-68072000D03*
%TO.P,J1,3*%
%TO.N,VCC*%
X113110000Y-68072000D03*
%TD*%
D21*
%TO.P,D2,1,K*%
%TO.N,Net-(D2-Pad1)*%
X107950000Y-73406000D03*
D18*
%TO.P,D2,2,A*%
%TO.N,Net-(D1-Pad1)*%
X107950000Y-65786000D03*
%TD*%
D22*
%TO.P,C2,1*%
%TO.N,Net-(C2-Pad1)*%
X123090000Y-88248000D03*
D23*
%TO.P,C2,2*%
%TO.N,GND*%
X125190000Y-88148000D03*
%TD*%
D24*
%TO.P,R1,1*%
%TO.N,Net-(D1-Pad1)*%
X114300000Y-81036000D03*
%TO.P,R1,2*%
%TO.N,VCC*%
X114300000Y-88656000D03*
%TD*%
D21*
%TO.P,D1,1,K*%
%TO.N,Net-(D1-Pad1)*%
X104394000Y-65786000D03*
D18*
%TO.P,D1,2,A*%
%TO.N,Net-(D1-Pad2)*%
X104394000Y-73406000D03*
%TD*%
D24*
%TO.P,R2,1*%
%TO.N,GND*%
X129032000Y-84328000D03*
%TO.P,R2,2*%
%TO.N,Net-(Q1-Pad1)*%
X129032000Y-76708000D03*
%TD*%
D18*
%TO.P,RV1,1,1*%
%TO.N,Net-(D2-Pad1)*%
X104648000Y-87630000D03*
D25*
%TO.P,RV1,2,2*%
%TO.N,Net-(C2-Pad1)*%
X109728000Y-85090000D03*
D26*
%TO.P,RV1,3,3*%
%TO.N,Net-(D1-Pad2)*%
X104648000Y-82550000D03*
%TD*%
D10*
%TO.P,Q1,1,G*%
%TO.N,Net-(Q1-Pad1)*%
X128778000Y-66802000D03*
D27*
%TO.P,Q1,2,D*%
%TO.N,Net-(Q1-Pad2)*%
X128778000Y-69342000D03*
%TO.P,Q1,3,S*%
%TO.N,GND*%
X128778000Y-71882000D03*
%TD*%
D28*
%TO.N,GND*%
X110236000Y-75946000D02*
X110246000Y-75956000D01*
X111621800Y-75956000D02*
X110246000Y-75956000D01*
D29*
%TO.N,Net-(D1-Pad1)*%
X119634000Y-81026000D02*
X119634000Y-73914000D01*
D28*
X117602000Y-81026000D02*
X114310000Y-81026000D01*
X114310000Y-81026000D02*
X114300000Y-81036000D01*
D29*
X117602000Y-81026000D02*
X119634000Y-81026000D01*
D28*
X104394000Y-65786000D02*
X107950000Y-65786000D01*
D29*
X110490000Y-65786000D02*
X107950000Y-65786000D01*
X110490000Y-73914000D02*
X110490000Y-65786000D01*
X119634000Y-73914000D02*
X110490000Y-73914000D01*
D28*
%TO.N,Net-(D1-Pad2)*%
X104648000Y-73660000D02*
X104648000Y-82550000D01*
X104394000Y-73406000D02*
X104648000Y-73660000D01*
D29*
%TO.N,Net-(D2-Pad1)*%
X107950000Y-75692000D02*
X107950000Y-73406000D01*
X106600000Y-87630000D02*
X106600000Y-77042000D01*
X104648000Y-87630000D02*
X106600000Y-87630000D01*
X106600000Y-77042000D02*
X107950000Y-75692000D01*
D28*
%TO.N,VCC*%
X121158000Y-72390000D02*
X113190000Y-72390000D01*
X113190000Y-72390000D02*
X113110000Y-72310000D01*
X113110000Y-72310000D02*
X113110000Y-68072000D01*
X125222000Y-75184000D02*
X125222000Y-72390000D01*
X125222000Y-72390000D02*
X121158000Y-72390000D01*
X121158000Y-83566000D02*
X121158000Y-72390000D01*
X117602000Y-83566000D02*
X121158000Y-83566000D01*
X117602000Y-83566000D02*
X115834000Y-83566000D01*
X114300000Y-85100000D02*
X114300000Y-88656000D01*
X115834000Y-83566000D02*
X114300000Y-85100000D01*
%TO.N,Net-(Q1-Pad2)*%
X123110000Y-68072000D02*
X125730000Y-68072000D01*
X125730000Y-68072000D02*
X127000000Y-69342000D01*
X127000000Y-69342000D02*
X128778000Y-69342000D01*
D29*
%TO.N,Net-(Q1-Pad1)*%
X130556000Y-76708000D02*
X129032000Y-76708000D01*
X128778000Y-66802000D02*
X130810000Y-66802000D01*
X130810000Y-76454000D02*
X130556000Y-76708000D01*
D28*
X129032000Y-78486000D02*
X129032000Y-76708000D01*
D29*
X130810000Y-66802000D02*
X130810000Y-76454000D01*
D28*
X125222000Y-78486000D02*
X129032000Y-78486000D01*
%TO.N,Net-(C2-Pad1)*%
X109728000Y-78486000D02*
X117602000Y-78486000D01*
X122936000Y-81534000D02*
X123444000Y-81026000D01*
X123190000Y-88148000D02*
X123190000Y-90678000D01*
D29*
X117612000Y-78496000D02*
X117602000Y-78486000D01*
D28*
X109728000Y-90678000D02*
X109728000Y-85090000D01*
X123190000Y-90678000D02*
X109728000Y-90678000D01*
X123444000Y-81026000D02*
X125222000Y-81026000D01*
X122936000Y-87894000D02*
X122936000Y-81534000D01*
X123190000Y-88148000D02*
X122936000Y-87894000D01*
X109728000Y-85090000D02*
X109728000Y-78486000D01*
%TO.N,Net-(C1-Pad1)*%
X114131800Y-75946000D02*
X114121800Y-75956000D01*
X117602000Y-75946000D02*
X114131800Y-75946000D01*
%TD*%
%TA.AperFunction,Conductor*%
%TO.N,GND*%
G36*
X132304018Y-63510000D02*
G01*
X132318852Y-63512310D01*
X132318855Y-63512310D01*
X132327724Y-63513691D01*
X132336626Y-63512527D01*
X132336750Y-63512511D01*
X132367192Y-63512240D01*
X132374621Y-63513077D01*
X132429264Y-63519234D01*
X132456771Y-63525513D01*
X132533853Y-63552485D01*
X132559274Y-63564727D01*
X132628426Y-63608178D01*
X132650485Y-63625770D01*
X132708230Y-63683515D01*
X132725822Y-63705574D01*
X132769273Y-63774726D01*
X132781515Y-63800147D01*
X132808487Y-63877228D01*
X132814766Y-63904736D01*
X132821018Y-63960226D01*
X132820923Y-63975868D01*
X132821800Y-63975879D01*
X132821690Y-63984851D01*
X132820309Y-63993724D01*
X132821473Y-64002626D01*
X132821473Y-64002628D01*
X132824436Y-64025283D01*
X132825500Y-64041621D01*
X132825500Y-91950633D01*
X132824000Y-91970018D01*
X132820309Y-91993724D01*
X132821473Y-92002626D01*
X132821489Y-92002750D01*
X132821760Y-92033192D01*
X132819430Y-92053870D01*
X132814766Y-92095264D01*
X132808487Y-92122771D01*
X132781515Y-92199853D01*
X132769273Y-92225274D01*
X132725822Y-92294426D01*
X132708230Y-92316485D01*
X132650485Y-92374230D01*
X132628426Y-92391822D01*
X132559274Y-92435273D01*
X132533853Y-92447515D01*
X132456772Y-92474487D01*
X132429264Y-92480766D01*
X132373774Y-92487018D01*
X132358132Y-92486923D01*
X132358121Y-92487800D01*
X132349149Y-92487690D01*
X132340276Y-92486309D01*
X132331374Y-92487473D01*
X132331372Y-92487473D01*
X132320385Y-92488910D01*
X132308714Y-92490436D01*
X132292379Y-92491500D01*
X102383367Y-92491500D01*
X102363982Y-92490000D01*
X102349148Y-92487690D01*
X102349145Y-92487690D01*
X102340276Y-92486309D01*
X102331374Y-92487473D01*
X102331250Y-92487489D01*
X102300808Y-92487760D01*
X102280130Y-92485430D01*
X102238736Y-92480766D01*
X102211229Y-92474487D01*
X102134147Y-92447515D01*
X102108726Y-92435273D01*
X102039574Y-92391822D01*
X102017515Y-92374230D01*
X101959770Y-92316485D01*
X101942178Y-92294426D01*
X101898727Y-92225274D01*
X101886485Y-92199853D01*
X101859513Y-92122772D01*
X101853234Y-92095266D01*
X101847170Y-92041451D01*
X101846888Y-92016640D01*
X101847576Y-92012552D01*
X101847729Y-92000000D01*
X101843773Y-91972376D01*
X101842500Y-91954514D01*
X101842500Y-73369214D01*
X102888806Y-73369214D01*
X102889103Y-73374366D01*
X102889103Y-73374370D01*
X102896456Y-73501886D01*
X102903010Y-73615545D01*
X102904147Y-73620591D01*
X102904148Y-73620597D01*
X102926336Y-73719051D01*
X102957255Y-73856249D01*
X103050084Y-74084861D01*
X103179006Y-74295241D01*
X103340557Y-74481741D01*
X103501985Y-74615761D01*
X103541620Y-74674664D01*
X103547500Y-74712705D01*
X103547500Y-81478787D01*
X103527498Y-81546908D01*
X103512594Y-81565838D01*
X103477723Y-81602328D01*
X103474809Y-81606600D01*
X103474808Y-81606601D01*
X103341577Y-81801910D01*
X103341574Y-81801915D01*
X103338658Y-81806190D01*
X103336482Y-81810879D01*
X103336478Y-81810885D01*
X103246206Y-82005360D01*
X103234756Y-82030028D01*
X103168808Y-82267829D01*
X103142585Y-82513208D01*
X103142882Y-82518361D01*
X103142882Y-82518364D01*
X103151785Y-82672777D01*
X103156790Y-82759576D01*
X103157927Y-82764622D01*
X103157928Y-82764628D01*
X103159129Y-82769955D01*
X103211043Y-83000315D01*
X103212985Y-83005097D01*
X103212986Y-83005101D01*
X103271308Y-83148730D01*
X103303886Y-83228961D01*
X103432827Y-83439372D01*
X103594401Y-83625899D01*
X103784271Y-83783532D01*
X103788723Y-83786134D01*
X103788728Y-83786137D01*
X103955797Y-83883764D01*
X103997337Y-83908038D01*
X104227877Y-83996073D01*
X104232943Y-83997104D01*
X104232944Y-83997104D01*
X104340807Y-84019049D01*
X104469700Y-84045272D01*
X104608697Y-84050369D01*
X104711147Y-84054126D01*
X104711151Y-84054126D01*
X104716311Y-84054315D01*
X104721431Y-84053659D01*
X104721433Y-84053659D01*
X104955959Y-84023615D01*
X104955960Y-84023615D01*
X104961087Y-84022958D01*
X105197455Y-83952044D01*
X105419067Y-83843478D01*
X105423271Y-83840480D01*
X105423280Y-83840474D01*
X105425332Y-83839010D01*
X105426297Y-83838675D01*
X105427720Y-83837827D01*
X105427895Y-83838121D01*
X105492406Y-83815736D01*
X105561414Y-83832420D01*
X105610448Y-83883764D01*
X105624500Y-83941589D01*
X105624500Y-86241538D01*
X105604498Y-86309659D01*
X105550842Y-86356152D01*
X105480568Y-86366256D01*
X105437607Y-86351847D01*
X105269727Y-86259173D01*
X105269726Y-86259172D01*
X105265198Y-86256673D01*
X105260329Y-86254949D01*
X105260325Y-86254947D01*
X105037485Y-86176035D01*
X105037481Y-86176034D01*
X105032610Y-86174309D01*
X105027517Y-86173402D01*
X105027514Y-86173401D01*
X104794783Y-86131945D01*
X104794777Y-86131944D01*
X104789694Y-86131039D01*
X104710324Y-86130069D01*
X104548142Y-86128088D01*
X104548140Y-86128088D01*
X104542972Y-86128025D01*
X104299070Y-86165347D01*
X104064540Y-86242003D01*
X103845679Y-86355935D01*
X103841546Y-86359038D01*
X103841543Y-86359040D01*
X103652499Y-86500978D01*
X103648364Y-86504083D01*
X103477896Y-86682468D01*
X103338851Y-86886300D01*
X103325961Y-86914069D01*
X103240858Y-87097409D01*
X103234965Y-87110104D01*
X103169026Y-87347871D01*
X103142806Y-87593214D01*
X103143103Y-87598366D01*
X103143103Y-87598370D01*
X103151367Y-87741683D01*
X103157010Y-87839545D01*
X103158147Y-87844591D01*
X103158148Y-87844597D01*
X103173406Y-87912300D01*
X103211255Y-88080249D01*
X103304084Y-88308861D01*
X103433006Y-88519241D01*
X103594557Y-88705741D01*
X103784399Y-88863351D01*
X103997433Y-88987838D01*
X104002253Y-88989678D01*
X104002258Y-88989681D01*
X104116547Y-89033323D01*
X104227939Y-89075859D01*
X104233007Y-89076890D01*
X104233010Y-89076891D01*
X104352526Y-89101207D01*
X104469726Y-89125052D01*
X104474899Y-89125242D01*
X104474902Y-89125242D01*
X104711136Y-89133904D01*
X104711140Y-89133904D01*
X104716300Y-89134093D01*
X104721420Y-89133437D01*
X104721422Y-89133437D01*
X104797703Y-89123665D01*
X104961041Y-89102741D01*
X104965990Y-89101256D01*
X104965996Y-89101255D01*
X105192424Y-89033323D01*
X105192423Y-89033323D01*
X105197374Y-89031838D01*
X105325538Y-88969051D01*
X105414303Y-88925566D01*
X105414308Y-88925563D01*
X105418954Y-88923287D01*
X105423164Y-88920284D01*
X105423169Y-88920281D01*
X105615617Y-88783009D01*
X105615622Y-88783005D01*
X105619829Y-88780004D01*
X105744267Y-88656000D01*
X105758066Y-88642249D01*
X105820438Y-88608333D01*
X105847006Y-88605500D01*
X106570947Y-88605500D01*
X106577541Y-88605673D01*
X106641517Y-88609026D01*
X106641521Y-88609026D01*
X106647899Y-88609360D01*
X106719257Y-88598569D01*
X106725340Y-88597800D01*
X106797163Y-88590504D01*
X106803254Y-88588595D01*
X106803260Y-88588594D01*
X106810846Y-88586217D01*
X106829678Y-88581869D01*
X106837535Y-88580681D01*
X106837537Y-88580680D01*
X106843848Y-88579726D01*
X106911582Y-88554805D01*
X106917407Y-88552822D01*
X106980181Y-88533150D01*
X106980183Y-88533149D01*
X106986272Y-88531241D01*
X106991852Y-88528148D01*
X106991854Y-88528147D01*
X106998804Y-88524294D01*
X107016389Y-88516242D01*
X107020220Y-88514833D01*
X107023852Y-88513497D01*
X107023855Y-88513495D01*
X107029836Y-88511295D01*
X107091177Y-88473262D01*
X107096471Y-88470156D01*
X107159602Y-88435162D01*
X107170482Y-88425837D01*
X107186078Y-88414422D01*
X107192845Y-88410226D01*
X107198266Y-88406865D01*
X107202900Y-88402483D01*
X107202905Y-88402479D01*
X107250709Y-88357273D01*
X107255284Y-88353153D01*
X107305224Y-88310349D01*
X107310073Y-88306193D01*
X107318860Y-88294864D01*
X107331837Y-88280552D01*
X107342257Y-88270699D01*
X107383659Y-88211571D01*
X107387303Y-88206629D01*
X107427621Y-88154652D01*
X107427626Y-88154644D01*
X107431537Y-88149602D01*
X107437867Y-88136739D01*
X107447700Y-88120113D01*
X107452266Y-88113592D01*
X107452270Y-88113585D01*
X107455927Y-88108362D01*
X107466022Y-88085035D01*
X107484590Y-88042125D01*
X107487173Y-88036535D01*
X107516213Y-87977520D01*
X107516215Y-87977516D01*
X107519034Y-87971786D01*
X107522647Y-87957915D01*
X107528941Y-87939638D01*
X107532097Y-87932345D01*
X107532099Y-87932340D01*
X107534633Y-87926483D01*
X107549393Y-87855833D01*
X107550791Y-87849871D01*
X107568989Y-87780007D01*
X107569739Y-87765689D01*
X107572229Y-87746520D01*
X107574170Y-87737233D01*
X107574171Y-87737229D01*
X107575160Y-87732493D01*
X107575500Y-87726005D01*
X107575500Y-87659053D01*
X107575673Y-87652459D01*
X107579026Y-87588483D01*
X107579026Y-87588479D01*
X107579360Y-87582101D01*
X107576917Y-87565947D01*
X107575500Y-87547106D01*
X107575500Y-77498255D01*
X107595502Y-77430134D01*
X107612405Y-77409160D01*
X108104021Y-76917545D01*
X108628624Y-76392942D01*
X108631146Y-76390489D01*
X108687616Y-76337088D01*
X108687617Y-76337087D01*
X108692257Y-76332699D01*
X108725921Y-76284622D01*
X108731491Y-76277258D01*
X108764558Y-76236713D01*
X108764559Y-76236711D01*
X108768594Y-76231764D01*
X108781500Y-76207077D01*
X108789949Y-76193181D01*
X108802265Y-76175592D01*
X108802265Y-76175591D01*
X108805927Y-76170362D01*
X108829239Y-76116492D01*
X108833214Y-76108158D01*
X108857454Y-76061790D01*
X108860409Y-76056138D01*
X108868087Y-76029362D01*
X108873565Y-76014059D01*
X108884633Y-75988483D01*
X108896642Y-75930998D01*
X108898848Y-75922082D01*
X108915034Y-75865637D01*
X108917171Y-75837860D01*
X108919462Y-75821769D01*
X108925160Y-75794493D01*
X108925500Y-75788005D01*
X108925500Y-75734464D01*
X108925871Y-75724797D01*
X108929749Y-75674403D01*
X108929749Y-75674399D01*
X108930238Y-75668043D01*
X108926494Y-75638407D01*
X108925500Y-75622615D01*
X108925500Y-75008385D01*
X108945502Y-74940264D01*
X108999158Y-74893771D01*
X109006736Y-74891047D01*
X109006762Y-74891044D01*
X109011311Y-74889160D01*
X109073517Y-74863393D01*
X109152841Y-74830536D01*
X109278282Y-74734282D01*
X109374536Y-74608841D01*
X109435044Y-74462762D01*
X109435079Y-74462777D01*
X109469968Y-74405535D01*
X109533829Y-74374513D01*
X109604323Y-74382940D01*
X109659071Y-74428142D01*
X109664923Y-74437674D01*
X109684838Y-74473602D01*
X109688989Y-74478445D01*
X109694163Y-74484482D01*
X109705578Y-74500078D01*
X109713135Y-74512266D01*
X109717517Y-74516900D01*
X109717521Y-74516905D01*
X109762727Y-74564709D01*
X109766847Y-74569284D01*
X109786439Y-74592142D01*
X109813807Y-74624073D01*
X109825136Y-74632860D01*
X109839448Y-74645837D01*
X109849301Y-74656257D01*
X109908429Y-74697659D01*
X109913371Y-74701303D01*
X109965348Y-74741621D01*
X109965356Y-74741626D01*
X109970398Y-74745537D01*
X109983261Y-74751867D01*
X109999887Y-74761700D01*
X110006408Y-74766266D01*
X110006415Y-74766270D01*
X110011638Y-74769927D01*
X110017491Y-74772460D01*
X110017495Y-74772462D01*
X110077875Y-74798590D01*
X110083465Y-74801173D01*
X110142480Y-74830213D01*
X110142484Y-74830215D01*
X110148214Y-74833034D01*
X110154394Y-74834644D01*
X110154397Y-74834645D01*
X110162084Y-74836647D01*
X110180362Y-74842941D01*
X110187655Y-74846097D01*
X110187660Y-74846099D01*
X110193517Y-74848633D01*
X110263181Y-74863187D01*
X110264167Y-74863393D01*
X110270129Y-74864791D01*
X110339993Y-74882989D01*
X110354311Y-74883739D01*
X110373475Y-74886228D01*
X110378379Y-74887253D01*
X110382767Y-74888170D01*
X110382771Y-74888171D01*
X110387507Y-74889160D01*
X110393995Y-74889500D01*
X110406353Y-74889500D01*
X110474474Y-74909502D01*
X110520967Y-74963158D01*
X110531071Y-75033432D01*
X110510441Y-75086504D01*
X110396274Y-75253866D01*
X110391176Y-75262841D01*
X110298052Y-75463459D01*
X110294489Y-75473146D01*
X110235381Y-75686280D01*
X110233450Y-75696400D01*
X110209945Y-75916349D01*
X110209693Y-75926638D01*
X110222427Y-76147468D01*
X110223861Y-76157670D01*
X110272485Y-76373439D01*
X110275573Y-76383292D01*
X110358786Y-76588220D01*
X110363434Y-76597421D01*
X110451897Y-76741781D01*
X110462353Y-76751242D01*
X110471131Y-76747458D01*
X111532705Y-75685885D01*
X111595017Y-75651859D01*
X111665833Y-75656924D01*
X111710895Y-75685885D01*
X112768103Y-76743092D01*
X112792939Y-76756654D01*
X112839044Y-76766684D01*
X112886090Y-76811436D01*
X112904104Y-76840833D01*
X112904109Y-76840839D01*
X112906806Y-76845241D01*
X113068357Y-77031741D01*
X113072332Y-77035041D01*
X113072335Y-77035044D01*
X113225924Y-77162556D01*
X113265559Y-77221459D01*
X113267057Y-77292440D01*
X113229942Y-77352962D01*
X113165998Y-77383811D01*
X113145439Y-77385500D01*
X112436117Y-77385500D01*
X112367996Y-77365498D01*
X112321503Y-77311842D01*
X112311399Y-77241568D01*
X112340893Y-77176988D01*
X112362948Y-77156922D01*
X112406895Y-77125575D01*
X112415297Y-77114874D01*
X112408310Y-77101721D01*
X111634611Y-76328021D01*
X111620668Y-76320408D01*
X111618834Y-76320539D01*
X111612220Y-76324790D01*
X110831980Y-77105031D01*
X110825223Y-77117406D01*
X110830504Y-77124461D01*
X110875427Y-77150712D01*
X110924150Y-77202351D01*
X110937221Y-77272134D01*
X110910489Y-77337906D01*
X110852442Y-77378784D01*
X110811856Y-77385500D01*
X109816512Y-77385500D01*
X109798432Y-77384196D01*
X109798412Y-77384193D01*
X109795777Y-77383811D01*
X109787944Y-77382675D01*
X109787941Y-77382675D01*
X109782004Y-77381814D01*
X109705282Y-77385365D01*
X109699456Y-77385500D01*
X109675531Y-77385500D01*
X109653289Y-77387622D01*
X109647178Y-77388054D01*
X109622650Y-77389189D01*
X109572233Y-77391523D01*
X109566403Y-77392928D01*
X109554576Y-77395778D01*
X109537031Y-77398714D01*
X109531934Y-77399200D01*
X109518954Y-77400439D01*
X109489227Y-77409160D01*
X109446958Y-77421560D01*
X109441010Y-77423148D01*
X109412024Y-77430134D01*
X109368082Y-77440724D01*
X109362623Y-77443206D01*
X109362620Y-77443207D01*
X109351550Y-77448240D01*
X109334878Y-77454440D01*
X109323247Y-77457853D01*
X109317451Y-77459553D01*
X109250758Y-77493902D01*
X109245229Y-77496581D01*
X109182378Y-77525157D01*
X109182370Y-77525161D01*
X109176919Y-77527640D01*
X109162105Y-77538148D01*
X109146905Y-77547390D01*
X109130761Y-77555705D01*
X109126043Y-77559411D01*
X109126040Y-77559413D01*
X109071772Y-77602041D01*
X109066839Y-77605724D01*
X109010534Y-77645665D01*
X109010531Y-77645667D01*
X109005640Y-77649137D01*
X109001497Y-77653465D01*
X108993081Y-77662256D01*
X108979898Y-77674209D01*
X108965621Y-77685424D01*
X108961690Y-77689954D01*
X108961689Y-77689955D01*
X108916449Y-77742090D01*
X108912304Y-77746638D01*
X108860425Y-77800831D01*
X108857170Y-77805872D01*
X108850579Y-77816079D01*
X108839891Y-77830314D01*
X108827990Y-77844029D01*
X108824992Y-77849212D01*
X108824988Y-77849217D01*
X108790416Y-77908979D01*
X108787203Y-77914232D01*
X108746515Y-77977246D01*
X108744273Y-77982808D01*
X108744273Y-77982809D01*
X108739727Y-77994088D01*
X108731926Y-78010081D01*
X108725838Y-78020605D01*
X108725835Y-78020612D01*
X108722834Y-78025799D01*
X108720869Y-78031458D01*
X108698225Y-78096668D01*
X108696063Y-78102434D01*
X108668019Y-78172019D01*
X108664539Y-78189843D01*
X108659905Y-78207017D01*
X108653947Y-78224174D01*
X108653087Y-78230104D01*
X108653086Y-78230109D01*
X108643183Y-78298411D01*
X108642151Y-78304481D01*
X108627770Y-78378122D01*
X108627500Y-78383643D01*
X108627500Y-78397488D01*
X108626196Y-78415567D01*
X108623814Y-78431996D01*
X108625127Y-78460365D01*
X108627365Y-78508718D01*
X108627500Y-78514544D01*
X108627500Y-83990817D01*
X108607498Y-84058938D01*
X108597318Y-84072639D01*
X108494086Y-84193509D01*
X108369035Y-84397573D01*
X108367142Y-84402143D01*
X108367140Y-84402147D01*
X108290214Y-84587865D01*
X108277447Y-84618687D01*
X108266581Y-84663946D01*
X108222731Y-84846593D01*
X108222730Y-84846599D01*
X108221576Y-84851406D01*
X108202798Y-85090000D01*
X108221576Y-85328594D01*
X108222730Y-85333401D01*
X108222731Y-85333407D01*
X108222758Y-85333519D01*
X108277447Y-85561313D01*
X108279340Y-85565884D01*
X108279341Y-85565886D01*
X108327803Y-85682883D01*
X108369035Y-85782427D01*
X108494086Y-85986491D01*
X108597313Y-86107355D01*
X108626342Y-86172143D01*
X108627500Y-86189183D01*
X108627500Y-90589488D01*
X108626196Y-90607567D01*
X108623814Y-90623996D01*
X108625127Y-90652365D01*
X108627365Y-90700718D01*
X108627500Y-90706544D01*
X108627500Y-90730469D01*
X108629622Y-90752711D01*
X108630054Y-90758822D01*
X108631189Y-90783350D01*
X108633523Y-90833767D01*
X108634928Y-90839597D01*
X108637778Y-90851424D01*
X108640714Y-90868969D01*
X108642439Y-90887046D01*
X108644126Y-90892795D01*
X108663560Y-90959042D01*
X108665148Y-90964990D01*
X108667360Y-90974166D01*
X108682724Y-91037918D01*
X108685206Y-91043377D01*
X108685207Y-91043380D01*
X108690240Y-91054450D01*
X108696440Y-91071122D01*
X108701553Y-91088549D01*
X108735221Y-91153919D01*
X108735896Y-91155230D01*
X108738581Y-91160771D01*
X108767157Y-91223622D01*
X108767161Y-91223630D01*
X108769640Y-91229081D01*
X108780148Y-91243895D01*
X108789390Y-91259095D01*
X108797705Y-91275239D01*
X108801411Y-91279957D01*
X108801413Y-91279960D01*
X108844041Y-91334228D01*
X108847724Y-91339161D01*
X108887665Y-91395466D01*
X108891137Y-91400360D01*
X108895465Y-91404503D01*
X108904256Y-91412919D01*
X108916209Y-91426102D01*
X108927424Y-91440379D01*
X108931954Y-91444310D01*
X108931955Y-91444311D01*
X108984090Y-91489551D01*
X108988638Y-91493696D01*
X109042831Y-91545575D01*
X109047872Y-91548830D01*
X109058079Y-91555421D01*
X109072314Y-91566109D01*
X109086029Y-91578010D01*
X109091212Y-91581008D01*
X109091217Y-91581012D01*
X109150979Y-91615584D01*
X109156232Y-91618797D01*
X109219246Y-91659485D01*
X109224808Y-91661727D01*
X109224809Y-91661727D01*
X109236088Y-91666273D01*
X109252081Y-91674074D01*
X109262605Y-91680162D01*
X109262612Y-91680165D01*
X109267799Y-91683166D01*
X109338675Y-91707778D01*
X109344434Y-91709937D01*
X109408453Y-91735738D01*
X109408455Y-91735739D01*
X109414019Y-91737981D01*
X109431843Y-91741461D01*
X109449017Y-91746095D01*
X109466174Y-91752053D01*
X109472104Y-91752913D01*
X109472109Y-91752914D01*
X109540411Y-91762817D01*
X109546481Y-91763849D01*
X109615676Y-91777362D01*
X109615679Y-91777362D01*
X109620122Y-91778230D01*
X109625643Y-91778500D01*
X109639488Y-91778500D01*
X109657568Y-91779804D01*
X109668056Y-91781325D01*
X109668059Y-91781325D01*
X109673996Y-91782186D01*
X109750718Y-91778635D01*
X109756544Y-91778500D01*
X123101488Y-91778500D01*
X123119568Y-91779804D01*
X123130056Y-91781325D01*
X123130059Y-91781325D01*
X123135996Y-91782186D01*
X123212718Y-91778635D01*
X123218544Y-91778500D01*
X123242469Y-91778500D01*
X123264711Y-91776378D01*
X123270822Y-91775946D01*
X123295350Y-91774811D01*
X123345767Y-91772477D01*
X123351597Y-91771072D01*
X123363424Y-91768222D01*
X123380969Y-91765286D01*
X123386066Y-91764800D01*
X123399046Y-91763561D01*
X123445361Y-91749974D01*
X123471042Y-91742440D01*
X123476990Y-91740852D01*
X123510731Y-91732720D01*
X123549918Y-91723276D01*
X123555377Y-91720794D01*
X123555380Y-91720793D01*
X123566450Y-91715760D01*
X123583122Y-91709560D01*
X123594785Y-91706138D01*
X123600549Y-91704447D01*
X123667242Y-91670098D01*
X123672771Y-91667419D01*
X123735622Y-91638843D01*
X123735630Y-91638839D01*
X123741081Y-91636360D01*
X123755895Y-91625852D01*
X123771098Y-91616608D01*
X123787239Y-91608295D01*
X123830799Y-91574079D01*
X123846228Y-91561959D01*
X123851161Y-91558276D01*
X123907466Y-91518335D01*
X123907469Y-91518333D01*
X123912360Y-91514863D01*
X123924919Y-91501744D01*
X123938102Y-91489791D01*
X123947661Y-91482282D01*
X123952379Y-91478576D01*
X124001554Y-91421907D01*
X124005699Y-91417359D01*
X124009950Y-91412919D01*
X124057575Y-91363169D01*
X124067421Y-91347921D01*
X124078111Y-91333683D01*
X124086079Y-91324501D01*
X124090010Y-91319971D01*
X124093008Y-91314788D01*
X124093012Y-91314783D01*
X124127584Y-91255021D01*
X124130797Y-91249768D01*
X124140998Y-91233969D01*
X124171485Y-91186754D01*
X124173727Y-91181191D01*
X124178273Y-91169912D01*
X124186074Y-91153919D01*
X124192162Y-91143395D01*
X124192165Y-91143388D01*
X124195166Y-91138201D01*
X124219778Y-91067325D01*
X124221937Y-91061566D01*
X124247738Y-90997547D01*
X124247739Y-90997545D01*
X124249981Y-90991981D01*
X124253461Y-90974157D01*
X124258095Y-90956983D01*
X124264053Y-90939826D01*
X124274817Y-90865589D01*
X124275849Y-90859519D01*
X124289362Y-90790324D01*
X124289362Y-90790321D01*
X124290230Y-90785878D01*
X124290500Y-90780357D01*
X124290500Y-90766512D01*
X124291804Y-90748432D01*
X124293325Y-90737944D01*
X124293325Y-90737941D01*
X124294186Y-90732004D01*
X124290635Y-90655282D01*
X124290500Y-90649456D01*
X124290500Y-89456980D01*
X124310502Y-89388859D01*
X124364158Y-89342366D01*
X124434432Y-89332262D01*
X124488771Y-89353767D01*
X124528993Y-89381931D01*
X124538489Y-89387414D01*
X124735947Y-89479490D01*
X124746239Y-89483236D01*
X124918503Y-89529394D01*
X124932599Y-89529058D01*
X124936000Y-89521116D01*
X124936000Y-89515967D01*
X125444000Y-89515967D01*
X125447973Y-89529498D01*
X125456522Y-89530727D01*
X125633761Y-89483236D01*
X125644053Y-89479490D01*
X125841511Y-89387414D01*
X125851007Y-89381931D01*
X126029467Y-89256972D01*
X126037875Y-89249916D01*
X126191916Y-89095875D01*
X126198972Y-89087467D01*
X126323931Y-88909007D01*
X126329414Y-88899511D01*
X126421490Y-88702053D01*
X126425236Y-88691761D01*
X126481625Y-88481312D01*
X126483528Y-88470519D01*
X126487944Y-88420046D01*
X126484940Y-88405099D01*
X126473190Y-88402000D01*
X125462115Y-88402000D01*
X125446876Y-88406475D01*
X125445671Y-88407865D01*
X125444000Y-88415548D01*
X125444000Y-89515967D01*
X124936000Y-89515967D01*
X124936000Y-87875885D01*
X125444000Y-87875885D01*
X125448475Y-87891124D01*
X125449865Y-87892329D01*
X125457548Y-87894000D01*
X126471408Y-87894000D01*
X126486036Y-87889705D01*
X126488099Y-87877728D01*
X126483528Y-87825481D01*
X126481625Y-87814688D01*
X126425236Y-87604239D01*
X126421490Y-87593947D01*
X126329414Y-87396489D01*
X126323931Y-87386993D01*
X126198972Y-87208533D01*
X126191916Y-87200125D01*
X126037875Y-87046084D01*
X126029467Y-87039028D01*
X125851007Y-86914069D01*
X125841511Y-86908586D01*
X125644053Y-86816510D01*
X125633761Y-86812764D01*
X125461497Y-86766606D01*
X125447401Y-86766942D01*
X125444000Y-86774884D01*
X125444000Y-87875885D01*
X124936000Y-87875885D01*
X124936000Y-86780033D01*
X124932027Y-86766502D01*
X124923478Y-86765273D01*
X124746239Y-86812764D01*
X124735947Y-86816510D01*
X124538489Y-86908586D01*
X124528993Y-86914069D01*
X124350533Y-87039028D01*
X124342125Y-87046084D01*
X124324826Y-87063383D01*
X124262514Y-87097409D01*
X124191699Y-87092344D01*
X124159029Y-87074252D01*
X124092841Y-87023464D01*
X124092842Y-87023464D01*
X124092840Y-87023463D01*
X124093646Y-87022412D01*
X124050509Y-86977176D01*
X124036500Y-86919434D01*
X124036500Y-85199382D01*
X124056502Y-85131261D01*
X124110158Y-85084768D01*
X124169314Y-85073566D01*
X124177328Y-85074000D01*
X124949885Y-85074000D01*
X124965124Y-85069525D01*
X124966329Y-85068135D01*
X124968000Y-85060452D01*
X124968000Y-85055884D01*
X125476000Y-85055884D01*
X125480475Y-85071123D01*
X125481865Y-85072328D01*
X125489548Y-85073999D01*
X126266669Y-85073999D01*
X126273490Y-85073629D01*
X126324352Y-85068105D01*
X126339604Y-85064479D01*
X126460054Y-85019324D01*
X126475649Y-85010786D01*
X126577724Y-84934285D01*
X126590285Y-84921724D01*
X126666786Y-84819649D01*
X126675324Y-84804054D01*
X126720478Y-84683606D01*
X126724105Y-84668351D01*
X126729631Y-84617486D01*
X126730000Y-84610672D01*
X126730000Y-84595966D01*
X127649000Y-84595966D01*
X127682685Y-84745439D01*
X127685773Y-84755292D01*
X127768989Y-84960226D01*
X127773629Y-84969413D01*
X127889208Y-85158022D01*
X127895286Y-85166326D01*
X128040113Y-85333519D01*
X128047475Y-85340728D01*
X128217660Y-85482018D01*
X128226099Y-85487927D01*
X128417077Y-85599525D01*
X128426364Y-85603975D01*
X128633003Y-85682883D01*
X128642901Y-85685759D01*
X128760250Y-85709634D01*
X128774299Y-85708438D01*
X128778000Y-85698093D01*
X128778000Y-85696928D01*
X129286000Y-85696928D01*
X129290064Y-85710770D01*
X129303479Y-85712804D01*
X129320613Y-85710609D01*
X129330698Y-85708466D01*
X129542557Y-85644905D01*
X129552152Y-85641144D01*
X129750778Y-85543838D01*
X129759636Y-85538559D01*
X129939716Y-85410109D01*
X129947578Y-85403465D01*
X130104260Y-85247329D01*
X130110937Y-85239484D01*
X130240010Y-85059859D01*
X130245321Y-85051020D01*
X130343318Y-84852737D01*
X130347117Y-84843142D01*
X130411415Y-84631517D01*
X130413594Y-84621436D01*
X130416422Y-84599960D01*
X130414210Y-84585779D01*
X130401052Y-84582000D01*
X129304115Y-84582000D01*
X129288876Y-84586475D01*
X129287671Y-84587865D01*
X129286000Y-84595548D01*
X129286000Y-85696928D01*
X128778000Y-85696928D01*
X128778000Y-84600115D01*
X128773525Y-84584876D01*
X128772135Y-84583671D01*
X128764452Y-84582000D01*
X127663968Y-84582000D01*
X127650437Y-84585973D01*
X127649000Y-84595966D01*
X126730000Y-84595966D01*
X126730000Y-84058788D01*
X127645484Y-84058788D01*
X127647625Y-84070609D01*
X127660001Y-84074000D01*
X128759885Y-84074000D01*
X128775124Y-84069525D01*
X128776329Y-84068135D01*
X128778000Y-84060452D01*
X128778000Y-84055885D01*
X129286000Y-84055885D01*
X129290475Y-84071124D01*
X129291865Y-84072329D01*
X129299548Y-84074000D01*
X130401900Y-84074000D01*
X130415431Y-84070027D01*
X130416736Y-84060947D01*
X130370710Y-83877708D01*
X130367389Y-83867953D01*
X130279193Y-83665118D01*
X130274315Y-83656020D01*
X130154177Y-83470315D01*
X130147885Y-83462144D01*
X129999023Y-83298547D01*
X129991490Y-83291521D01*
X129817901Y-83154429D01*
X129809323Y-83148730D01*
X129615678Y-83041833D01*
X129606272Y-83037606D01*
X129397772Y-82963772D01*
X129387809Y-82961140D01*
X129303836Y-82946182D01*
X129290541Y-82947641D01*
X129286000Y-82962199D01*
X129286000Y-84055885D01*
X128778000Y-84055885D01*
X128778000Y-82960517D01*
X128774082Y-82947173D01*
X128759806Y-82945186D01*
X128709694Y-82952855D01*
X128699666Y-82955244D01*
X128489426Y-83023961D01*
X128479916Y-83027958D01*
X128283728Y-83130087D01*
X128275003Y-83135581D01*
X128098123Y-83268386D01*
X128090416Y-83275229D01*
X127937600Y-83435143D01*
X127931113Y-83443153D01*
X127806474Y-83625867D01*
X127801376Y-83634841D01*
X127708252Y-83835459D01*
X127704689Y-83845146D01*
X127645581Y-84058279D01*
X127645484Y-84058788D01*
X126730000Y-84058788D01*
X126730000Y-83838115D01*
X126725525Y-83822876D01*
X126724135Y-83821671D01*
X126716452Y-83820000D01*
X125494115Y-83820000D01*
X125478876Y-83824475D01*
X125477671Y-83825865D01*
X125476000Y-83833548D01*
X125476000Y-85055884D01*
X124968000Y-85055884D01*
X124968000Y-83438000D01*
X124988002Y-83369879D01*
X125041658Y-83323386D01*
X125094000Y-83312000D01*
X126711884Y-83312000D01*
X126727123Y-83307525D01*
X126728328Y-83306135D01*
X126729999Y-83298452D01*
X126729999Y-82521331D01*
X126729629Y-82514510D01*
X126724105Y-82463648D01*
X126720479Y-82448396D01*
X126675324Y-82327946D01*
X126666786Y-82312351D01*
X126585314Y-82203643D01*
X126560466Y-82137136D01*
X126575519Y-82067754D01*
X126583971Y-82054641D01*
X126585197Y-82053243D01*
X126592950Y-82041191D01*
X126719532Y-81844396D01*
X126722060Y-81840466D01*
X126825969Y-81609797D01*
X126828076Y-81602328D01*
X126893372Y-81370801D01*
X126894641Y-81366303D01*
X126926569Y-81115333D01*
X126928908Y-81026000D01*
X126910159Y-80773703D01*
X126854324Y-80526948D01*
X126762630Y-80291157D01*
X126637091Y-80071509D01*
X126480465Y-79872830D01*
X126452489Y-79846513D01*
X126416578Y-79785269D01*
X126419479Y-79714332D01*
X126444092Y-79671663D01*
X126481135Y-79629423D01*
X126541088Y-79591395D01*
X126575867Y-79586500D01*
X128943488Y-79586500D01*
X128961568Y-79587804D01*
X128972056Y-79589325D01*
X128972059Y-79589325D01*
X128977996Y-79590186D01*
X129054718Y-79586635D01*
X129060544Y-79586500D01*
X129084469Y-79586500D01*
X129106711Y-79584378D01*
X129112822Y-79583946D01*
X129137350Y-79582811D01*
X129187767Y-79580477D01*
X129193597Y-79579072D01*
X129205424Y-79576222D01*
X129222969Y-79573286D01*
X129228066Y-79572800D01*
X129241046Y-79571561D01*
X129287361Y-79557974D01*
X129313042Y-79550440D01*
X129318990Y-79548852D01*
X129352731Y-79540720D01*
X129391918Y-79531276D01*
X129397377Y-79528794D01*
X129397380Y-79528793D01*
X129408450Y-79523760D01*
X129425122Y-79517560D01*
X129436785Y-79514138D01*
X129442549Y-79512447D01*
X129509242Y-79478098D01*
X129514771Y-79475419D01*
X129577622Y-79446843D01*
X129577630Y-79446839D01*
X129583081Y-79444360D01*
X129597895Y-79433852D01*
X129613098Y-79424608D01*
X129629239Y-79416295D01*
X129652379Y-79398119D01*
X129688228Y-79369959D01*
X129693161Y-79366276D01*
X129749466Y-79326335D01*
X129749469Y-79326333D01*
X129754360Y-79322863D01*
X129766919Y-79309744D01*
X129780102Y-79297791D01*
X129789661Y-79290282D01*
X129794379Y-79286576D01*
X129843554Y-79229907D01*
X129847699Y-79225359D01*
X129895430Y-79175499D01*
X129895430Y-79175498D01*
X129899575Y-79171169D01*
X129909421Y-79155921D01*
X129920111Y-79141683D01*
X129928079Y-79132501D01*
X129932010Y-79127971D01*
X129935008Y-79122788D01*
X129935012Y-79122783D01*
X129969584Y-79063021D01*
X129972797Y-79057768D01*
X130010233Y-78999790D01*
X130013485Y-78994754D01*
X130015727Y-78989191D01*
X130020273Y-78977912D01*
X130028074Y-78961919D01*
X130034162Y-78951395D01*
X130034165Y-78951388D01*
X130037166Y-78946201D01*
X130061778Y-78875325D01*
X130063937Y-78869566D01*
X130089738Y-78805547D01*
X130089739Y-78805545D01*
X130091981Y-78799981D01*
X130095461Y-78782157D01*
X130100095Y-78764983D01*
X130106053Y-78747826D01*
X130113884Y-78693820D01*
X130116817Y-78673589D01*
X130117849Y-78667519D01*
X130131362Y-78598324D01*
X130131362Y-78598321D01*
X130132230Y-78593878D01*
X130132500Y-78588357D01*
X130132500Y-78574512D01*
X130133804Y-78556432D01*
X130135325Y-78545944D01*
X130135325Y-78545941D01*
X130136186Y-78540004D01*
X130132635Y-78463282D01*
X130132500Y-78457456D01*
X130132500Y-77809500D01*
X130152502Y-77741379D01*
X130206158Y-77694886D01*
X130258500Y-77683500D01*
X130540207Y-77683500D01*
X130543725Y-77683549D01*
X130621430Y-77685720D01*
X130621433Y-77685720D01*
X130627812Y-77685898D01*
X130641134Y-77683549D01*
X130685627Y-77675704D01*
X130694773Y-77674435D01*
X130737403Y-77670105D01*
X130753163Y-77668504D01*
X130760413Y-77666232D01*
X130779744Y-77660175D01*
X130795538Y-77656325D01*
X130816689Y-77652595D01*
X130816697Y-77652593D01*
X130822979Y-77651485D01*
X130856945Y-77638037D01*
X130877562Y-77629874D01*
X130886267Y-77626792D01*
X130936181Y-77611150D01*
X130936183Y-77611149D01*
X130942272Y-77609241D01*
X130966642Y-77595732D01*
X130981343Y-77588783D01*
X131007240Y-77578530D01*
X131012586Y-77575032D01*
X131056355Y-77546391D01*
X131064260Y-77541623D01*
X131110021Y-77516257D01*
X131110031Y-77516250D01*
X131115602Y-77513162D01*
X131120443Y-77509013D01*
X131120447Y-77509010D01*
X131136748Y-77495039D01*
X131149751Y-77485276D01*
X131169015Y-77472670D01*
X131169025Y-77472662D01*
X131173069Y-77470016D01*
X131176658Y-77466784D01*
X131176663Y-77466780D01*
X131176671Y-77466772D01*
X131177897Y-77465668D01*
X131215756Y-77427809D01*
X131222854Y-77421236D01*
X131247782Y-77399870D01*
X131266073Y-77384193D01*
X131284385Y-77360585D01*
X131294850Y-77348715D01*
X131488640Y-77154926D01*
X131491162Y-77152474D01*
X131547616Y-77099088D01*
X131547617Y-77099087D01*
X131552257Y-77094699D01*
X131585921Y-77046622D01*
X131591491Y-77039258D01*
X131624558Y-76998713D01*
X131624559Y-76998711D01*
X131628594Y-76993764D01*
X131641500Y-76969077D01*
X131649949Y-76955181D01*
X131662265Y-76937592D01*
X131662265Y-76937591D01*
X131665927Y-76932362D01*
X131689239Y-76878492D01*
X131693214Y-76870158D01*
X131717454Y-76823790D01*
X131720409Y-76818138D01*
X131728087Y-76791362D01*
X131733565Y-76776059D01*
X131744633Y-76750483D01*
X131756642Y-76692998D01*
X131758848Y-76684082D01*
X131775034Y-76627637D01*
X131777171Y-76599860D01*
X131779462Y-76583769D01*
X131785160Y-76556493D01*
X131785500Y-76550005D01*
X131785500Y-76496464D01*
X131785871Y-76486797D01*
X131789749Y-76436403D01*
X131789749Y-76436399D01*
X131790238Y-76430043D01*
X131786494Y-76400407D01*
X131785500Y-76384615D01*
X131785500Y-66831053D01*
X131785673Y-66824459D01*
X131789026Y-66760483D01*
X131789026Y-66760479D01*
X131789360Y-66754101D01*
X131778569Y-66682743D01*
X131777799Y-66676653D01*
X131777182Y-66670579D01*
X131770504Y-66604837D01*
X131768595Y-66598746D01*
X131768594Y-66598740D01*
X131766217Y-66591154D01*
X131761869Y-66572322D01*
X131760681Y-66564465D01*
X131760680Y-66564463D01*
X131759726Y-66558152D01*
X131734805Y-66490418D01*
X131732822Y-66484593D01*
X131713150Y-66421819D01*
X131713149Y-66421817D01*
X131711241Y-66415728D01*
X131704294Y-66403195D01*
X131696241Y-66385608D01*
X131693497Y-66378148D01*
X131693495Y-66378145D01*
X131691295Y-66372164D01*
X131653262Y-66310823D01*
X131650148Y-66305515D01*
X131647308Y-66300390D01*
X131615162Y-66242398D01*
X131605837Y-66231518D01*
X131594422Y-66215922D01*
X131590226Y-66209155D01*
X131586865Y-66203734D01*
X131582483Y-66199100D01*
X131582479Y-66199095D01*
X131537273Y-66151291D01*
X131533153Y-66146716D01*
X131490349Y-66096776D01*
X131486193Y-66091927D01*
X131474864Y-66083140D01*
X131460552Y-66070163D01*
X131450699Y-66059743D01*
X131391571Y-66018341D01*
X131386629Y-66014697D01*
X131334652Y-65974379D01*
X131334644Y-65974374D01*
X131329602Y-65970463D01*
X131316739Y-65964133D01*
X131300113Y-65954300D01*
X131293592Y-65949734D01*
X131293585Y-65949730D01*
X131288362Y-65946073D01*
X131282509Y-65943540D01*
X131282505Y-65943538D01*
X131222125Y-65917410D01*
X131216535Y-65914827D01*
X131157520Y-65885787D01*
X131157516Y-65885785D01*
X131151786Y-65882966D01*
X131145606Y-65881356D01*
X131145603Y-65881355D01*
X131137916Y-65879353D01*
X131119638Y-65873059D01*
X131112345Y-65869903D01*
X131112340Y-65869901D01*
X131106483Y-65867367D01*
X131035833Y-65852607D01*
X131029871Y-65851209D01*
X130960007Y-65833011D01*
X130945689Y-65832261D01*
X130926525Y-65829772D01*
X130921621Y-65828747D01*
X130917233Y-65827830D01*
X130917229Y-65827829D01*
X130912493Y-65826840D01*
X130906005Y-65826500D01*
X130839053Y-65826500D01*
X130832459Y-65826327D01*
X130768483Y-65822974D01*
X130768479Y-65822974D01*
X130762101Y-65822640D01*
X130747603Y-65824833D01*
X130745947Y-65825083D01*
X130727106Y-65826500D01*
X130497406Y-65826500D01*
X130429285Y-65806498D01*
X130382792Y-65752842D01*
X130372484Y-65716946D01*
X130364122Y-65653425D01*
X130364122Y-65653423D01*
X130363044Y-65645238D01*
X130302536Y-65499159D01*
X130206282Y-65373718D01*
X130080841Y-65277464D01*
X129934762Y-65216956D01*
X129926574Y-65215878D01*
X129821448Y-65202038D01*
X129821447Y-65202038D01*
X129817361Y-65201500D01*
X128778127Y-65201500D01*
X127738640Y-65201501D01*
X127734556Y-65202039D01*
X127734550Y-65202039D01*
X127629425Y-65215878D01*
X127629423Y-65215878D01*
X127621238Y-65216956D01*
X127475159Y-65277464D01*
X127349718Y-65373718D01*
X127253464Y-65499159D01*
X127192956Y-65645238D01*
X127191878Y-65653425D01*
X127191878Y-65653426D01*
X127183516Y-65716946D01*
X127177500Y-65762639D01*
X127177501Y-66798249D01*
X127177501Y-67658969D01*
X127157499Y-67727090D01*
X127103843Y-67773583D01*
X127033569Y-67783687D01*
X126968989Y-67754193D01*
X126962406Y-67748064D01*
X126581417Y-67367075D01*
X126574485Y-67358865D01*
X126574249Y-67359069D01*
X126570334Y-67354533D01*
X126566863Y-67349640D01*
X126500343Y-67285961D01*
X126498406Y-67284064D01*
X126471070Y-67256728D01*
X126468761Y-67254821D01*
X126468751Y-67254812D01*
X126465426Y-67252066D01*
X126458533Y-67245936D01*
X126419497Y-67208568D01*
X126419496Y-67208568D01*
X126415169Y-67204425D01*
X126410135Y-67201175D01*
X126410133Y-67201173D01*
X126387273Y-67186413D01*
X126375389Y-67177715D01*
X126354412Y-67160392D01*
X126354413Y-67160392D01*
X126349790Y-67156575D01*
X126297110Y-67127793D01*
X126289190Y-67123082D01*
X126238754Y-67090515D01*
X126233186Y-67088271D01*
X126233184Y-67088270D01*
X126207961Y-67078105D01*
X126194648Y-67071812D01*
X126170766Y-67058764D01*
X126165506Y-67055890D01*
X126159798Y-67054063D01*
X126159796Y-67054062D01*
X126108336Y-67037590D01*
X126099649Y-67034454D01*
X126049547Y-67014262D01*
X126049545Y-67014261D01*
X126043981Y-67012019D01*
X126011400Y-67005657D01*
X125997137Y-67001995D01*
X125971220Y-66993699D01*
X125971219Y-66993699D01*
X125965506Y-66991870D01*
X125959554Y-66991155D01*
X125905904Y-66984710D01*
X125896784Y-66983273D01*
X125854322Y-66974981D01*
X125837878Y-66971770D01*
X125832357Y-66971500D01*
X125803479Y-66971500D01*
X125788451Y-66970601D01*
X125762956Y-66967538D01*
X125762952Y-66967538D01*
X125757009Y-66966824D01*
X125751033Y-66967247D01*
X125751030Y-66967247D01*
X125695415Y-66971185D01*
X125686516Y-66971500D01*
X125086499Y-66971500D01*
X125018378Y-66951498D01*
X124971885Y-66897842D01*
X124960499Y-66845500D01*
X124960499Y-66782640D01*
X124957761Y-66761837D01*
X124946122Y-66673425D01*
X124946122Y-66673423D01*
X124945044Y-66665238D01*
X124884536Y-66519159D01*
X124788282Y-66393718D01*
X124662841Y-66297464D01*
X124516762Y-66236956D01*
X124472714Y-66231157D01*
X124403448Y-66222038D01*
X124403447Y-66222038D01*
X124399361Y-66221500D01*
X123110157Y-66221500D01*
X121820640Y-66221501D01*
X121816556Y-66222039D01*
X121816550Y-66222039D01*
X121711425Y-66235878D01*
X121711423Y-66235878D01*
X121703238Y-66236956D01*
X121557159Y-66297464D01*
X121431718Y-66393718D01*
X121335464Y-66519159D01*
X121274956Y-66665238D01*
X121259500Y-66782639D01*
X121259501Y-69361360D01*
X121274956Y-69478762D01*
X121335464Y-69624841D01*
X121431718Y-69750282D01*
X121557159Y-69846536D01*
X121703238Y-69907044D01*
X121711426Y-69908122D01*
X121816545Y-69921961D01*
X121820639Y-69922500D01*
X123109843Y-69922500D01*
X124399360Y-69922499D01*
X124403444Y-69921961D01*
X124403450Y-69921961D01*
X124508575Y-69908122D01*
X124508577Y-69908122D01*
X124516762Y-69907044D01*
X124662841Y-69846536D01*
X124788282Y-69750282D01*
X124884536Y-69624841D01*
X124945044Y-69478762D01*
X124952201Y-69424402D01*
X124959962Y-69365448D01*
X124959962Y-69365447D01*
X124960500Y-69361361D01*
X124960500Y-69298500D01*
X124980502Y-69230379D01*
X125034158Y-69183886D01*
X125086500Y-69172500D01*
X125221968Y-69172500D01*
X125290089Y-69192502D01*
X125311063Y-69209405D01*
X126148583Y-70046925D01*
X126155515Y-70055135D01*
X126155751Y-70054931D01*
X126159666Y-70059467D01*
X126163137Y-70064360D01*
X126167468Y-70068506D01*
X126229630Y-70128013D01*
X126231594Y-70129936D01*
X126258930Y-70157272D01*
X126261239Y-70159179D01*
X126261249Y-70159188D01*
X126264574Y-70161934D01*
X126271467Y-70168064D01*
X126314831Y-70209575D01*
X126319865Y-70212825D01*
X126319867Y-70212827D01*
X126342727Y-70227587D01*
X126354611Y-70236285D01*
X126380210Y-70257425D01*
X126432901Y-70286213D01*
X126440794Y-70290908D01*
X126491246Y-70323485D01*
X126496814Y-70325729D01*
X126496816Y-70325730D01*
X126522044Y-70335897D01*
X126535357Y-70342190D01*
X126559233Y-70355235D01*
X126559236Y-70355236D01*
X126564494Y-70358109D01*
X126570202Y-70359936D01*
X126570204Y-70359937D01*
X126621652Y-70376405D01*
X126630339Y-70379541D01*
X126686019Y-70401981D01*
X126691905Y-70403131D01*
X126691907Y-70403131D01*
X126706441Y-70405969D01*
X126718615Y-70408347D01*
X126732867Y-70412005D01*
X126764494Y-70422129D01*
X126770442Y-70422844D01*
X126770449Y-70422845D01*
X126824086Y-70429289D01*
X126833206Y-70430725D01*
X126878784Y-70439625D01*
X126892122Y-70442230D01*
X126897643Y-70442500D01*
X126926520Y-70442500D01*
X126941548Y-70443399D01*
X126967042Y-70446462D01*
X126967048Y-70446462D01*
X126972990Y-70447176D01*
X126978966Y-70446753D01*
X126978969Y-70446753D01*
X127034584Y-70442815D01*
X127043483Y-70442500D01*
X127556411Y-70442500D01*
X127624532Y-70462502D01*
X127642724Y-70477163D01*
X127642776Y-70477224D01*
X127646538Y-70480437D01*
X127830576Y-70637621D01*
X127830581Y-70637624D01*
X127834341Y-70640836D01*
X127838558Y-70643420D01*
X127980992Y-70730704D01*
X128004252Y-70749042D01*
X129048115Y-71792905D01*
X129082141Y-71855217D01*
X129077076Y-71926032D01*
X129048115Y-71971095D01*
X127916920Y-73102290D01*
X127910160Y-73114670D01*
X127915887Y-73122320D01*
X128087042Y-73227205D01*
X128095837Y-73231687D01*
X128305988Y-73318734D01*
X128315373Y-73321783D01*
X128536554Y-73374885D01*
X128546301Y-73376428D01*
X128773070Y-73394275D01*
X128782930Y-73394275D01*
X129009699Y-73376428D01*
X129019446Y-73374885D01*
X129240627Y-73321783D01*
X129250012Y-73318734D01*
X129460163Y-73231687D01*
X129468948Y-73227210D01*
X129642665Y-73120756D01*
X129711199Y-73102218D01*
X129778875Y-73123674D01*
X129824208Y-73178313D01*
X129834500Y-73228189D01*
X129834500Y-75223649D01*
X129814498Y-75291770D01*
X129760842Y-75338263D01*
X129690568Y-75348367D01*
X129656849Y-75338576D01*
X129653724Y-75337171D01*
X129649198Y-75334673D01*
X129644329Y-75332949D01*
X129644325Y-75332947D01*
X129421485Y-75254035D01*
X129421481Y-75254034D01*
X129416610Y-75252309D01*
X129411517Y-75251402D01*
X129411514Y-75251401D01*
X129178783Y-75209945D01*
X129178777Y-75209944D01*
X129173694Y-75209039D01*
X129094324Y-75208069D01*
X128932142Y-75206088D01*
X128932140Y-75206088D01*
X128926972Y-75206025D01*
X128683070Y-75243347D01*
X128448540Y-75320003D01*
X128229679Y-75433935D01*
X128225546Y-75437038D01*
X128225543Y-75437040D01*
X128036499Y-75578978D01*
X128032364Y-75582083D01*
X127861896Y-75760468D01*
X127858982Y-75764740D01*
X127858981Y-75764741D01*
X127841985Y-75789656D01*
X127722851Y-75964300D01*
X127688461Y-76038387D01*
X127627201Y-76170362D01*
X127618965Y-76188104D01*
X127553026Y-76425871D01*
X127526806Y-76671214D01*
X127527103Y-76676366D01*
X127527103Y-76676370D01*
X127534924Y-76812005D01*
X127541010Y-76917545D01*
X127542147Y-76922591D01*
X127542148Y-76922597D01*
X127570071Y-77046500D01*
X127595255Y-77158249D01*
X127597197Y-77163031D01*
X127597198Y-77163035D01*
X127617120Y-77212096D01*
X127624216Y-77282737D01*
X127591994Y-77346000D01*
X127530685Y-77381801D01*
X127500377Y-77385500D01*
X126581018Y-77385500D01*
X126512897Y-77365498D01*
X126485641Y-77340751D01*
X126485308Y-77341056D01*
X126482147Y-77337606D01*
X126479255Y-77333938D01*
X126451544Y-77307870D01*
X126415632Y-77246625D01*
X126418532Y-77175688D01*
X126443145Y-77133018D01*
X126535388Y-77027834D01*
X126584033Y-76972365D01*
X126595087Y-76955181D01*
X126718251Y-76763700D01*
X126720779Y-76759770D01*
X126824599Y-76529298D01*
X126859303Y-76406249D01*
X126891943Y-76290516D01*
X126891944Y-76290513D01*
X126893213Y-76286012D01*
X126900114Y-76231764D01*
X126924715Y-76038387D01*
X126924715Y-76038381D01*
X126925113Y-76035256D01*
X126925268Y-76029364D01*
X126927367Y-75949160D01*
X126927450Y-75946000D01*
X126921478Y-75865637D01*
X126909063Y-75698570D01*
X126909062Y-75698566D01*
X126908717Y-75693918D01*
X126852930Y-75447375D01*
X126848547Y-75436104D01*
X126763007Y-75216138D01*
X126763006Y-75216136D01*
X126761314Y-75211785D01*
X126758470Y-75206808D01*
X126645109Y-75008468D01*
X126635882Y-74992324D01*
X126479390Y-74793815D01*
X126362167Y-74683543D01*
X126326255Y-74622299D01*
X126322500Y-74591768D01*
X126322500Y-72478512D01*
X126323804Y-72460432D01*
X126325325Y-72449944D01*
X126325325Y-72449941D01*
X126326186Y-72444004D01*
X126322635Y-72367282D01*
X126322500Y-72361456D01*
X126322500Y-72337531D01*
X126320378Y-72315289D01*
X126319946Y-72309178D01*
X126316754Y-72240225D01*
X126316477Y-72234233D01*
X126312222Y-72216576D01*
X126309286Y-72199031D01*
X126308130Y-72186919D01*
X126307561Y-72180954D01*
X126286440Y-72108958D01*
X126284852Y-72103010D01*
X126268681Y-72035913D01*
X126267276Y-72030082D01*
X126262871Y-72020393D01*
X126259760Y-72013550D01*
X126253560Y-71996878D01*
X126250138Y-71985215D01*
X126248447Y-71979451D01*
X126214098Y-71912758D01*
X126211419Y-71907229D01*
X126202190Y-71886930D01*
X127265725Y-71886930D01*
X127283572Y-72113699D01*
X127285115Y-72123446D01*
X127338217Y-72344627D01*
X127341266Y-72354012D01*
X127428313Y-72564163D01*
X127432795Y-72572958D01*
X127535432Y-72740445D01*
X127545890Y-72749907D01*
X127554666Y-72746124D01*
X128405978Y-71894812D01*
X128413592Y-71880868D01*
X128413461Y-71879035D01*
X128409210Y-71872420D01*
X127557710Y-71020920D01*
X127545330Y-71014160D01*
X127537680Y-71019887D01*
X127432795Y-71191042D01*
X127428313Y-71199837D01*
X127341266Y-71409988D01*
X127338217Y-71419373D01*
X127285115Y-71640554D01*
X127283572Y-71650301D01*
X127265725Y-71877070D01*
X127265725Y-71886930D01*
X126202190Y-71886930D01*
X126182843Y-71844378D01*
X126182839Y-71844370D01*
X126180360Y-71838919D01*
X126169852Y-71824105D01*
X126160608Y-71808902D01*
X126152295Y-71792761D01*
X126105959Y-71733772D01*
X126102276Y-71728839D01*
X126062335Y-71672534D01*
X126062333Y-71672531D01*
X126058863Y-71667640D01*
X126045744Y-71655081D01*
X126033791Y-71641898D01*
X126026282Y-71632339D01*
X126022576Y-71627621D01*
X125965907Y-71578446D01*
X125961359Y-71574301D01*
X125911499Y-71526570D01*
X125911498Y-71526570D01*
X125907169Y-71522425D01*
X125902128Y-71519170D01*
X125891921Y-71512579D01*
X125877683Y-71501889D01*
X125868501Y-71493921D01*
X125863971Y-71489990D01*
X125858788Y-71486992D01*
X125858783Y-71486988D01*
X125799021Y-71452416D01*
X125793768Y-71449203D01*
X125735790Y-71411767D01*
X125730754Y-71408515D01*
X125725191Y-71406273D01*
X125713912Y-71401727D01*
X125697919Y-71393926D01*
X125687395Y-71387838D01*
X125687388Y-71387835D01*
X125682201Y-71384834D01*
X125611325Y-71360222D01*
X125605566Y-71358063D01*
X125541547Y-71332262D01*
X125541545Y-71332261D01*
X125535981Y-71330019D01*
X125518157Y-71326539D01*
X125500983Y-71321905D01*
X125483826Y-71315947D01*
X125477896Y-71315087D01*
X125477891Y-71315086D01*
X125409589Y-71305183D01*
X125403519Y-71304151D01*
X125334324Y-71290638D01*
X125334321Y-71290638D01*
X125329878Y-71289770D01*
X125324357Y-71289500D01*
X125310512Y-71289500D01*
X125292432Y-71288196D01*
X125281944Y-71286675D01*
X125281941Y-71286675D01*
X125276004Y-71285814D01*
X125199282Y-71289365D01*
X125193456Y-71289500D01*
X121246512Y-71289500D01*
X121228432Y-71288196D01*
X121217944Y-71286675D01*
X121217941Y-71286675D01*
X121212004Y-71285814D01*
X121135282Y-71289365D01*
X121129456Y-71289500D01*
X114336500Y-71289500D01*
X114268379Y-71269498D01*
X114221886Y-71215842D01*
X114210500Y-71163500D01*
X114210500Y-69626978D01*
X114230502Y-69558857D01*
X114252430Y-69533127D01*
X114310480Y-69481133D01*
X117065612Y-69481133D01*
X117074325Y-69492653D01*
X117172018Y-69564284D01*
X117179928Y-69569227D01*
X117402890Y-69686533D01*
X117411453Y-69690256D01*
X117649304Y-69773318D01*
X117658313Y-69775732D01*
X117905842Y-69822727D01*
X117915098Y-69823781D01*
X118166857Y-69833673D01*
X118176171Y-69833347D01*
X118426615Y-69805920D01*
X118435792Y-69804219D01*
X118679431Y-69740074D01*
X118688251Y-69737037D01*
X118919736Y-69637583D01*
X118928008Y-69633276D01*
X119142249Y-69500700D01*
X119149188Y-69495658D01*
X119157518Y-69483019D01*
X119151456Y-69472666D01*
X118122812Y-68444022D01*
X118108868Y-68436408D01*
X118107035Y-68436539D01*
X118100420Y-68440790D01*
X117072270Y-69468940D01*
X117065612Y-69481133D01*
X114310480Y-69481133D01*
X114442287Y-69363076D01*
X114496569Y-69298500D01*
X114608043Y-69165886D01*
X114608045Y-69165884D01*
X114610910Y-69162475D01*
X114749586Y-68940116D01*
X114759750Y-68917127D01*
X114853749Y-68704503D01*
X114855547Y-68700436D01*
X114926681Y-68448216D01*
X114961566Y-68188491D01*
X114962427Y-68161108D01*
X114965126Y-68075222D01*
X114965126Y-68075217D01*
X114965227Y-68072000D01*
X114962291Y-68030523D01*
X116347898Y-68030523D01*
X116359987Y-68282175D01*
X116361124Y-68291435D01*
X116410274Y-68538535D01*
X116412768Y-68547528D01*
X116497900Y-68784639D01*
X116501700Y-68793174D01*
X116620946Y-69015101D01*
X116625957Y-69022968D01*
X116689446Y-69107990D01*
X116700704Y-69116439D01*
X116713123Y-69109667D01*
X117737978Y-68084812D01*
X117744356Y-68073132D01*
X118474408Y-68073132D01*
X118474539Y-68074965D01*
X118478790Y-68081580D01*
X119509913Y-69112703D01*
X119522293Y-69119463D01*
X119530634Y-69113219D01*
X119656765Y-68917127D01*
X119661212Y-68908936D01*
X119764691Y-68679222D01*
X119767882Y-68670455D01*
X119836269Y-68427976D01*
X119838129Y-68418834D01*
X119870116Y-68167396D01*
X119870597Y-68161108D01*
X119872847Y-68075160D01*
X119872696Y-68068851D01*
X119853912Y-67816074D01*
X119852536Y-67806868D01*
X119796929Y-67561126D01*
X119794205Y-67552215D01*
X119702888Y-67317392D01*
X119698877Y-67308983D01*
X119573854Y-67090240D01*
X119568643Y-67082514D01*
X119531391Y-67035261D01*
X119519466Y-67026790D01*
X119507934Y-67033276D01*
X118482022Y-68059188D01*
X118474408Y-68073132D01*
X117744356Y-68073132D01*
X117745592Y-68070868D01*
X117745461Y-68069035D01*
X117741210Y-68062420D01*
X116711321Y-67032531D01*
X116698013Y-67025264D01*
X116687974Y-67032386D01*
X116677761Y-67044666D01*
X116672346Y-67052258D01*
X116541646Y-67267646D01*
X116537408Y-67275963D01*
X116439981Y-67508299D01*
X116437020Y-67517149D01*
X116375006Y-67761331D01*
X116373384Y-67770528D01*
X116348143Y-68021198D01*
X116347898Y-68030523D01*
X114962291Y-68030523D01*
X114957210Y-67958762D01*
X114947034Y-67815045D01*
X114946719Y-67810596D01*
X114891563Y-67554408D01*
X114877818Y-67517149D01*
X114802401Y-67312724D01*
X114800860Y-67308547D01*
X114676420Y-67077920D01*
X114662272Y-67058764D01*
X114523370Y-66870706D01*
X114520726Y-66867126D01*
X114336884Y-66680374D01*
X114311240Y-66660803D01*
X117063216Y-66660803D01*
X117067789Y-66670579D01*
X118097188Y-67699978D01*
X118111132Y-67707592D01*
X118112965Y-67707461D01*
X118119580Y-67703210D01*
X119148419Y-66674371D01*
X119154803Y-66662681D01*
X119145391Y-66650570D01*
X119008593Y-66555670D01*
X119000565Y-66550942D01*
X118774593Y-66439505D01*
X118765960Y-66436017D01*
X118525998Y-66359205D01*
X118516938Y-66357029D01*
X118268260Y-66316529D01*
X118258973Y-66315717D01*
X118007053Y-66312419D01*
X117997742Y-66312989D01*
X117748097Y-66346964D01*
X117738978Y-66348902D01*
X117497098Y-66419404D01*
X117488367Y-66422667D01*
X117259558Y-66528151D01*
X117251406Y-66532670D01*
X117072353Y-66650062D01*
X117063216Y-66660803D01*
X114311240Y-66660803D01*
X114185007Y-66564465D01*
X114132107Y-66524093D01*
X114132103Y-66524090D01*
X114128562Y-66521388D01*
X113899917Y-66393340D01*
X113895768Y-66391735D01*
X113895764Y-66391733D01*
X113692222Y-66312989D01*
X113655512Y-66298787D01*
X113651191Y-66297785D01*
X113651183Y-66297783D01*
X113436297Y-66247976D01*
X113400221Y-66239614D01*
X113139141Y-66217002D01*
X113134706Y-66217246D01*
X113134702Y-66217246D01*
X112881921Y-66231157D01*
X112881914Y-66231158D01*
X112877478Y-66231402D01*
X112620456Y-66282527D01*
X112616246Y-66284005D01*
X112616244Y-66284006D01*
X112563607Y-66302491D01*
X112373201Y-66369357D01*
X112369250Y-66371410D01*
X112369244Y-66371412D01*
X112283933Y-66415728D01*
X112140647Y-66490159D01*
X112137032Y-66492742D01*
X112137026Y-66492746D01*
X111931055Y-66639935D01*
X111931051Y-66639938D01*
X111927434Y-66642523D01*
X111888459Y-66679703D01*
X111764191Y-66798249D01*
X111737816Y-66823409D01*
X111735058Y-66826908D01*
X111735054Y-66826912D01*
X111690450Y-66883492D01*
X111632569Y-66924606D01*
X111561649Y-66927900D01*
X111500206Y-66892329D01*
X111467749Y-66829186D01*
X111465500Y-66805487D01*
X111465500Y-65815053D01*
X111465673Y-65808459D01*
X111469026Y-65744483D01*
X111469026Y-65744479D01*
X111469360Y-65738101D01*
X111458569Y-65666743D01*
X111457799Y-65660653D01*
X111451149Y-65595189D01*
X111450504Y-65588837D01*
X111448595Y-65582746D01*
X111448594Y-65582740D01*
X111446217Y-65575154D01*
X111441869Y-65556322D01*
X111440681Y-65548465D01*
X111440680Y-65548463D01*
X111439726Y-65542152D01*
X111414805Y-65474418D01*
X111412822Y-65468593D01*
X111393150Y-65405819D01*
X111393149Y-65405817D01*
X111391241Y-65399728D01*
X111384294Y-65387195D01*
X111376241Y-65369608D01*
X111373497Y-65362148D01*
X111373495Y-65362145D01*
X111371295Y-65356164D01*
X111333262Y-65294823D01*
X111330148Y-65289515D01*
X111298254Y-65231976D01*
X111295162Y-65226398D01*
X111285837Y-65215518D01*
X111274422Y-65199922D01*
X111270226Y-65193155D01*
X111266865Y-65187734D01*
X111262483Y-65183100D01*
X111262479Y-65183095D01*
X111217273Y-65135291D01*
X111213153Y-65130716D01*
X111170349Y-65080776D01*
X111166193Y-65075927D01*
X111154864Y-65067140D01*
X111140552Y-65054163D01*
X111130699Y-65043743D01*
X111071571Y-65002341D01*
X111066629Y-64998697D01*
X111014652Y-64958379D01*
X111014644Y-64958374D01*
X111009602Y-64954463D01*
X110996739Y-64948133D01*
X110980113Y-64938300D01*
X110973592Y-64933734D01*
X110973585Y-64933730D01*
X110968362Y-64930073D01*
X110962509Y-64927540D01*
X110962505Y-64927538D01*
X110902125Y-64901410D01*
X110896535Y-64898827D01*
X110837520Y-64869787D01*
X110837516Y-64869785D01*
X110831786Y-64866966D01*
X110825606Y-64865356D01*
X110825603Y-64865355D01*
X110817916Y-64863353D01*
X110799638Y-64857059D01*
X110792345Y-64853903D01*
X110792340Y-64853901D01*
X110786483Y-64851367D01*
X110715833Y-64836607D01*
X110709871Y-64835209D01*
X110640007Y-64817011D01*
X110625689Y-64816261D01*
X110606525Y-64813772D01*
X110601621Y-64812747D01*
X110597233Y-64811830D01*
X110597229Y-64811829D01*
X110592493Y-64810840D01*
X110586005Y-64810500D01*
X110519053Y-64810500D01*
X110512459Y-64810327D01*
X110448483Y-64806974D01*
X110448479Y-64806974D01*
X110442101Y-64806640D01*
X110427603Y-64808833D01*
X110425947Y-64809083D01*
X110407106Y-64810500D01*
X109146891Y-64810500D01*
X109078770Y-64790498D01*
X109053698Y-64769300D01*
X108980328Y-64688667D01*
X108980318Y-64688658D01*
X108976846Y-64684842D01*
X108839798Y-64576608D01*
X108787264Y-64535119D01*
X108787259Y-64535116D01*
X108783210Y-64531918D01*
X108778694Y-64529425D01*
X108778691Y-64529423D01*
X108571722Y-64415170D01*
X108571718Y-64415168D01*
X108567198Y-64412673D01*
X108562329Y-64410949D01*
X108562325Y-64410947D01*
X108339485Y-64332035D01*
X108339481Y-64332034D01*
X108334610Y-64330309D01*
X108329517Y-64329402D01*
X108329514Y-64329401D01*
X108096783Y-64287945D01*
X108096777Y-64287944D01*
X108091694Y-64287039D01*
X108012324Y-64286069D01*
X107850142Y-64284088D01*
X107850140Y-64284088D01*
X107844972Y-64284025D01*
X107601070Y-64321347D01*
X107366540Y-64398003D01*
X107147679Y-64511935D01*
X107143546Y-64515038D01*
X107143543Y-64515040D01*
X106950364Y-64660083D01*
X106948862Y-64658083D01*
X106894058Y-64683975D01*
X106874512Y-64685500D01*
X105945118Y-64685500D01*
X105876997Y-64665498D01*
X105828710Y-64607719D01*
X105821699Y-64590793D01*
X105821696Y-64590788D01*
X105818536Y-64583159D01*
X105722282Y-64457718D01*
X105596841Y-64361464D01*
X105450762Y-64300956D01*
X105345051Y-64287039D01*
X105337448Y-64286038D01*
X105337447Y-64286038D01*
X105333361Y-64285500D01*
X104394114Y-64285500D01*
X103454640Y-64285501D01*
X103450556Y-64286039D01*
X103450550Y-64286039D01*
X103345425Y-64299878D01*
X103345423Y-64299878D01*
X103337238Y-64300956D01*
X103191159Y-64361464D01*
X103065718Y-64457718D01*
X102969464Y-64583159D01*
X102908956Y-64729238D01*
X102907878Y-64737426D01*
X102898281Y-64810327D01*
X102893500Y-64846639D01*
X102893501Y-66725360D01*
X102894039Y-66729444D01*
X102894039Y-66729450D01*
X102907878Y-66834575D01*
X102908956Y-66842762D01*
X102969464Y-66988841D01*
X103065718Y-67114282D01*
X103191159Y-67210536D01*
X103307536Y-67258741D01*
X103329035Y-67267646D01*
X103337238Y-67271044D01*
X103345426Y-67272122D01*
X103450545Y-67285961D01*
X103454639Y-67286500D01*
X104393886Y-67286500D01*
X105333360Y-67286499D01*
X105337444Y-67285961D01*
X105337450Y-67285961D01*
X105442575Y-67272122D01*
X105442577Y-67272122D01*
X105450762Y-67271044D01*
X105596841Y-67210536D01*
X105722282Y-67114282D01*
X105818536Y-66988841D01*
X105821696Y-66981212D01*
X105821699Y-66981207D01*
X105828710Y-66964281D01*
X105873259Y-66909000D01*
X105945118Y-66886500D01*
X106880892Y-66886500D01*
X106949013Y-66906502D01*
X106961377Y-66915556D01*
X107080269Y-67014262D01*
X107086399Y-67019351D01*
X107299433Y-67143838D01*
X107304253Y-67145678D01*
X107304258Y-67145681D01*
X107418547Y-67189323D01*
X107529939Y-67231859D01*
X107535007Y-67232890D01*
X107535010Y-67232891D01*
X107652172Y-67256728D01*
X107771726Y-67281052D01*
X107776899Y-67281242D01*
X107776902Y-67281242D01*
X108013136Y-67289904D01*
X108013140Y-67289904D01*
X108018300Y-67290093D01*
X108023420Y-67289437D01*
X108023422Y-67289437D01*
X108128602Y-67275963D01*
X108263041Y-67258741D01*
X108267990Y-67257256D01*
X108267996Y-67257255D01*
X108494424Y-67189323D01*
X108494423Y-67189323D01*
X108499374Y-67187838D01*
X108639267Y-67119305D01*
X108716303Y-67081566D01*
X108716308Y-67081563D01*
X108720954Y-67079287D01*
X108725164Y-67076284D01*
X108725169Y-67076281D01*
X108917617Y-66939009D01*
X108917622Y-66939005D01*
X108921829Y-66936004D01*
X109029021Y-66829186D01*
X109060066Y-66798249D01*
X109122438Y-66764333D01*
X109149006Y-66761500D01*
X109388500Y-66761500D01*
X109456621Y-66781502D01*
X109503114Y-66835158D01*
X109514500Y-66887500D01*
X109514500Y-72014379D01*
X109494498Y-72082500D01*
X109440842Y-72128993D01*
X109370568Y-72139097D01*
X109305988Y-72109603D01*
X109288536Y-72091081D01*
X109283306Y-72084265D01*
X109283305Y-72084264D01*
X109278282Y-72077718D01*
X109152841Y-71981464D01*
X109006762Y-71920956D01*
X108907933Y-71907945D01*
X108893448Y-71906038D01*
X108893447Y-71906038D01*
X108889361Y-71905500D01*
X107950114Y-71905500D01*
X107010640Y-71905501D01*
X107006556Y-71906039D01*
X107006550Y-71906039D01*
X106901425Y-71919878D01*
X106901423Y-71919878D01*
X106893238Y-71920956D01*
X106747159Y-71981464D01*
X106621718Y-72077718D01*
X106525464Y-72203159D01*
X106464956Y-72349238D01*
X106463878Y-72357426D01*
X106462965Y-72364365D01*
X106449500Y-72466639D01*
X106449501Y-74345360D01*
X106450039Y-74349444D01*
X106450039Y-74349450D01*
X106461654Y-74437681D01*
X106464956Y-74462762D01*
X106525464Y-74608841D01*
X106621718Y-74734282D01*
X106747159Y-74830536D01*
X106876826Y-74884246D01*
X106893238Y-74891044D01*
X106892236Y-74893462D01*
X106941723Y-74923618D01*
X106972753Y-74987475D01*
X106974500Y-75008385D01*
X106974500Y-75235745D01*
X106954498Y-75303866D01*
X106937595Y-75324840D01*
X105963595Y-76298840D01*
X105901283Y-76332866D01*
X105830468Y-76327801D01*
X105773632Y-76285254D01*
X105748821Y-76218734D01*
X105748500Y-76209745D01*
X105748500Y-74081583D01*
X105761543Y-74025756D01*
X105791617Y-73964905D01*
X105793911Y-73960264D01*
X105827045Y-73851207D01*
X105864135Y-73729132D01*
X105864136Y-73729126D01*
X105865639Y-73724180D01*
X105893770Y-73510502D01*
X105897408Y-73482872D01*
X105897409Y-73482866D01*
X105897845Y-73479550D01*
X105899643Y-73406000D01*
X105885024Y-73228189D01*
X105879849Y-73165240D01*
X105879848Y-73165234D01*
X105879425Y-73160089D01*
X105819316Y-72920783D01*
X105743372Y-72746124D01*
X105722993Y-72699256D01*
X105722993Y-72699255D01*
X105720928Y-72694507D01*
X105586905Y-72487339D01*
X105579001Y-72478652D01*
X105475985Y-72365439D01*
X105420846Y-72304842D01*
X105416795Y-72301643D01*
X105416791Y-72301639D01*
X105231264Y-72155119D01*
X105231259Y-72155116D01*
X105227210Y-72151918D01*
X105222694Y-72149425D01*
X105222691Y-72149423D01*
X105015722Y-72035170D01*
X105015718Y-72035168D01*
X105011198Y-72032673D01*
X105006329Y-72030949D01*
X105006325Y-72030947D01*
X104783485Y-71952035D01*
X104783481Y-71952034D01*
X104778610Y-71950309D01*
X104773517Y-71949402D01*
X104773514Y-71949401D01*
X104540783Y-71907945D01*
X104540777Y-71907944D01*
X104535694Y-71907039D01*
X104456324Y-71906069D01*
X104294142Y-71904088D01*
X104294140Y-71904088D01*
X104288972Y-71904025D01*
X104045070Y-71941347D01*
X103810540Y-72018003D01*
X103785675Y-72030947D01*
X103597331Y-72128993D01*
X103591679Y-72131935D01*
X103587546Y-72135038D01*
X103587543Y-72135040D01*
X103398499Y-72276978D01*
X103394364Y-72280083D01*
X103223896Y-72458468D01*
X103220982Y-72462740D01*
X103220981Y-72462741D01*
X103140259Y-72581075D01*
X103084851Y-72662300D01*
X102980965Y-72886104D01*
X102915026Y-73123871D01*
X102888806Y-73369214D01*
X101842500Y-73369214D01*
X101842500Y-64053250D01*
X101844246Y-64032345D01*
X101846770Y-64017344D01*
X101846770Y-64017341D01*
X101847576Y-64012552D01*
X101847729Y-64000000D01*
X101847040Y-63995188D01*
X101846723Y-63990327D01*
X101847008Y-63990308D01*
X101846607Y-63963549D01*
X101853234Y-63904736D01*
X101859513Y-63877229D01*
X101886485Y-63800147D01*
X101898727Y-63774726D01*
X101942178Y-63705574D01*
X101959770Y-63683515D01*
X102017515Y-63625770D01*
X102039574Y-63608178D01*
X102108726Y-63564727D01*
X102134147Y-63552485D01*
X102211228Y-63525513D01*
X102238736Y-63519234D01*
X102294226Y-63512982D01*
X102309868Y-63513077D01*
X102309879Y-63512200D01*
X102318851Y-63512310D01*
X102327724Y-63513691D01*
X102336626Y-63512527D01*
X102336628Y-63512527D01*
X102351951Y-63510523D01*
X102359286Y-63509564D01*
X102375621Y-63508500D01*
X132284633Y-63508500D01*
X132304018Y-63510000D01*
G37*
%TD.AperFunction*%
%TD*%
M02*
