M48
; DRILL file {KiCad (6.0.10)} date Sat Jan 21 20:33:28 2023
; FORMAT={-:-/ absolute / metric / decimal}
; #@! TF.CreationDate,2023-01-21T20:33:28+05:30
; #@! TF.GenerationSoftware,Kicad,Pcbnew,(6.0.10)
; #@! TF.FileFunction,Plated,1,2,PTH
FMAT,2
METRIC
; #@! TA.AperFunction,Plated,PTH,ComponentDrill
T1C0.800
; #@! TA.AperFunction,Plated,PTH,ComponentDrill
T2C1.000
; #@! TA.AperFunction,Plated,PTH,ComponentDrill
T3C1.100
; #@! TA.AperFunction,Plated,PTH,ComponentDrill
T4C1.300
%
G90
G05
T1
X179.66Y-121.14
X179.66Y-128.76
X182.464Y-123.421
X182.464Y-125.961
X182.708Y-120.124
X190.084Y-123.421
X190.084Y-125.961
X190.328Y-120.124
X197.26Y-121.196
X197.26Y-128.816
X200.064Y-123.477
X200.064Y-126.017
X200.308Y-120.18
X207.684Y-123.477
X207.684Y-126.017
X207.928Y-120.18
X214.86Y-121.14
X214.86Y-128.76
X217.664Y-123.421
X217.664Y-125.961
X217.908Y-120.124
X225.284Y-123.421
X225.284Y-125.961
X225.528Y-120.124
X232.46Y-121.196
X232.46Y-128.816
X235.264Y-123.477
X235.264Y-126.017
X235.508Y-120.18
X242.884Y-123.477
X242.884Y-126.017
X243.128Y-120.18
T2
X179.914Y-115.806
X179.914Y-118.346
X193.001Y-119.362
X193.001Y-121.902
X193.001Y-124.442
X197.514Y-115.862
X197.514Y-118.402
X210.601Y-119.418
X210.601Y-121.958
X210.601Y-124.498
X215.114Y-115.806
X215.114Y-118.346
X228.201Y-119.362
X228.201Y-121.902
X228.201Y-124.442
X232.714Y-115.862
X232.714Y-118.402
X245.801Y-119.418
X245.801Y-121.958
X245.801Y-124.498
T3
X183.724Y-115.806
X193.884Y-115.806
X201.324Y-115.862
X211.484Y-115.862
X218.924Y-115.806
X229.084Y-115.806
X236.524Y-115.862
X246.684Y-115.862
T4
X180.518Y-97.098
X180.518Y-109.298
X184.018Y-86.596
X186.518Y-111.298
X189.018Y-86.596
X192.518Y-97.098
X192.518Y-109.298
X198.118Y-97.154
X198.118Y-109.354
X201.618Y-86.652
X204.118Y-111.354
X206.618Y-86.652
X210.118Y-97.154
X210.118Y-109.354
X215.718Y-97.098
X215.718Y-109.298
X219.218Y-86.596
X221.718Y-111.298
X224.218Y-86.596
X227.718Y-97.098
X227.718Y-109.298
X233.318Y-97.154
X233.318Y-109.354
X236.818Y-86.652
X239.318Y-111.354
X241.818Y-86.652
X245.318Y-97.154
X245.318Y-109.354
T0
M30
